{"glyphs":{"0":{"ha":608,"x_min":0,"x_max":521,"o":"m 347 87 l 347 347 l 260 347 l 260 521 l 347 521 l 347 608 l 174 608 l 174 347 l 260 347 l 260 174 l 174 174 l 174 87 l 347 87 m 87 0 l 87 87 l 0 87 l 0 608 l 87 608 l 87 694 l 434 694 l 434 608 l 521 608 l 521 87 l 434 87 l 434 0 l 87 0 z "},"1":{"ha":434,"x_min":0,"x_max":347,"o":"m 0 0 l 0 87 l 87 87 l 87 521 l 0 521 l 0 608 l 87 608 l 87 694 l 260 694 l 260 87 l 347 87 l 347 0 l 0 0 z "},"2":{"ha":608,"x_min":0,"x_max":521,"o":"m 0 0 l 0 174 l 87 174 l 87 260 l 174 260 l 174 347 l 260 347 l 260 434 l 347 434 l 347 608 l 174 608 l 174 521 l 0 521 l 0 608 l 87 608 l 87 694 l 434 694 l 434 608 l 521 608 l 521 434 l 434 434 l 434 347 l 347 347 l 347 260 l 260 260 l 260 174 l 174 174 l 174 87 l 521 87 l 521 0 l 0 0 z "},"3":{"ha":608,"x_min":0,"x_max":521,"o":"m 87 0 l 87 87 l 0 87 l 0 174 l 174 174 l 174 87 l 347 87 l 347 347 l 174 347 l 174 434 l 347 434 l 347 608 l 174 608 l 174 521 l 0 521 l 0 608 l 87 608 l 87 694 l 434 694 l 434 608 l 521 608 l 521 434 l 434 434 l 434 347 l 521 347 l 521 87 l 434 87 l 434 0 l 87 0 z "},"4":{"ha":608,"x_min":0,"x_max":521,"o":"m 347 0 l 347 174 l 0 174 l 0 434 l 87 434 l 87 521 l 174 521 l 174 694 l 347 694 l 347 521 l 260 521 l 260 347 l 174 347 l 174 260 l 347 260 l 347 434 l 434 434 l 434 521 l 521 521 l 521 0 l 347 0 z "},"5":{"ha":608,"x_min":0,"x_max":521,"o":"m 87 0 l 87 87 l 0 87 l 0 174 l 174 174 l 174 87 l 347 87 l 347 347 l 0 347 l 0 694 l 521 694 l 521 608 l 174 608 l 174 434 l 434 434 l 434 347 l 521 347 l 521 87 l 434 87 l 434 0 l 87 0 z "},"6":{"ha":608,"x_min":0,"x_max":521,"o":"m 347 87 l 347 347 l 174 347 l 174 87 l 347 87 m 87 0 l 87 87 l 0 87 l 0 434 l 87 434 l 87 521 l 174 521 l 174 608 l 260 608 l 260 694 l 434 694 l 434 608 l 347 608 l 347 521 l 260 521 l 260 434 l 434 434 l 434 347 l 521 347 l 521 87 l 434 87 l 434 0 l 87 0 z "},"7":{"ha":608,"x_min":0,"x_max":521,"o":"m 174 0 l 174 347 l 260 347 l 260 521 l 347 521 l 347 608 l 0 608 l 0 694 l 521 694 l 521 521 l 434 521 l 434 347 l 347 347 l 347 0 l 174 0 z "},"8":{"ha":608,"x_min":0,"x_max":521,"o":"m 347 87 l 347 347 l 174 347 l 174 87 l 347 87 m 347 434 l 347 608 l 174 608 l 174 434 l 347 434 m 87 0 l 87 87 l 0 87 l 0 347 l 87 347 l 87 434 l 0 434 l 0 608 l 87 608 l 87 694 l 434 694 l 434 608 l 521 608 l 521 434 l 434 434 l 434 347 l 521 347 l 521 87 l 434 87 l 434 0 l 87 0 z "},"9":{"ha":608,"x_min":0,"x_max":521,"o":"m 347 347 l 347 608 l 174 608 l 174 347 l 347 347 m 87 0 l 87 87 l 174 87 l 174 174 l 260 174 l 260 260 l 87 260 l 87 347 l 0 347 l 0 608 l 87 608 l 87 694 l 434 694 l 434 608 l 521 608 l 521 260 l 434 260 l 434 174 l 347 174 l 347 87 l 260 87 l 260 0 l 87 0 z "}," ":{"ha":260,"x_min":0,"x_max":0,"o":""},"!":{"ha":260,"x_min":0,"x_max":174,"o":"m 0 0 l 0 87 l 174 87 l 174 0 l 0 0 m 0 174 l 0 694 l 174 694 l 174 174 l 0 174 z "},"\"":{"ha":521,"x_min":0,"x_max":434,"o":"m 0 434 l 0 694 l 174 694 l 174 434 l 0 434 m 260 434 l 260 694 l 434 694 l 434 434 l 260 434 z "},"#":{"ha":694,"x_min":0,"x_max":608,"o":"m 347 260 l 347 434 l 260 434 l 260 260 l 347 260 m 87 0 l 87 174 l 0 174 l 0 260 l 87 260 l 87 434 l 0 434 l 0 521 l 87 521 l 87 694 l 260 694 l 260 521 l 347 521 l 347 694 l 521 694 l 521 521 l 608 521 l 608 434 l 521 434 l 521 260 l 608 260 l 608 174 l 521 174 l 521 0 l 347 0 l 347 174 l 260 174 l 260 0 l 87 0 z "},"$":{"ha":608,"x_min":0,"x_max":521,"o":"m 174 -87 l 174 0 l 87 0 l 87 87 l 0 87 l 0 174 l 174 174 l 174 87 l 347 87 l 347 260 l 87 260 l 87 347 l 0 347 l 0 521 l 87 521 l 87 608 l 174 608 l 174 694 l 347 694 l 347 608 l 434 608 l 434 521 l 521 521 l 521 434 l 347 434 l 347 521 l 174 521 l 174 347 l 434 347 l 434 260 l 521 260 l 521 87 l 434 87 l 434 0 l 347 0 l 347 -87 l 174 -87 z "},"%":{"ha":868,"x_min":0,"x_max":781,"o":"m 0 0 l 0 87 l 87 87 l 87 174 l 174 174 l 174 260 l 260 260 l 260 87 l 174 87 l 174 0 l 0 0 m 608 87 l 608 260 l 521 260 l 521 87 l 608 87 m 434 0 l 434 87 l 347 87 l 347 260 l 434 260 l 434 347 l 694 347 l 694 260 l 781 260 l 781 87 l 694 87 l 694 0 l 434 0 m 260 434 l 260 608 l 174 608 l 174 434 l 260 434 m 87 347 l 87 434 l 0 434 l 0 608 l 87 608 l 87 694 l 347 694 l 347 608 l 434 608 l 434 434 l 347 434 l 347 347 l 87 347 m 521 434 l 521 608 l 608 608 l 608 694 l 781 694 l 781 608 l 694 608 l 694 521 l 608 521 l 608 434 l 521 434 z "},"&":{"ha":608,"x_min":0,"x_max":521,"o":"m 347 0 l 347 87 l 260 87 l 260 347 l 347 347 l 347 434 l 521 434 l 521 347 l 434 347 l 434 87 l 521 87 l 521 0 l 347 0 m 347 521 l 347 608 l 434 608 l 434 521 l 347 521 m 87 0 l 87 87 l 0 87 l 0 347 l 87 347 l 87 434 l 0 434 l 0 608 l 87 608 l 87 694 l 347 694 l 347 608 l 174 608 l 174 434 l 260 434 l 260 347 l 174 347 l 174 87 l 260 87 l 260 0 l 87 0 z "},"'":{"ha":260,"x_min":0,"x_max":174,"o":"m 0 434 l 0 694 l 174 694 l 174 434 l 0 434 z "},"(":{"ha":347,"x_min":0,"x_max":260,"o":"m 87 -174 l 87 -87 l 0 -87 l 0 608 l 87 608 l 87 694 l 260 694 l 260 608 l 174 608 l 174 -87 l 260 -87 l 260 -174 l 87 -174 z "},")":{"ha":347,"x_min":0,"x_max":260,"o":"m 0 -174 l 0 -87 l 87 -87 l 87 608 l 0 608 l 0 694 l 174 694 l 174 608 l 260 608 l 260 -87 l 174 -87 l 174 -174 l 0 -174 z "},"*":{"ha":608,"x_min":0,"x_max":521,"o":"m 434 260 l 434 347 l 521 347 l 521 260 l 434 260 m 0 521 l 0 608 l 87 608 l 87 521 l 0 521 m 174 174 l 174 347 l 87 347 l 87 260 l 0 260 l 0 434 l 87 434 l 87 521 l 174 521 l 174 694 l 347 694 l 347 521 l 434 521 l 434 608 l 521 608 l 521 434 l 434 434 l 434 347 l 347 347 l 347 174 l 174 174 z "},"+":{"ha":608,"x_min":0,"x_max":521,"o":"m 174 87 l 174 260 l 0 260 l 0 347 l 174 347 l 174 521 l 347 521 l 347 347 l 521 347 l 521 260 l 347 260 l 347 87 l 174 87 z "},",":{"ha":260,"x_min":-87,"x_max":174,"o":"m -87 -87 l -87 0 l 0 0 l 0 174 l 174 174 l 174 0 l 87 0 l 87 -87 l -87 -87 z "},"-":{"ha":347,"x_min":0,"x_max":260,"o":"m 0 260 l 0 347 l 260 347 l 260 260 l 0 260 z "},".":{"ha":260,"x_min":0,"x_max":174,"o":"m 0 0 l 0 174 l 174 174 l 174 0 l 0 0 z "},"/":{"ha":434,"x_min":0,"x_max":347,"o":"m 0 0 l 0 260 l 87 260 l 87 434 l 174 434 l 174 694 l 347 694 l 347 434 l 260 434 l 260 260 l 174 260 l 174 0 l 0 0 z "},":":{"ha":260,"x_min":0,"x_max":174,"o":"m 0 0 l 0 174 l 174 174 l 174 0 l 0 0 m 0 347 l 0 521 l 174 521 l 174 347 l 0 347 z "},";":{"ha":260,"x_min":0,"x_max":174,"o":"m 0 -87 l 0 0 l 87 0 l 87 -87 l 0 -87 m 87 0 l 87 87 l 0 87 l 0 174 l 174 174 l 174 0 l 87 0 m 0 347 l 0 521 l 174 521 l 174 347 l 0 347 z "},"<":{"ha":434,"x_min":0,"x_max":347,"o":"m 174 87 l 174 174 l 87 174 l 87 260 l 0 260 l 0 347 l 87 347 l 87 434 l 174 434 l 174 521 l 347 521 l 347 434 l 260 434 l 260 347 l 174 347 l 174 260 l 260 260 l 260 174 l 347 174 l 347 87 l 174 87 z "},"=":{"ha":434,"x_min":0,"x_max":347,"o":"m 0 174 l 0 260 l 347 260 l 347 174 l 0 174 m 0 347 l 0 434 l 347 434 l 347 347 l 0 347 z "},">":{"ha":434,"x_min":0,"x_max":347,"o":"m 0 87 l 0 174 l 87 174 l 87 260 l 174 260 l 174 347 l 87 347 l 87 434 l 0 434 l 0 521 l 174 521 l 174 434 l 260 434 l 260 347 l 347 347 l 347 260 l 260 260 l 260 174 l 174 174 l 174 87 l 0 87 z "},"?":{"ha":608,"x_min":0,"x_max":521,"o":"m 174 0 l 174 87 l 347 87 l 347 0 l 174 0 m 174 174 l 174 347 l 347 347 l 347 608 l 174 608 l 174 521 l 0 521 l 0 608 l 87 608 l 87 694 l 434 694 l 434 608 l 521 608 l 521 347 l 434 347 l 434 260 l 347 260 l 347 174 l 174 174 z "},"@":{"ha":955,"x_min":0,"x_max":868,"o":"m 174 -174 l 174 -87 l 694 -87 l 694 -174 l 174 -174 m 87 -87 l 87 0 l 174 0 l 174 -87 l 87 -87 m 0 0 l 0 521 l 87 521 l 87 0 l 0 0 m 260 0 l 260 87 l 174 87 l 174 260 l 260 260 l 260 347 l 521 347 l 521 434 l 260 434 l 260 521 l 608 521 l 608 434 l 694 434 l 694 87 l 781 87 l 781 0 l 608 0 l 608 87 l 521 87 l 521 260 l 347 260 l 347 87 l 521 87 l 521 0 l 260 0 m 781 87 l 781 521 l 868 521 l 868 87 l 781 87 m 87 521 l 87 608 l 174 608 l 174 521 l 87 521 m 694 521 l 694 608 l 781 608 l 781 521 l 694 521 m 174 608 l 174 694 l 694 694 l 694 608 l 174 608 z "},"A":{"ha":608,"x_min":0,"x_max":521,"o":"m 347 260 l 347 521 l 174 521 l 174 260 l 347 260 m 0 0 l 0 521 l 87 521 l 87 608 l 174 608 l 174 694 l 347 694 l 347 608 l 434 608 l 434 521 l 521 521 l 521 0 l 347 0 l 347 174 l 174 174 l 174 0 l 0 0 z "},"B":{"ha":608,"x_min":0,"x_max":521,"o":"m 347 87 l 347 347 l 174 347 l 174 87 l 347 87 m 347 434 l 347 608 l 174 608 l 174 434 l 347 434 m 0 0 l 0 694 l 434 694 l 434 608 l 521 608 l 521 434 l 434 434 l 434 347 l 521 347 l 521 87 l 434 87 l 434 0 l 0 0 z "},"C":{"ha":608,"x_min":0,"x_max":521,"o":"m 87 0 l 87 87 l 0 87 l 0 608 l 87 608 l 87 694 l 434 694 l 434 608 l 521 608 l 521 434 l 347 434 l 347 608 l 174 608 l 174 87 l 347 87 l 347 260 l 521 260 l 521 87 l 434 87 l 434 0 l 87 0 z "},"D":{"ha":608,"x_min":0,"x_max":521,"o":"m 347 87 l 347 608 l 174 608 l 174 87 l 347 87 m 0 0 l 0 694 l 434 694 l 434 608 l 521 608 l 521 87 l 434 87 l 434 0 l 0 0 z "},"E":{"ha":521,"x_min":0,"x_max":434,"o":"m 0 0 l 0 694 l 434 694 l 434 608 l 174 608 l 174 434 l 347 434 l 347 347 l 174 347 l 174 87 l 434 87 l 434 0 l 0 0 z "},"F":{"ha":521,"x_min":0,"x_max":434,"o":"m 0 0 l 0 694 l 434 694 l 434 608 l 174 608 l 174 347 l 347 347 l 347 260 l 174 260 l 174 0 l 0 0 z "},"G":{"ha":608,"x_min":0,"x_max":521,"o":"m 434 0 l 434 87 l 347 87 l 347 347 l 260 347 l 260 434 l 521 434 l 521 0 l 434 0 m 87 0 l 87 87 l 0 87 l 0 608 l 87 608 l 87 694 l 434 694 l 434 608 l 521 608 l 521 521 l 347 521 l 347 608 l 174 608 l 174 87 l 347 87 l 347 0 l 87 0 z "},"H":{"ha":608,"x_min":0,"x_max":521,"o":"m 0 0 l 0 694 l 174 694 l 174 434 l 347 434 l 347 694 l 521 694 l 521 0 l 347 0 l 347 347 l 174 347 l 174 0 l 0 0 z "},"I":{"ha":434,"x_min":0,"x_max":347,"o":"m 0 0 l 0 87 l 87 87 l 87 608 l 0 608 l 0 694 l 347 694 l 347 608 l 260 608 l 260 87 l 347 87 l 347 0 l 0 0 z "},"J":{"ha":347,"x_min":-87,"x_max":260,"o":"m -87 -174 l -87 -87 l 87 -87 l 87 608 l 0 608 l 0 694 l 260 694 l 260 -87 l 174 -87 l 174 -174 l -87 -174 z "},"K":{"ha":608,"x_min":0,"x_max":521,"o":"m 347 0 l 347 347 l 434 347 l 434 260 l 521 260 l 521 0 l 347 0 m 0 0 l 0 694 l 174 694 l 174 434 l 260 434 l 260 521 l 347 521 l 347 694 l 521 694 l 521 521 l 434 521 l 434 434 l 347 434 l 347 347 l 260 347 l 260 260 l 174 260 l 174 0 l 0 0 z "},"L":{"ha":521,"x_min":0,"x_max":434,"o":"m 0 0 l 0 694 l 174 694 l 174 87 l 434 87 l 434 0 l 0 0 z "},"M":{"ha":694,"x_min":0,"x_max":608,"o":"m 260 174 l 260 347 l 347 347 l 347 174 l 260 174 m 0 0 l 0 694 l 174 694 l 174 521 l 260 521 l 260 347 l 174 347 l 174 0 l 0 0 m 434 0 l 434 347 l 347 347 l 347 521 l 434 521 l 434 694 l 608 694 l 608 0 l 434 0 z "},"N":{"ha":608,"x_min":0,"x_max":521,"o":"m 0 0 l 0 694 l 174 694 l 174 521 l 260 521 l 260 347 l 174 347 l 174 0 l 0 0 m 347 0 l 347 174 l 260 174 l 260 347 l 347 347 l 347 694 l 521 694 l 521 0 l 347 0 z "},"O":{"ha":608,"x_min":0,"x_max":521,"o":"m 347 87 l 347 608 l 174 608 l 174 87 l 347 87 m 87 0 l 87 87 l 0 87 l 0 608 l 87 608 l 87 694 l 434 694 l 434 608 l 521 608 l 521 87 l 434 87 l 434 0 l 87 0 z "},"P":{"ha":608,"x_min":0,"x_max":521,"o":"m 347 347 l 347 608 l 174 608 l 174 347 l 347 347 m 0 0 l 0 694 l 434 694 l 434 608 l 521 608 l 521 347 l 434 347 l 434 260 l 174 260 l 174 0 l 0 0 z "},"Q":{"ha":608,"x_min":0,"x_max":521,"o":"m 347 87 l 347 608 l 174 608 l 174 87 l 347 87 m 260 -174 l 260 -87 l 174 -87 l 174 0 l 87 0 l 87 87 l 0 87 l 0 608 l 87 608 l 87 694 l 434 694 l 434 608 l 521 608 l 521 87 l 434 87 l 434 0 l 347 0 l 347 -87 l 521 -87 l 521 -174 l 260 -174 z "},"R":{"ha":608,"x_min":0,"x_max":521,"o":"m 0 0 l 0 694 l 434 694 l 434 608 l 521 608 l 521 434 l 434 434 l 434 347 l 347 347 l 347 608 l 174 608 l 174 347 l 347 347 l 347 260 l 434 260 l 434 174 l 521 174 l 521 0 l 347 0 l 347 174 l 260 174 l 260 260 l 174 260 l 174 0 l 0 0 z "},"S":{"ha":608,"x_min":0,"x_max":521,"o":"m 87 0 l 87 87 l 0 87 l 0 174 l 174 174 l 174 87 l 347 87 l 347 260 l 260 260 l 260 347 l 87 347 l 87 434 l 0 434 l 0 608 l 87 608 l 87 694 l 434 694 l 434 608 l 521 608 l 521 521 l 347 521 l 347 608 l 174 608 l 174 434 l 347 434 l 347 347 l 434 347 l 434 260 l 521 260 l 521 87 l 434 87 l 434 0 l 87 0 z "},"T":{"ha":608,"x_min":0,"x_max":521,"o":"m 174 0 l 174 608 l 0 608 l 0 694 l 521 694 l 521 608 l 347 608 l 347 0 l 174 0 z "},"U":{"ha":608,"x_min":0,"x_max":521,"o":"m 87 0 l 87 87 l 0 87 l 0 694 l 174 694 l 174 87 l 347 87 l 347 694 l 521 694 l 521 87 l 434 87 l 434 0 l 87 0 z "},"V":{"ha":608,"x_min":0,"x_max":521,"o":"m 174 0 l 174 87 l 87 87 l 87 174 l 0 174 l 0 694 l 174 694 l 174 174 l 347 174 l 347 694 l 521 694 l 521 174 l 434 174 l 434 87 l 347 87 l 347 0 l 174 0 z "},"W":{"ha":694,"x_min":0,"x_max":608,"o":"m 260 260 l 260 434 l 347 434 l 347 260 l 260 260 m 0 0 l 0 694 l 174 694 l 174 260 l 260 260 l 260 87 l 174 87 l 174 0 l 0 0 m 434 0 l 434 87 l 347 87 l 347 260 l 434 260 l 434 694 l 608 694 l 608 0 l 434 0 z "},"X":{"ha":608,"x_min":0,"x_max":521,"o":"m 0 0 l 0 347 l 87 347 l 87 434 l 0 434 l 0 694 l 174 694 l 174 434 l 347 434 l 347 694 l 521 694 l 521 434 l 434 434 l 434 347 l 521 347 l 521 0 l 347 0 l 347 347 l 174 347 l 174 0 l 0 0 z "},"Y":{"ha":608,"x_min":0,"x_max":521,"o":"m 174 0 l 174 260 l 87 260 l 87 347 l 0 347 l 0 694 l 174 694 l 174 347 l 347 347 l 347 694 l 521 694 l 521 347 l 434 347 l 434 260 l 347 260 l 347 0 l 174 0 z "},"Z":{"ha":608,"x_min":0,"x_max":521,"o":"m 0 0 l 0 260 l 87 260 l 87 347 l 174 347 l 174 434 l 260 434 l 260 521 l 347 521 l 347 608 l 0 608 l 0 694 l 521 694 l 521 521 l 434 521 l 434 434 l 347 434 l 347 347 l 260 347 l 260 260 l 174 260 l 174 87 l 521 87 l 521 0 l 0 0 z "},"[":{"ha":347,"x_min":0,"x_max":260,"o":"m 0 -174 l 0 694 l 260 694 l 260 608 l 174 608 l 174 -87 l 260 -87 l 260 -174 l 0 -174 z "},"\\":{"ha":434,"x_min":0,"x_max":347,"o":"m 174 0 l 174 260 l 87 260 l 87 434 l 0 434 l 0 694 l 174 694 l 174 434 l 260 434 l 260 260 l 347 260 l 347 0 l 174 0 z "},"]":{"ha":347,"x_min":0,"x_max":260,"o":"m 0 -174 l 0 -87 l 87 -87 l 87 608 l 0 608 l 0 694 l 260 694 l 260 -174 l 0 -174 z "},"^":{"ha":521,"x_min":0,"x_max":434,"o":"m 0 347 l 0 521 l 87 521 l 87 608 l 174 608 l 174 694 l 260 694 l 260 608 l 347 608 l 347 521 l 434 521 l 434 347 l 347 347 l 347 434 l 260 434 l 260 521 l 174 521 l 174 434 l 87 434 l 87 347 l 0 347 z "},"_":{"ha":521,"x_min":0,"x_max":521,"o":"m 0 -174 l 0 -87 l 521 -87 l 521 -174 l 0 -174 z "},"`":{"ha":347,"x_min":0,"x_max":260,"o":"m 87 521 l 87 608 l 0 608 l 0 694 l 174 694 l 174 608 l 260 608 l 260 521 l 87 521 z "},"a":{"ha":608,"x_min":0,"x_max":521,"o":"m 87 0 l 87 87 l 0 87 l 0 260 l 87 260 l 87 347 l 347 347 l 347 434 l 87 434 l 87 521 l 434 521 l 434 434 l 521 434 l 521 0 l 434 0 l 434 87 l 347 87 l 347 260 l 174 260 l 174 87 l 347 87 l 347 0 l 87 0 z "},"b":{"ha":608,"x_min":0,"x_max":521,"o":"m 0 0 l 0 694 l 174 694 l 174 434 l 260 434 l 260 347 l 174 347 l 174 87 l 347 87 l 347 434 l 260 434 l 260 521 l 434 521 l 434 434 l 521 434 l 521 87 l 434 87 l 434 0 l 0 0 z "},"c":{"ha":608,"x_min":0,"x_max":521,"o":"m 87 0 l 87 87 l 0 87 l 0 434 l 87 434 l 87 521 l 434 521 l 434 434 l 521 434 l 521 347 l 347 347 l 347 434 l 174 434 l 174 87 l 347 87 l 347 174 l 521 174 l 521 87 l 434 87 l 434 0 l 87 0 z "},"d":{"ha":608,"x_min":0,"x_max":521,"o":"m 87 0 l 87 87 l 0 87 l 0 434 l 87 434 l 87 521 l 347 521 l 347 694 l 521 694 l 521 0 l 434 0 l 434 87 l 347 87 l 347 434 l 174 434 l 174 87 l 347 87 l 347 0 l 87 0 z "},"e":{"ha":608,"x_min":0,"x_max":521,"o":"m 347 347 l 347 434 l 174 434 l 174 347 l 347 347 m 87 0 l 87 87 l 0 87 l 0 434 l 87 434 l 87 521 l 434 521 l 434 434 l 521 434 l 521 260 l 174 260 l 174 87 l 347 87 l 347 174 l 521 174 l 521 87 l 434 87 l 434 0 l 87 0 z "},"f":{"ha":521,"x_min":0,"x_max":434,"o":"m 87 0 l 87 434 l 0 434 l 0 521 l 87 521 l 87 608 l 174 608 l 174 694 l 434 694 l 434 608 l 260 608 l 260 521 l 434 521 l 434 434 l 260 434 l 260 0 l 87 0 z "},"g":{"ha":608,"x_min":0,"x_max":521,"o":"m 347 260 l 347 434 l 174 434 l 174 260 l 347 260 m 87 -174 l 87 -87 l 347 -87 l 347 0 l 87 0 l 87 87 l 0 87 l 0 174 l 87 174 l 87 260 l 0 260 l 0 434 l 87 434 l 87 521 l 347 521 l 347 608 l 521 608 l 521 521 l 434 521 l 434 434 l 521 434 l 521 260 l 434 260 l 434 174 l 174 174 l 174 87 l 521 87 l 521 -87 l 434 -87 l 434 -174 l 87 -174 z "},"h":{"ha":608,"x_min":0,"x_max":521,"o":"m 347 0 l 347 434 l 260 434 l 260 521 l 434 521 l 434 434 l 521 434 l 521 0 l 347 0 m 0 0 l 0 694 l 174 694 l 174 434 l 260 434 l 260 347 l 174 347 l 174 0 l 0 0 z "},"i":{"ha":260,"x_min":0,"x_max":174,"o":"m 0 608 l 0 694 l 174 694 l 174 608 l 0 608 m 0 0 l 0 521 l 174 521 l 174 0 l 0 0 z "},"j":{"ha":347,"x_min":-87,"x_max":260,"o":"m 87 608 l 87 694 l 260 694 l 260 608 l 87 608 m -87 -174 l -87 -87 l 87 -87 l 87 434 l 0 434 l 0 521 l 260 521 l 260 -87 l 174 -87 l 174 -174 l -87 -174 z "},"k":{"ha":608,"x_min":0,"x_max":521,"o":"m 347 0 l 347 260 l 434 260 l 434 174 l 521 174 l 521 0 l 347 0 m 260 260 l 260 434 l 347 434 l 347 521 l 521 521 l 521 434 l 434 434 l 434 347 l 347 347 l 347 260 l 260 260 m 0 0 l 0 694 l 174 694 l 174 260 l 260 260 l 260 174 l 174 174 l 174 0 l 0 0 z "},"l":{"ha":347,"x_min":0,"x_max":260,"o":"m 87 0 l 87 87 l 0 87 l 0 694 l 174 694 l 174 87 l 260 87 l 260 0 l 87 0 z "},"m":{"ha":781,"x_min":0,"x_max":694,"o":"m 0 0 l 0 521 l 347 521 l 347 434 l 434 434 l 434 0 l 260 0 l 260 434 l 174 434 l 174 0 l 0 0 m 521 0 l 521 434 l 434 434 l 434 521 l 608 521 l 608 434 l 694 434 l 694 0 l 521 0 z "},"n":{"ha":608,"x_min":0,"x_max":521,"o":"m 0 0 l 0 521 l 174 521 l 174 434 l 260 434 l 260 347 l 174 347 l 174 0 l 0 0 m 347 0 l 347 434 l 260 434 l 260 521 l 434 521 l 434 434 l 521 434 l 521 0 l 347 0 z "},"o":{"ha":608,"x_min":0,"x_max":521,"o":"m 347 87 l 347 434 l 174 434 l 174 87 l 347 87 m 87 0 l 87 87 l 0 87 l 0 434 l 87 434 l 87 521 l 434 521 l 434 434 l 521 434 l 521 87 l 434 87 l 434 0 l 87 0 z "},"p":{"ha":608,"x_min":0,"x_max":521,"o":"m 0 -174 l 0 521 l 174 521 l 174 434 l 260 434 l 260 347 l 174 347 l 174 87 l 347 87 l 347 434 l 260 434 l 260 521 l 434 521 l 434 434 l 521 434 l 521 87 l 434 87 l 434 0 l 174 0 l 174 -174 l 0 -174 z "},"q":{"ha":608,"x_min":0,"x_max":521,"o":"m 347 -174 l 347 87 l 260 87 l 260 174 l 347 174 l 347 434 l 174 434 l 174 87 l 260 87 l 260 0 l 87 0 l 87 87 l 0 87 l 0 434 l 87 434 l 87 521 l 521 521 l 521 -174 l 347 -174 z "},"r":{"ha":434,"x_min":0,"x_max":347,"o":"m 0 0 l 0 521 l 174 521 l 174 434 l 260 434 l 260 521 l 347 521 l 347 347 l 174 347 l 174 0 l 0 0 z "},"s":{"ha":521,"x_min":0,"x_max":434,"o":"m 0 87 l 0 174 l 87 174 l 87 87 l 0 87 m 347 347 l 347 434 l 434 434 l 434 347 l 347 347 m 87 0 l 87 87 l 260 87 l 260 174 l 174 174 l 174 260 l 87 260 l 87 347 l 0 347 l 0 434 l 87 434 l 87 521 l 347 521 l 347 434 l 174 434 l 174 347 l 260 347 l 260 260 l 347 260 l 347 174 l 434 174 l 434 87 l 347 87 l 347 0 l 87 0 z "},"t":{"ha":521,"x_min":0,"x_max":434,"o":"m 174 0 l 174 87 l 87 87 l 87 434 l 0 434 l 0 521 l 87 521 l 87 694 l 260 694 l 260 521 l 434 521 l 434 434 l 260 434 l 260 87 l 434 87 l 434 0 l 174 0 z "},"u":{"ha":608,"x_min":0,"x_max":521,"o":"m 87 0 l 87 87 l 0 87 l 0 521 l 174 521 l 174 87 l 347 87 l 347 0 l 87 0 m 434 0 l 434 87 l 347 87 l 347 521 l 521 521 l 521 0 l 434 0 z "},"v":{"ha":608,"x_min":0,"x_max":521,"o":"m 174 0 l 174 87 l 87 87 l 87 174 l 0 174 l 0 521 l 174 521 l 174 174 l 347 174 l 347 521 l 521 521 l 521 174 l 434 174 l 434 87 l 347 87 l 347 0 l 174 0 z "},"w":{"ha":694,"x_min":0,"x_max":608,"o":"m 0 0 l 0 521 l 174 521 l 174 260 l 260 260 l 260 434 l 347 434 l 347 260 l 434 260 l 434 521 l 608 521 l 608 0 l 434 0 l 434 87 l 347 87 l 347 174 l 260 174 l 260 87 l 174 87 l 174 0 l 0 0 z "},"x":{"ha":608,"x_min":0,"x_max":521,"o":"m 347 0 l 347 260 l 434 260 l 434 174 l 521 174 l 521 0 l 347 0 m 87 347 l 87 434 l 0 434 l 0 521 l 174 521 l 174 347 l 87 347 m 0 0 l 0 174 l 87 174 l 87 260 l 174 260 l 174 347 l 260 347 l 260 434 l 347 434 l 347 521 l 521 521 l 521 434 l 434 434 l 434 347 l 347 347 l 347 260 l 260 260 l 260 174 l 174 174 l 174 0 l 0 0 z "},"y":{"ha":608,"x_min":0,"x_max":521,"o":"m 0 -174 l 0 -87 l 174 -87 l 174 87 l 87 87 l 87 260 l 0 260 l 0 521 l 174 521 l 174 260 l 260 260 l 260 174 l 347 174 l 347 521 l 521 521 l 521 260 l 434 260 l 434 87 l 347 87 l 347 -87 l 260 -87 l 260 -174 l 0 -174 z "},"z":{"ha":521,"x_min":0,"x_max":434,"o":"m 0 0 l 0 174 l 87 174 l 87 260 l 174 260 l 174 347 l 260 347 l 260 434 l 0 434 l 0 521 l 434 521 l 434 347 l 347 347 l 347 260 l 260 260 l 260 174 l 174 174 l 174 87 l 434 87 l 434 0 l 0 0 z "},"{":{"ha":434,"x_min":0,"x_max":347,"o":"m 174 -174 l 174 -87 l 87 -87 l 87 260 l 0 260 l 0 347 l 87 347 l 87 608 l 174 608 l 174 694 l 347 694 l 347 608 l 260 608 l 260 347 l 174 347 l 174 260 l 260 260 l 260 -87 l 347 -87 l 347 -174 l 174 -174 z "},"|":{"ha":260,"x_min":0,"x_max":174,"o":"m 0 -174 l 0 694 l 174 694 l 174 -174 l 0 -174 z "},"}":{"ha":434,"x_min":0,"x_max":347,"o":"m 0 -174 l 0 -87 l 87 -87 l 87 260 l 174 260 l 174 347 l 87 347 l 87 608 l 0 608 l 0 694 l 174 694 l 174 608 l 260 608 l 260 347 l 347 347 l 347 260 l 260 260 l 260 -87 l 174 -87 l 174 -174 l 0 -174 z "},"~":{"ha":521,"x_min":0,"x_max":434,"o":"m 0 260 l 0 347 l 87 347 l 87 260 l 0 260 m 174 260 l 174 347 l 87 347 l 87 434 l 260 434 l 260 347 l 347 347 l 347 260 l 174 260 m 347 347 l 347 434 l 434 434 l 434 347 l 347 347 z "}," ":{"ha":434,"x_min":0,"x_max":0,"o":""},"¡":{"ha":260,"x_min":0,"x_max":174,"o":"m 0 -174 l 0 347 l 174 347 l 174 -174 l 0 -174 m 0 434 l 0 521 l 174 521 l 174 434 l 0 434 z "},"¢":{"ha":608,"x_min":0,"x_max":521,"o":"m 174 -87 l 174 0 l 87 0 l 87 87 l 0 87 l 0 434 l 87 434 l 87 521 l 174 521 l 174 608 l 347 608 l 347 521 l 434 521 l 434 434 l 521 434 l 521 347 l 347 347 l 347 434 l 174 434 l 174 87 l 347 87 l 347 174 l 521 174 l 521 87 l 434 87 l 434 0 l 347 0 l 347 -87 l 174 -87 z "},"£":{"ha":608,"x_min":0,"x_max":521,"o":"m 0 0 l 0 174 l 87 174 l 87 347 l 0 347 l 0 434 l 87 434 l 87 608 l 174 608 l 174 694 l 434 694 l 434 608 l 521 608 l 521 521 l 347 521 l 347 608 l 260 608 l 260 434 l 434 434 l 434 347 l 260 347 l 260 174 l 174 174 l 174 87 l 521 87 l 521 0 l 0 0 z "},"¤":{"ha":608,"x_min":0,"x_max":521,"o":"m 0 0 l 0 87 l 87 87 l 87 0 l 0 0 m 434 0 l 434 87 l 521 87 l 521 0 l 434 0 m 347 174 l 347 347 l 174 347 l 174 174 l 347 174 m 87 87 l 87 434 l 434 434 l 434 87 l 87 87 m 0 434 l 0 521 l 87 521 l 87 434 l 0 434 m 434 434 l 434 521 l 521 521 l 521 434 l 434 434 z "},"¥":{"ha":608,"x_min":0,"x_max":521,"o":"m 174 0 l 174 87 l 0 87 l 0 174 l 174 174 l 174 260 l 0 260 l 0 347 l 87 347 l 87 434 l 0 434 l 0 694 l 174 694 l 174 434 l 347 434 l 347 694 l 521 694 l 521 434 l 434 434 l 434 347 l 521 347 l 521 260 l 347 260 l 347 174 l 521 174 l 521 87 l 347 87 l 347 0 l 174 0 z "},"¦":{"ha":260,"x_min":0,"x_max":174,"o":"m 0 0 l 0 260 l 174 260 l 174 0 l 0 0 m 0 434 l 0 694 l 174 694 l 174 434 l 0 434 z "},"§":{"ha":608,"x_min":0,"x_max":521,"o":"m 347 87 l 347 434 l 174 434 l 174 87 l 347 87 m 87 -174 l 87 -87 l 347 -87 l 347 0 l 87 0 l 87 87 l 0 87 l 0 434 l 87 434 l 87 521 l 0 521 l 0 608 l 87 608 l 87 694 l 434 694 l 434 608 l 174 608 l 174 521 l 434 521 l 434 434 l 521 434 l 521 87 l 434 87 l 434 0 l 521 0 l 521 -87 l 434 -87 l 434 -174 l 87 -174 z "},"¨":{"ha":434,"x_min":0,"x_max":347,"o":"m 0 608 l 0 694 l 87 694 l 87 608 l 0 608 m 260 608 l 260 694 l 347 694 l 347 608 l 260 608 z "},"©":{"ha":955,"x_min":0,"x_max":868,"o":"m 174 -174 l 174 -87 l 694 -87 l 694 -174 l 174 -174 m 87 -87 l 87 0 l 174 0 l 174 -87 l 87 -87 m 694 -87 l 694 0 l 781 0 l 781 -87 l 694 -87 m 0 0 l 0 521 l 87 521 l 87 0 l 0 0 m 260 0 l 260 87 l 174 87 l 174 434 l 260 434 l 260 521 l 608 521 l 608 434 l 694 434 l 694 347 l 521 347 l 521 434 l 347 434 l 347 87 l 521 87 l 521 174 l 694 174 l 694 87 l 608 87 l 608 0 l 260 0 m 781 0 l 781 521 l 868 521 l 868 0 l 781 0 m 87 521 l 87 608 l 174 608 l 174 521 l 87 521 m 694 521 l 694 608 l 781 608 l 781 521 l 694 521 m 174 608 l 174 694 l 694 694 l 694 608 l 174 608 z "},"ª":{"ha":608,"x_min":0,"x_max":521,"o":"m 0 0 l 0 87 l 521 87 l 521 0 l 0 0 m 87 174 l 87 260 l 0 260 l 0 434 l 87 434 l 87 521 l 347 521 l 347 608 l 87 608 l 87 694 l 434 694 l 434 608 l 521 608 l 521 174 l 434 174 l 434 260 l 347 260 l 347 434 l 174 434 l 174 260 l 347 260 l 347 174 l 87 174 z "},"«":{"ha":781,"x_min":0,"x_max":694,"o":"m 174 87 l 174 174 l 87 174 l 87 260 l 0 260 l 0 347 l 87 347 l 87 434 l 174 434 l 174 521 l 347 521 l 347 434 l 260 434 l 260 347 l 174 347 l 174 260 l 260 260 l 260 174 l 347 174 l 347 87 l 174 87 m 521 87 l 521 174 l 434 174 l 434 260 l 347 260 l 347 347 l 434 347 l 434 434 l 521 434 l 521 521 l 694 521 l 694 434 l 608 434 l 608 347 l 521 347 l 521 260 l 608 260 l 608 174 l 694 174 l 694 87 l 521 87 z "},"¬":{"ha":608,"x_min":0,"x_max":521,"o":"m 347 87 l 347 347 l 0 347 l 0 434 l 521 434 l 521 87 l 347 87 z "},"­":{"ha":347,"x_min":0,"x_max":260,"o":"m 0 260 l 0 347 l 260 347 l 260 260 l 0 260 z "},"®":{"ha":694,"x_min":0,"x_max":608,"o":"m 260 434 l 260 521 l 347 521 l 347 434 l 260 434 m 434 260 l 434 347 l 347 347 l 347 434 l 434 434 l 434 521 l 347 521 l 347 608 l 174 608 l 174 260 l 260 260 l 260 347 l 347 347 l 347 260 l 434 260 m 87 174 l 87 260 l 0 260 l 0 608 l 87 608 l 87 694 l 521 694 l 521 608 l 608 608 l 608 260 l 521 260 l 521 174 l 87 174 z "},"¯":{"ha":434,"x_min":0,"x_max":347,"o":"m 0 608 l 0 694 l 347 694 l 347 608 l 0 608 z "},"°":{"ha":434,"x_min":0,"x_max":347,"o":"m 87 347 l 87 434 l 260 434 l 260 347 l 87 347 m 0 434 l 0 608 l 87 608 l 87 434 l 0 434 m 260 434 l 260 608 l 347 608 l 347 434 l 260 434 m 87 608 l 87 694 l 260 694 l 260 608 l 87 608 z "},"±":{"ha":608,"x_min":0,"x_max":521,"o":"m 0 0 l 0 87 l 521 87 l 521 0 l 0 0 m 174 174 l 174 347 l 0 347 l 0 434 l 174 434 l 174 608 l 347 608 l 347 434 l 521 434 l 521 347 l 347 347 l 347 174 l 174 174 z "},"²":{"ha":521,"x_min":0,"x_max":434,"o":"m 0 260 l 0 434 l 87 434 l 87 521 l 260 521 l 260 608 l 0 608 l 0 694 l 347 694 l 347 608 l 434 608 l 434 521 l 347 521 l 347 434 l 174 434 l 174 347 l 434 347 l 434 260 l 0 260 z "},"³":{"ha":521,"x_min":0,"x_max":434,"o":"m 0 260 l 0 347 l 260 347 l 260 434 l 87 434 l 87 521 l 260 521 l 260 608 l 0 608 l 0 694 l 347 694 l 347 608 l 434 608 l 434 521 l 347 521 l 347 434 l 434 434 l 434 347 l 347 347 l 347 260 l 0 260 z "},"´":{"ha":347,"x_min":0,"x_max":260,"o":"m 0 521 l 0 608 l 87 608 l 87 694 l 260 694 l 260 608 l 174 608 l 174 521 l 0 521 z "},"µ":{"ha":608,"x_min":0,"x_max":521,"o":"m 0 -174 l 0 521 l 174 521 l 174 87 l 347 87 l 347 0 l 174 0 l 174 -174 l 0 -174 m 434 0 l 434 87 l 347 87 l 347 521 l 521 521 l 521 0 l 434 0 z "},"¶":{"ha":608,"x_min":0,"x_max":521,"o":"m 260 -174 l 260 174 l 87 174 l 87 260 l 0 260 l 0 608 l 87 608 l 87 694 l 347 694 l 347 -174 l 260 -174 m 434 -174 l 434 694 l 521 694 l 521 -174 l 434 -174 z "},"·":{"ha":260,"x_min":0,"x_max":174,"o":"m 0 260 l 0 434 l 174 434 l 174 260 l 0 260 z "},"¸":{"ha":260,"x_min":-87,"x_max":174,"o":"m -87 -174 l -87 -87 l 87 -87 l 87 -174 l -87 -174 m 87 -87 l 87 0 l 174 0 l 174 -87 l 87 -87 z "},"¹":{"ha":347,"x_min":0,"x_max":260,"o":"m 87 260 l 87 608 l 0 608 l 0 694 l 260 694 l 260 260 l 87 260 z "},"º":{"ha":608,"x_min":0,"x_max":521,"o":"m 0 0 l 0 87 l 521 87 l 521 0 l 0 0 m 347 260 l 347 608 l 174 608 l 174 260 l 347 260 m 87 174 l 87 260 l 0 260 l 0 608 l 87 608 l 87 694 l 434 694 l 434 608 l 521 608 l 521 260 l 434 260 l 434 174 l 87 174 z "},"»":{"ha":781,"x_min":0,"x_max":694,"o":"m 0 87 l 0 174 l 87 174 l 87 260 l 174 260 l 174 347 l 87 347 l 87 434 l 0 434 l 0 521 l 174 521 l 174 434 l 260 434 l 260 347 l 347 347 l 347 260 l 260 260 l 260 174 l 174 174 l 174 87 l 0 87 m 347 87 l 347 174 l 434 174 l 434 260 l 521 260 l 521 347 l 434 347 l 434 434 l 347 434 l 347 521 l 521 521 l 521 434 l 608 434 l 608 347 l 694 347 l 694 260 l 608 260 l 608 174 l 521 174 l 521 87 l 347 87 z "},"¼":{"ha":955,"x_min":0,"x_max":868,"o":"m 174 0 l 174 87 l 260 87 l 260 0 l 174 0 m 260 87 l 260 174 l 347 174 l 347 87 l 260 87 m 608 87 l 608 174 l 694 174 l 694 87 l 608 87 m 347 174 l 347 260 l 434 260 l 434 174 l 347 174 m 781 -174 l 781 -87 l 521 -87 l 521 87 l 608 87 l 608 0 l 781 0 l 781 174 l 694 174 l 694 260 l 868 260 l 868 -174 l 781 -174 m 434 260 l 434 347 l 521 347 l 521 260 l 434 260 m 521 347 l 521 434 l 608 434 l 608 347 l 521 347 m 608 434 l 608 521 l 694 521 l 694 434 l 608 434 m 694 521 l 694 608 l 781 608 l 781 521 l 694 521 m 0 260 l 0 347 l 87 347 l 87 608 l 0 608 l 0 694 l 174 694 l 174 347 l 260 347 l 260 260 l 0 260 z "},"½":{"ha":955,"x_min":0,"x_max":868,"o":"m 521 -174 l 521 0 l 608 0 l 608 -87 l 868 -87 l 868 -174 l 521 -174 m 174 0 l 174 87 l 260 87 l 260 0 l 174 0 m 608 0 l 608 87 l 781 87 l 781 0 l 608 0 m 260 87 l 260 174 l 347 174 l 347 87 l 260 87 m 781 87 l 781 174 l 868 174 l 868 87 l 781 87 m 347 174 l 347 260 l 434 260 l 434 174 l 347 174 m 608 174 l 608 260 l 781 260 l 781 174 l 608 174 m 434 260 l 434 347 l 521 347 l 521 260 l 434 260 m 521 347 l 521 434 l 608 434 l 608 347 l 521 347 m 608 434 l 608 521 l 694 521 l 694 434 l 608 434 m 694 521 l 694 608 l 781 608 l 781 521 l 694 521 m 0 260 l 0 347 l 87 347 l 87 608 l 0 608 l 0 694 l 174 694 l 174 347 l 260 347 l 260 260 l 0 260 z "},"¾":{"ha":955,"x_min":0,"x_max":868,"o":"m 174 0 l 174 87 l 260 87 l 260 0 l 174 0 m 260 87 l 260 174 l 347 174 l 347 87 l 260 87 m 608 87 l 608 174 l 694 174 l 694 87 l 608 87 m 347 174 l 347 260 l 434 260 l 434 174 l 347 174 m 781 -174 l 781 -87 l 521 -87 l 521 87 l 608 87 l 608 0 l 781 0 l 781 174 l 694 174 l 694 260 l 868 260 l 868 -174 l 781 -174 m 0 260 l 0 347 l 260 347 l 260 260 l 0 260 m 434 260 l 434 347 l 521 347 l 521 260 l 434 260 m 260 347 l 260 434 l 347 434 l 347 347 l 260 347 m 521 347 l 521 434 l 608 434 l 608 347 l 521 347 m 87 434 l 87 521 l 260 521 l 260 434 l 87 434 m 608 434 l 608 521 l 694 521 l 694 434 l 608 434 m 260 521 l 260 608 l 347 608 l 347 521 l 260 521 m 694 521 l 694 608 l 781 608 l 781 521 l 694 521 m 0 608 l 0 694 l 260 694 l 260 608 l 0 608 z "},"¿":{"ha":608,"x_min":0,"x_max":521,"o":"m 87 -174 l 87 -87 l 0 -87 l 0 174 l 87 174 l 87 260 l 174 260 l 174 347 l 347 347 l 347 174 l 174 174 l 174 -87 l 347 -87 l 347 0 l 521 0 l 521 -87 l 434 -87 l 434 -174 l 87 -174 m 174 434 l 174 521 l 347 521 l 347 434 l 174 434 z "},"À":{"ha":608,"x_min":0,"x_max":521,"o":"m 174 781 l 174 868 l 87 868 l 87 955 l 260 955 l 260 868 l 347 868 l 347 781 l 174 781 m 347 260 l 347 521 l 174 521 l 174 260 l 347 260 m 0 0 l 0 521 l 87 521 l 87 608 l 174 608 l 174 694 l 347 694 l 347 608 l 434 608 l 434 521 l 521 521 l 521 0 l 347 0 l 347 174 l 174 174 l 174 0 l 0 0 z "},"Á":{"ha":608,"x_min":0,"x_max":521,"o":"m 174 781 l 174 868 l 260 868 l 260 955 l 434 955 l 434 868 l 347 868 l 347 781 l 174 781 m 347 260 l 347 521 l 174 521 l 174 260 l 347 260 m 0 0 l 0 521 l 87 521 l 87 608 l 174 608 l 174 694 l 347 694 l 347 608 l 434 608 l 434 521 l 521 521 l 521 0 l 347 0 l 347 174 l 174 174 l 174 0 l 0 0 z "},"Â":{"ha":608,"x_min":0,"x_max":521,"o":"m 87 781 l 87 868 l 174 868 l 174 955 l 347 955 l 347 868 l 434 868 l 434 781 l 347 781 l 347 868 l 174 868 l 174 781 l 87 781 m 347 260 l 347 521 l 174 521 l 174 260 l 347 260 m 0 0 l 0 521 l 87 521 l 87 608 l 174 608 l 174 694 l 347 694 l 347 608 l 434 608 l 434 521 l 521 521 l 521 0 l 347 0 l 347 174 l 174 174 l 174 0 l 0 0 z "},"Ã":{"ha":608,"x_min":0,"x_max":521,"o":"m 87 781 l 87 868 l 174 868 l 174 955 l 260 955 l 260 868 l 174 868 l 174 781 l 87 781 m 260 868 l 347 868 l 347 781 l 260 781 l 260 868 m 347 868 l 347 955 l 434 955 l 434 868 l 347 868 m 347 260 l 347 521 l 174 521 l 174 260 l 347 260 m 0 0 l 0 521 l 87 521 l 87 608 l 174 608 l 174 694 l 347 694 l 347 608 l 434 608 l 434 521 l 521 521 l 521 0 l 347 0 l 347 174 l 174 174 l 174 0 l 0 0 z "},"Ä":{"ha":608,"x_min":0,"x_max":521,"o":"m 87 781 l 87 868 l 174 868 l 174 781 l 87 781 m 347 781 l 347 868 l 434 868 l 434 781 l 347 781 m 347 260 l 347 521 l 174 521 l 174 260 l 347 260 m 0 0 l 0 521 l 87 521 l 87 608 l 174 608 l 174 694 l 347 694 l 347 608 l 434 608 l 434 521 l 521 521 l 521 0 l 347 0 l 347 174 l 174 174 l 174 0 l 0 0 z "},"Å":{"ha":608,"x_min":0,"x_max":521,"o":"m 347 260 l 347 521 l 174 521 l 174 260 l 347 260 m 0 0 l 0 521 l 87 521 l 87 608 l 174 608 l 174 694 l 347 694 l 347 608 l 434 608 l 434 521 l 521 521 l 521 0 l 347 0 l 347 174 l 174 174 l 174 0 l 0 0 m 87 694 l 87 781 l 174 781 l 174 694 l 87 694 m 347 694 l 347 781 l 434 781 l 434 694 l 347 694 m 174 781 l 174 868 l 347 868 l 347 781 l 174 781 z "},"Æ":{"ha":868,"x_min":0,"x_max":781,"o":"m 347 347 l 347 608 l 260 608 l 260 521 l 174 521 l 174 347 l 347 347 m 0 0 l 0 521 l 87 521 l 87 608 l 174 608 l 174 694 l 781 694 l 781 608 l 521 608 l 521 347 l 694 347 l 694 260 l 521 260 l 521 87 l 781 87 l 781 0 l 347 0 l 347 260 l 174 260 l 174 0 l 0 0 z "},"Ç":{"ha":608,"x_min":0,"x_max":521,"o":"m 87 -174 l 87 -87 l 260 -87 l 260 -174 l 87 -174 m 260 -87 l 260 0 l 347 0 l 347 -87 l 260 -87 m 87 0 l 87 87 l 0 87 l 0 608 l 87 608 l 87 694 l 434 694 l 434 608 l 521 608 l 521 434 l 347 434 l 347 608 l 174 608 l 174 87 l 347 87 l 347 260 l 521 260 l 521 87 l 434 87 l 434 0 l 87 0 z "},"È":{"ha":521,"x_min":0,"x_max":434,"o":"m 174 781 l 174 868 l 87 868 l 87 955 l 260 955 l 260 868 l 347 868 l 347 781 l 174 781 m 0 0 l 0 694 l 434 694 l 434 608 l 174 608 l 174 434 l 347 434 l 347 347 l 174 347 l 174 87 l 434 87 l 434 0 l 0 0 z "},"É":{"ha":521,"x_min":0,"x_max":434,"o":"m 87 781 l 87 868 l 174 868 l 174 955 l 347 955 l 347 868 l 260 868 l 260 781 l 87 781 m 0 0 l 0 694 l 434 694 l 434 608 l 174 608 l 174 434 l 347 434 l 347 347 l 174 347 l 174 87 l 434 87 l 434 0 l 0 0 z "},"Ê":{"ha":521,"x_min":0,"x_max":434,"o":"m 347 781 l 260 781 l 260 868 l 174 868 l 174 781 l 87 781 l 87 868 l 174 868 l 174 955 l 260 955 l 260 868 l 347 868 l 347 781 m 0 0 l 0 694 l 434 694 l 434 608 l 174 608 l 174 434 l 347 434 l 347 347 l 174 347 l 174 87 l 434 87 l 434 0 l 0 0 z "},"Ë":{"ha":521,"x_min":0,"x_max":434,"o":"m 87 781 l 87 868 l 174 868 l 174 781 l 87 781 m 260 781 l 260 868 l 347 868 l 347 781 l 260 781 m 0 0 l 0 694 l 434 694 l 434 608 l 174 608 l 174 434 l 347 434 l 347 347 l 174 347 l 174 87 l 434 87 l 434 0 l 0 0 z "},"Ì":{"ha":434,"x_min":0,"x_max":347,"o":"m 87 781 l 87 868 l 0 868 l 0 955 l 174 955 l 174 868 l 260 868 l 260 781 l 87 781 m 0 0 l 0 87 l 87 87 l 87 608 l 0 608 l 0 694 l 347 694 l 347 608 l 260 608 l 260 87 l 347 87 l 347 0 l 0 0 z "},"Í":{"ha":434,"x_min":0,"x_max":347,"o":"m 87 781 l 87 868 l 174 868 l 174 955 l 347 955 l 347 868 l 260 868 l 260 781 l 87 781 m 0 0 l 0 87 l 87 87 l 87 608 l 0 608 l 0 694 l 347 694 l 347 608 l 260 608 l 260 87 l 347 87 l 347 0 l 0 0 z "},"Î":{"ha":434,"x_min":0,"x_max":347,"o":"m 0 781 l 0 868 l 87 868 l 87 955 l 260 955 l 260 868 l 347 868 l 347 781 l 260 781 l 260 868 l 87 868 l 87 781 l 0 781 m 0 0 l 0 87 l 87 87 l 87 608 l 0 608 l 0 694 l 347 694 l 347 608 l 260 608 l 260 87 l 347 87 l 347 0 l 0 0 z "},"Ï":{"ha":434,"x_min":0,"x_max":347,"o":"m 0 781 l 0 868 l 87 868 l 87 781 l 0 781 m 260 781 l 260 868 l 347 868 l 347 781 l 260 781 m 0 0 l 0 87 l 87 87 l 87 608 l 0 608 l 0 694 l 347 694 l 347 608 l 260 608 l 260 87 l 347 87 l 347 0 l 0 0 z "},"Ð":{"ha":694,"x_min":0,"x_max":608,"o":"m 434 87 l 434 608 l 260 608 l 260 434 l 347 434 l 347 347 l 260 347 l 260 87 l 434 87 m 87 0 l 87 347 l 0 347 l 0 434 l 87 434 l 87 694 l 521 694 l 521 608 l 608 608 l 608 87 l 521 87 l 521 0 l 87 0 z "},"Ñ":{"ha":608,"x_min":0,"x_max":521,"o":"m 87 781 l 87 868 l 174 868 l 174 955 l 260 955 l 260 868 l 174 868 l 174 781 l 87 781 m 260 868 l 347 868 l 347 781 l 260 781 l 260 868 m 347 868 l 347 955 l 434 955 l 434 868 l 347 868 m 0 0 l 0 694 l 174 694 l 174 521 l 260 521 l 260 347 l 174 347 l 174 0 l 0 0 m 347 0 l 347 174 l 260 174 l 260 347 l 347 347 l 347 694 l 521 694 l 521 0 l 347 0 z "},"Ò":{"ha":608,"x_min":0,"x_max":521,"o":"m 174 781 l 174 868 l 87 868 l 87 955 l 260 955 l 260 868 l 347 868 l 347 781 l 174 781 m 347 87 l 347 608 l 174 608 l 174 87 l 347 87 m 87 0 l 87 87 l 0 87 l 0 608 l 87 608 l 87 694 l 434 694 l 434 608 l 521 608 l 521 87 l 434 87 l 434 0 l 87 0 z "},"Ó":{"ha":608,"x_min":0,"x_max":521,"o":"m 174 781 l 174 868 l 260 868 l 260 955 l 434 955 l 434 868 l 347 868 l 347 781 l 174 781 m 347 87 l 347 608 l 174 608 l 174 87 l 347 87 m 87 0 l 87 87 l 0 87 l 0 608 l 87 608 l 87 694 l 434 694 l 434 608 l 521 608 l 521 87 l 434 87 l 434 0 l 87 0 z "},"Ô":{"ha":608,"x_min":0,"x_max":521,"o":"m 87 781 l 87 868 l 174 868 l 174 955 l 347 955 l 347 868 l 434 868 l 434 781 l 347 781 l 347 868 l 174 868 l 174 781 l 87 781 m 347 87 l 347 608 l 174 608 l 174 87 l 347 87 m 87 0 l 87 87 l 0 87 l 0 608 l 87 608 l 87 694 l 434 694 l 434 608 l 521 608 l 521 87 l 434 87 l 434 0 l 87 0 z "},"Õ":{"ha":608,"x_min":0,"x_max":521,"o":"m 87 781 l 87 868 l 174 868 l 174 955 l 260 955 l 260 868 l 174 868 l 174 781 l 87 781 m 260 868 l 347 868 l 347 781 l 260 781 l 260 868 m 347 868 l 347 955 l 434 955 l 434 868 l 347 868 m 347 87 l 347 608 l 174 608 l 174 87 l 347 87 m 87 0 l 87 87 l 0 87 l 0 608 l 87 608 l 87 694 l 434 694 l 434 608 l 521 608 l 521 87 l 434 87 l 434 0 l 87 0 z "},"Ö":{"ha":608,"x_min":0,"x_max":521,"o":"m 87 781 l 87 868 l 174 868 l 174 781 l 87 781 m 347 781 l 347 868 l 434 868 l 434 781 l 347 781 m 347 87 l 347 608 l 174 608 l 174 87 l 347 87 m 87 0 l 87 87 l 0 87 l 0 608 l 87 608 l 87 694 l 434 694 l 434 608 l 521 608 l 521 87 l 434 87 l 434 0 l 87 0 z "},"×":{"ha":521,"x_min":0,"x_max":434,"o":"m 0 87 l 0 174 l 87 174 l 87 87 l 0 87 m 347 87 l 347 174 l 434 174 l 434 87 l 347 87 m 87 174 l 87 260 l 174 260 l 174 174 l 87 174 m 260 174 l 260 260 l 347 260 l 347 174 l 260 174 m 174 260 l 174 347 l 260 347 l 260 260 l 174 260 m 87 347 l 87 434 l 174 434 l 174 347 l 87 347 m 260 347 l 260 434 l 347 434 l 347 347 l 260 347 m 0 434 l 0 521 l 87 521 l 87 434 l 0 434 m 347 434 l 347 521 l 434 521 l 434 434 l 347 434 z "},"Ø":{"ha":608,"x_min":0,"x_max":521,"o":"m 0 -87 l 0 0 l 87 0 l 87 -87 l 0 -87 m 347 87 l 347 347 l 260 347 l 260 521 l 347 521 l 347 608 l 174 608 l 174 347 l 260 347 l 260 174 l 174 174 l 174 87 l 347 87 m 87 0 l 87 87 l 0 87 l 0 608 l 87 608 l 87 694 l 434 694 l 434 608 l 521 608 l 521 87 l 434 87 l 434 0 l 87 0 m 434 694 l 434 781 l 521 781 l 521 694 l 434 694 z "},"Ù":{"ha":608,"x_min":0,"x_max":521,"o":"m 174 781 l 174 868 l 87 868 l 87 955 l 260 955 l 260 868 l 347 868 l 347 781 l 174 781 m 87 0 l 87 87 l 0 87 l 0 694 l 174 694 l 174 87 l 347 87 l 347 694 l 521 694 l 521 87 l 434 87 l 434 0 l 87 0 z "},"Ú":{"ha":608,"x_min":0,"x_max":521,"o":"m 174 781 l 174 868 l 260 868 l 260 955 l 434 955 l 434 868 l 347 868 l 347 781 l 174 781 m 87 0 l 87 87 l 0 87 l 0 694 l 174 694 l 174 87 l 347 87 l 347 694 l 521 694 l 521 87 l 434 87 l 434 0 l 87 0 z "},"Û":{"ha":608,"x_min":0,"x_max":521,"o":"m 87 781 l 87 868 l 174 868 l 174 955 l 347 955 l 347 868 l 434 868 l 434 781 l 347 781 l 347 868 l 174 868 l 174 781 l 87 781 m 87 0 l 87 87 l 0 87 l 0 694 l 174 694 l 174 87 l 347 87 l 347 694 l 521 694 l 521 87 l 434 87 l 434 0 l 87 0 z "},"Ü":{"ha":608,"x_min":0,"x_max":521,"o":"m 87 781 l 87 868 l 174 868 l 174 781 l 87 781 m 347 781 l 347 868 l 434 868 l 434 781 l 347 781 m 87 0 l 87 87 l 0 87 l 0 694 l 174 694 l 174 87 l 347 87 l 347 694 l 521 694 l 521 87 l 434 87 l 434 0 l 87 0 z "},"Ý":{"ha":608,"x_min":0,"x_max":521,"o":"m 174 781 l 174 868 l 260 868 l 260 955 l 434 955 l 434 868 l 347 868 l 347 781 l 174 781 m 174 0 l 174 260 l 87 260 l 87 347 l 0 347 l 0 694 l 174 694 l 174 347 l 347 347 l 347 694 l 521 694 l 521 347 l 434 347 l 434 260 l 347 260 l 347 0 l 174 0 z "},"Þ":{"ha":608,"x_min":0,"x_max":521,"o":"m 347 174 l 347 521 l 174 521 l 174 174 l 347 174 m 0 0 l 0 694 l 174 694 l 174 608 l 434 608 l 434 521 l 521 521 l 521 174 l 434 174 l 434 87 l 174 87 l 174 0 l 0 0 z "},"ß":{"ha":608,"x_min":0,"x_max":521,"o":"m 0 0 l 0 608 l 87 608 l 87 694 l 434 694 l 434 608 l 521 608 l 521 434 l 434 434 l 434 347 l 521 347 l 521 87 l 434 87 l 434 0 l 260 0 l 260 87 l 347 87 l 347 347 l 260 347 l 260 434 l 347 434 l 347 608 l 174 608 l 174 174 l 260 174 l 260 87 l 174 87 l 174 0 l 0 0 z "},"à":{"ha":608,"x_min":0,"x_max":521,"o":"m 174 608 l 174 694 l 87 694 l 87 781 l 260 781 l 260 694 l 347 694 l 347 608 l 174 608 m 87 0 l 87 87 l 0 87 l 0 260 l 87 260 l 87 347 l 347 347 l 347 434 l 87 434 l 87 521 l 434 521 l 434 434 l 521 434 l 521 0 l 434 0 l 434 87 l 347 87 l 347 260 l 174 260 l 174 87 l 347 87 l 347 0 l 87 0 z "},"á":{"ha":608,"x_min":0,"x_max":521,"o":"m 174 608 l 174 694 l 260 694 l 260 781 l 434 781 l 434 694 l 347 694 l 347 608 l 174 608 m 87 0 l 87 87 l 0 87 l 0 260 l 87 260 l 87 347 l 347 347 l 347 434 l 87 434 l 87 521 l 434 521 l 434 434 l 521 434 l 521 0 l 434 0 l 434 87 l 347 87 l 347 260 l 174 260 l 174 87 l 347 87 l 347 0 l 87 0 z "},"â":{"ha":608,"x_min":0,"x_max":521,"o":"m 87 608 l 87 694 l 174 694 l 174 781 l 347 781 l 347 694 l 434 694 l 434 608 l 347 608 l 347 694 l 174 694 l 174 608 l 87 608 m 87 0 l 87 87 l 0 87 l 0 260 l 87 260 l 87 347 l 347 347 l 347 434 l 87 434 l 87 521 l 434 521 l 434 434 l 521 434 l 521 0 l 434 0 l 434 87 l 347 87 l 347 260 l 174 260 l 174 87 l 347 87 l 347 0 l 87 0 z "},"ã":{"ha":608,"x_min":0,"x_max":521,"o":"m 87 608 l 87 694 l 174 694 l 174 781 l 260 781 l 260 694 l 174 694 l 174 608 l 87 608 m 260 694 l 347 694 l 347 608 l 260 608 l 260 694 m 347 694 l 347 781 l 434 781 l 434 694 l 347 694 m 87 0 l 87 87 l 0 87 l 0 260 l 87 260 l 87 347 l 347 347 l 347 434 l 87 434 l 87 521 l 434 521 l 434 434 l 521 434 l 521 0 l 434 0 l 434 87 l 347 87 l 347 260 l 174 260 l 174 87 l 347 87 l 347 0 l 87 0 z "},"ä":{"ha":608,"x_min":0,"x_max":521,"o":"m 87 608 l 87 694 l 174 694 l 174 608 l 87 608 m 347 608 l 347 694 l 434 694 l 434 608 l 347 608 m 87 0 l 87 87 l 0 87 l 0 260 l 87 260 l 87 347 l 347 347 l 347 434 l 87 434 l 87 521 l 434 521 l 434 434 l 521 434 l 521 0 l 434 0 l 434 87 l 347 87 l 347 260 l 174 260 l 174 87 l 347 87 l 347 0 l 87 0 z "},"å":{"ha":608,"x_min":0,"x_max":521,"o":"m 87 0 l 87 87 l 0 87 l 0 260 l 87 260 l 87 347 l 347 347 l 347 434 l 87 434 l 87 521 l 174 521 l 174 608 l 347 608 l 347 521 l 434 521 l 434 434 l 521 434 l 521 0 l 434 0 l 434 87 l 347 87 l 347 260 l 174 260 l 174 87 l 347 87 l 347 0 l 87 0 m 87 608 l 87 694 l 174 694 l 174 608 l 87 608 m 347 608 l 347 694 l 434 694 l 434 608 l 347 608 m 174 694 l 174 781 l 347 781 l 347 694 l 174 694 z "},"æ":{"ha":781,"x_min":0,"x_max":694,"o":"m 87 0 l 87 87 l 0 87 l 0 260 l 87 260 l 87 347 l 260 347 l 260 434 l 87 434 l 87 521 l 347 521 l 347 434 l 434 434 l 434 347 l 521 347 l 521 434 l 434 434 l 434 521 l 608 521 l 608 434 l 694 434 l 694 260 l 434 260 l 434 87 l 521 87 l 521 174 l 694 174 l 694 87 l 608 87 l 608 0 l 347 0 l 347 87 l 260 87 l 260 260 l 174 260 l 174 87 l 260 87 l 260 0 l 87 0 z "},"ç":{"ha":608,"x_min":0,"x_max":521,"o":"m 87 -174 l 87 -87 l 260 -87 l 260 -174 l 87 -174 m 260 -87 l 260 0 l 347 0 l 347 -87 l 260 -87 m 87 0 l 87 87 l 0 87 l 0 434 l 87 434 l 87 521 l 434 521 l 434 434 l 521 434 l 521 347 l 347 347 l 347 434 l 174 434 l 174 87 l 347 87 l 347 174 l 521 174 l 521 87 l 434 87 l 434 0 l 87 0 z "},"è":{"ha":608,"x_min":0,"x_max":521,"o":"m 174 608 l 174 694 l 87 694 l 87 781 l 260 781 l 260 694 l 347 694 l 347 608 l 174 608 m 347 347 l 347 434 l 174 434 l 174 347 l 347 347 m 87 0 l 87 87 l 0 87 l 0 434 l 87 434 l 87 521 l 434 521 l 434 434 l 521 434 l 521 260 l 174 260 l 174 87 l 347 87 l 347 174 l 521 174 l 521 87 l 434 87 l 434 0 l 87 0 z "},"é":{"ha":608,"x_min":0,"x_max":521,"o":"m 174 608 l 174 694 l 260 694 l 260 781 l 434 781 l 434 694 l 347 694 l 347 608 l 174 608 m 347 347 l 347 434 l 174 434 l 174 347 l 347 347 m 87 0 l 87 87 l 0 87 l 0 434 l 87 434 l 87 521 l 434 521 l 434 434 l 521 434 l 521 260 l 174 260 l 174 87 l 347 87 l 347 174 l 521 174 l 521 87 l 434 87 l 434 0 l 87 0 z "},"ê":{"ha":608,"x_min":0,"x_max":521,"o":"m 87 608 l 87 694 l 174 694 l 174 781 l 347 781 l 347 694 l 434 694 l 434 608 l 347 608 l 347 694 l 174 694 l 174 608 l 87 608 m 347 347 l 347 434 l 174 434 l 174 347 l 347 347 m 87 0 l 87 87 l 0 87 l 0 434 l 87 434 l 87 521 l 434 521 l 434 434 l 521 434 l 521 260 l 174 260 l 174 87 l 347 87 l 347 174 l 521 174 l 521 87 l 434 87 l 434 0 l 87 0 z "},"ë":{"ha":608,"x_min":0,"x_max":521,"o":"m 87 608 l 87 694 l 174 694 l 174 608 l 87 608 m 347 608 l 347 694 l 434 694 l 434 608 l 347 608 m 347 347 l 347 434 l 174 434 l 174 347 l 347 347 m 87 0 l 87 87 l 0 87 l 0 434 l 87 434 l 87 521 l 434 521 l 434 434 l 521 434 l 521 260 l 174 260 l 174 87 l 347 87 l 347 174 l 521 174 l 521 87 l 434 87 l 434 0 l 87 0 z "},"ì":{"ha":347,"x_min":0,"x_max":260,"o":"m 87 608 l 87 694 l 0 694 l 0 781 l 174 781 l 174 694 l 260 694 l 260 608 l 87 608 m 87 0 l 87 521 l 260 521 l 260 0 l 87 0 z "},"í":{"ha":347,"x_min":0,"x_max":260,"o":"m 0 608 l 0 694 l 87 694 l 87 781 l 260 781 l 260 694 l 174 694 l 174 608 l 0 608 m 0 0 l 0 521 l 174 521 l 174 0 l 0 0 z "},"î":{"ha":434,"x_min":0,"x_max":347,"o":"m 0 608 l 0 694 l 87 694 l 87 781 l 260 781 l 260 694 l 347 694 l 347 608 l 260 608 l 260 694 l 87 694 l 87 608 l 0 608 m 87 0 l 87 521 l 260 521 l 260 0 l 87 0 z "},"ï":{"ha":434,"x_min":0,"x_max":347,"o":"m 0 608 l 0 694 l 87 694 l 87 608 l 0 608 m 260 608 l 260 694 l 347 694 l 347 608 l 260 608 m 87 0 l 87 521 l 260 521 l 260 0 l 87 0 z "},"ð":{"ha":608,"x_min":0,"x_max":521,"o":"m 347 87 l 347 434 l 174 434 l 174 87 l 347 87 m 87 0 l 87 87 l 0 87 l 0 434 l 87 434 l 87 521 l 260 521 l 260 608 l 87 608 l 87 694 l 347 694 l 347 608 l 521 608 l 521 521 l 434 521 l 434 434 l 521 434 l 521 87 l 434 87 l 434 0 l 87 0 z "},"ñ":{"ha":608,"x_min":0,"x_max":521,"o":"m 87 608 l 87 694 l 174 694 l 174 781 l 260 781 l 260 694 l 174 694 l 174 608 l 87 608 m 260 694 l 347 694 l 347 608 l 260 608 l 260 694 m 347 694 l 347 781 l 434 781 l 434 694 l 347 694 m 0 0 l 0 521 l 174 521 l 174 434 l 260 434 l 260 347 l 174 347 l 174 0 l 0 0 m 347 0 l 347 434 l 260 434 l 260 521 l 434 521 l 434 434 l 521 434 l 521 0 l 347 0 z "},"ò":{"ha":608,"x_min":0,"x_max":521,"o":"m 174 608 l 174 694 l 87 694 l 87 781 l 260 781 l 260 694 l 347 694 l 347 608 l 174 608 m 347 87 l 347 434 l 174 434 l 174 87 l 347 87 m 87 0 l 87 87 l 0 87 l 0 434 l 87 434 l 87 521 l 434 521 l 434 434 l 521 434 l 521 87 l 434 87 l 434 0 l 87 0 z "},"ó":{"ha":608,"x_min":0,"x_max":521,"o":"m 174 608 l 174 694 l 260 694 l 260 781 l 434 781 l 434 694 l 347 694 l 347 608 l 174 608 m 347 87 l 347 434 l 174 434 l 174 87 l 347 87 m 87 0 l 87 87 l 0 87 l 0 434 l 87 434 l 87 521 l 434 521 l 434 434 l 521 434 l 521 87 l 434 87 l 434 0 l 87 0 z "},"ô":{"ha":608,"x_min":0,"x_max":521,"o":"m 87 608 l 87 694 l 174 694 l 174 781 l 347 781 l 347 694 l 434 694 l 434 608 l 347 608 l 347 694 l 174 694 l 174 608 l 87 608 m 347 87 l 347 434 l 174 434 l 174 87 l 347 87 m 87 0 l 87 87 l 0 87 l 0 434 l 87 434 l 87 521 l 434 521 l 434 434 l 521 434 l 521 87 l 434 87 l 434 0 l 87 0 z "},"õ":{"ha":608,"x_min":0,"x_max":521,"o":"m 87 608 l 87 694 l 174 694 l 174 781 l 260 781 l 260 694 l 174 694 l 174 608 l 87 608 m 260 694 l 347 694 l 347 608 l 260 608 l 260 694 m 347 694 l 347 781 l 434 781 l 434 694 l 347 694 m 347 87 l 347 434 l 174 434 l 174 87 l 347 87 m 87 0 l 87 87 l 0 87 l 0 434 l 87 434 l 87 521 l 434 521 l 434 434 l 521 434 l 521 87 l 434 87 l 434 0 l 87 0 z "},"ö":{"ha":608,"x_min":0,"x_max":521,"o":"m 87 608 l 87 694 l 174 694 l 174 608 l 87 608 m 347 608 l 347 694 l 434 694 l 434 608 l 347 608 m 347 87 l 347 434 l 174 434 l 174 87 l 347 87 m 87 0 l 87 87 l 0 87 l 0 434 l 87 434 l 87 521 l 434 521 l 434 434 l 521 434 l 521 87 l 434 87 l 434 0 l 87 0 z "},"÷":{"ha":608,"x_min":0,"x_max":521,"o":"m 174 87 l 174 174 l 347 174 l 347 87 l 174 87 m 0 260 l 0 347 l 521 347 l 521 260 l 0 260 m 174 434 l 174 521 l 347 521 l 347 434 l 174 434 z "},"ø":{"ha":608,"x_min":0,"x_max":521,"o":"m 0 -87 l 0 0 l 87 0 l 87 -87 l 0 -87 m 347 87 l 347 260 l 260 260 l 260 347 l 347 347 l 347 434 l 174 434 l 174 260 l 260 260 l 260 174 l 174 174 l 174 87 l 347 87 m 87 0 l 87 87 l 0 87 l 0 434 l 87 434 l 87 521 l 434 521 l 434 434 l 521 434 l 521 87 l 434 87 l 434 0 l 87 0 m 434 521 l 434 608 l 521 608 l 521 521 l 434 521 z "},"ù":{"ha":608,"x_min":0,"x_max":521,"o":"m 174 608 l 174 694 l 87 694 l 87 781 l 260 781 l 260 694 l 347 694 l 347 608 l 174 608 m 87 0 l 87 87 l 0 87 l 0 521 l 174 521 l 174 87 l 347 87 l 347 0 l 87 0 m 434 0 l 434 87 l 347 87 l 347 521 l 521 521 l 521 0 l 434 0 z "},"ú":{"ha":608,"x_min":0,"x_max":521,"o":"m 174 608 l 174 694 l 260 694 l 260 781 l 434 781 l 434 694 l 347 694 l 347 608 l 174 608 m 87 0 l 87 87 l 0 87 l 0 521 l 174 521 l 174 87 l 347 87 l 347 0 l 87 0 m 434 0 l 434 87 l 347 87 l 347 521 l 521 521 l 521 0 l 434 0 z "},"û":{"ha":608,"x_min":0,"x_max":521,"o":"m 87 608 l 87 694 l 174 694 l 174 781 l 347 781 l 347 694 l 434 694 l 434 608 l 347 608 l 347 694 l 174 694 l 174 608 l 87 608 m 87 0 l 87 87 l 0 87 l 0 521 l 174 521 l 174 87 l 347 87 l 347 0 l 87 0 m 434 0 l 434 87 l 347 87 l 347 521 l 521 521 l 521 0 l 434 0 z "},"ü":{"ha":608,"x_min":0,"x_max":521,"o":"m 87 608 l 87 694 l 174 694 l 174 608 l 87 608 m 347 608 l 347 694 l 434 694 l 434 608 l 347 608 m 87 0 l 87 87 l 0 87 l 0 521 l 174 521 l 174 87 l 347 87 l 347 0 l 87 0 m 434 0 l 434 87 l 347 87 l 347 521 l 521 521 l 521 0 l 434 0 z "},"ý":{"ha":608,"x_min":0,"x_max":521,"o":"m 174 608 l 174 694 l 260 694 l 260 781 l 434 781 l 434 694 l 347 694 l 347 608 l 174 608 m 0 -174 l 0 -87 l 174 -87 l 174 87 l 87 87 l 87 260 l 0 260 l 0 521 l 174 521 l 174 260 l 260 260 l 260 174 l 347 174 l 347 521 l 521 521 l 521 260 l 434 260 l 434 87 l 347 87 l 347 -87 l 260 -87 l 260 -174 l 0 -174 z "},"þ":{"ha":608,"x_min":0,"x_max":521,"o":"m 0 -174 l 0 694 l 174 694 l 174 434 l 260 434 l 260 521 l 434 521 l 434 434 l 521 434 l 521 87 l 434 87 l 434 0 l 174 0 l 174 -174 l 0 -174 m 174 87 l 347 87 l 347 434 l 260 434 l 260 347 l 174 347 l 174 87 z "},"ÿ":{"ha":608,"x_min":0,"x_max":521,"o":"m 87 608 l 87 694 l 174 694 l 174 608 l 87 608 m 347 608 l 347 694 l 434 694 l 434 608 l 347 608 m 0 -174 l 0 -87 l 174 -87 l 174 87 l 87 87 l 87 260 l 0 260 l 0 521 l 174 521 l 174 260 l 260 260 l 260 174 l 347 174 l 347 521 l 521 521 l 521 260 l 434 260 l 434 87 l 347 87 l 347 -87 l 260 -87 l 260 -174 l 0 -174 z "},"Ā":{"ha":608,"x_min":0,"x_max":521,"o":"m 87 781 l 87 868 l 434 868 l 434 781 l 87 781 m 347 260 l 347 521 l 174 521 l 174 260 l 347 260 m 0 0 l 0 521 l 87 521 l 87 608 l 174 608 l 174 694 l 347 694 l 347 608 l 434 608 l 434 521 l 521 521 l 521 0 l 347 0 l 347 174 l 174 174 l 174 0 l 0 0 z "},"ā":{"ha":608,"x_min":0,"x_max":521,"o":"m 87 608 l 87 694 l 434 694 l 434 608 l 87 608 m 87 0 l 87 87 l 0 87 l 0 260 l 87 260 l 87 347 l 347 347 l 347 434 l 87 434 l 87 521 l 434 521 l 434 434 l 521 434 l 521 0 l 434 0 l 434 87 l 347 87 l 347 260 l 174 260 l 174 87 l 347 87 l 347 0 l 87 0 z "},"Ă":{"ha":608,"x_min":0,"x_max":521,"o":"m 347 260 l 347 521 l 174 521 l 174 260 l 347 260 m 0 0 l 0 521 l 87 521 l 87 608 l 174 608 l 174 694 l 347 694 l 347 608 l 434 608 l 434 521 l 521 521 l 521 0 l 347 0 l 347 174 l 174 174 l 174 0 l 0 0 m 174 781 l 174 868 l 347 868 l 347 781 l 174 781 m 87 868 l 87 955 l 174 955 l 174 868 l 87 868 m 347 868 l 347 955 l 434 955 l 434 868 l 347 868 z "},"ă":{"ha":608,"x_min":0,"x_max":521,"o":"m 87 0 l 87 87 l 0 87 l 0 260 l 87 260 l 87 347 l 347 347 l 347 434 l 87 434 l 87 521 l 434 521 l 434 434 l 521 434 l 521 0 l 434 0 l 434 87 l 347 87 l 347 260 l 174 260 l 174 87 l 347 87 l 347 0 l 87 0 m 174 608 l 174 694 l 347 694 l 347 608 l 174 608 m 87 694 l 87 781 l 174 781 l 174 694 l 87 694 m 347 694 l 347 781 l 434 781 l 434 694 l 347 694 z "},"Ą":{"ha":608,"x_min":0,"x_max":521,"o":"m 434 0 l 434 -87 l 521 -87 l 521 -174 l 347 -174 l 347 0 l 434 0 m 347 260 l 347 521 l 174 521 l 174 260 l 347 260 m 0 0 l 0 521 l 87 521 l 87 608 l 174 608 l 174 694 l 347 694 l 347 608 l 434 608 l 434 521 l 521 521 l 521 0 l 347 0 l 347 174 l 174 174 l 174 0 l 0 0 z "},"ą":{"ha":608,"x_min":0,"x_max":521,"o":"m 434 0 l 434 -87 l 521 -87 l 521 -174 l 347 -174 l 347 0 l 434 0 m 87 0 l 87 87 l 0 87 l 0 260 l 87 260 l 87 347 l 347 347 l 347 434 l 87 434 l 87 521 l 434 521 l 434 434 l 521 434 l 521 0 l 434 0 l 434 87 l 347 87 l 347 260 l 174 260 l 174 87 l 347 87 l 347 0 l 87 0 z "},"Ć":{"ha":608,"x_min":0,"x_max":521,"o":"m 174 781 l 174 868 l 260 868 l 260 955 l 434 955 l 434 868 l 347 868 l 347 781 l 174 781 m 87 0 l 87 87 l 0 87 l 0 608 l 87 608 l 87 694 l 434 694 l 434 608 l 521 608 l 521 434 l 347 434 l 347 608 l 174 608 l 174 87 l 347 87 l 347 260 l 521 260 l 521 87 l 434 87 l 434 0 l 87 0 z "},"ć":{"ha":608,"x_min":0,"x_max":521,"o":"m 174 608 l 174 694 l 260 694 l 260 781 l 434 781 l 434 694 l 347 694 l 347 608 l 174 608 m 87 0 l 87 87 l 0 87 l 0 434 l 87 434 l 87 521 l 434 521 l 434 434 l 521 434 l 521 347 l 347 347 l 347 434 l 174 434 l 174 87 l 347 87 l 347 174 l 521 174 l 521 87 l 434 87 l 434 0 l 87 0 z "},"Ĉ":{"ha":608,"x_min":0,"x_max":521,"o":"m 87 781 l 87 868 l 174 868 l 174 955 l 347 955 l 347 868 l 434 868 l 434 781 l 347 781 l 347 868 l 174 868 l 174 781 l 87 781 m 87 0 l 87 87 l 0 87 l 0 608 l 87 608 l 87 694 l 434 694 l 434 608 l 521 608 l 521 434 l 347 434 l 347 608 l 174 608 l 174 87 l 347 87 l 347 260 l 521 260 l 521 87 l 434 87 l 434 0 l 87 0 z "},"ĉ":{"ha":608,"x_min":0,"x_max":521,"o":"m 87 608 l 87 694 l 174 694 l 174 781 l 347 781 l 347 694 l 434 694 l 434 608 l 347 608 l 347 694 l 174 694 l 174 608 l 87 608 m 87 0 l 87 87 l 0 87 l 0 434 l 87 434 l 87 521 l 434 521 l 434 434 l 521 434 l 521 347 l 347 347 l 347 434 l 174 434 l 174 87 l 347 87 l 347 174 l 521 174 l 521 87 l 434 87 l 434 0 l 87 0 z "},"Ċ":{"ha":608,"x_min":0,"x_max":521,"o":"m 174 781 l 174 868 l 347 868 l 347 781 l 174 781 m 87 0 l 87 87 l 0 87 l 0 608 l 87 608 l 87 694 l 434 694 l 434 608 l 521 608 l 521 434 l 347 434 l 347 608 l 174 608 l 174 87 l 347 87 l 347 260 l 521 260 l 521 87 l 434 87 l 434 0 l 87 0 z "},"ċ":{"ha":608,"x_min":0,"x_max":521,"o":"m 174 608 l 174 694 l 347 694 l 347 608 l 174 608 m 87 0 l 87 87 l 0 87 l 0 434 l 87 434 l 87 521 l 434 521 l 434 434 l 521 434 l 521 347 l 347 347 l 347 434 l 174 434 l 174 87 l 347 87 l 347 174 l 521 174 l 521 87 l 434 87 l 434 0 l 87 0 z "},"Č":{"ha":608,"x_min":0,"x_max":521,"o":"m 87 955 l 87 868 l 174 868 l 174 781 l 347 781 l 347 868 l 434 868 l 434 955 l 347 955 l 347 868 l 174 868 l 174 955 l 87 955 m 87 0 l 87 87 l 0 87 l 0 608 l 87 608 l 87 694 l 434 694 l 434 608 l 521 608 l 521 434 l 347 434 l 347 608 l 174 608 l 174 87 l 347 87 l 347 260 l 521 260 l 521 87 l 434 87 l 434 0 l 87 0 z "},"č":{"ha":608,"x_min":0,"x_max":521,"o":"m 87 781 l 87 694 l 174 694 l 174 608 l 347 608 l 347 694 l 434 694 l 434 781 l 347 781 l 347 694 l 174 694 l 174 781 l 87 781 m 87 0 l 87 87 l 0 87 l 0 434 l 87 434 l 87 521 l 434 521 l 434 434 l 521 434 l 521 347 l 347 347 l 347 434 l 174 434 l 174 87 l 347 87 l 347 174 l 521 174 l 521 87 l 434 87 l 434 0 l 87 0 z "},"Ď":{"ha":608,"x_min":0,"x_max":521,"o":"m 87 955 l 87 868 l 174 868 l 174 781 l 347 781 l 347 868 l 434 868 l 434 955 l 347 955 l 347 868 l 174 868 l 174 955 l 87 955 m 347 87 l 347 608 l 174 608 l 174 87 l 347 87 m 0 0 l 0 694 l 434 694 l 434 608 l 521 608 l 521 87 l 434 87 l 434 0 l 0 0 z "},"ď":{"ha":781,"x_min":0,"x_max":694,"o":"m -608 694 l -694 694 l -694 868 l -608 868 l -608 694 m 87 0 l 87 87 l 0 87 l 0 434 l 87 434 l 87 521 l 347 521 l 347 694 l 521 694 l 521 0 l 434 0 l 434 87 l 347 87 l 347 434 l 174 434 l 174 87 l 347 87 l 347 0 l 87 0 z "},"Đ":{"ha":694,"x_min":0,"x_max":608,"o":"m 434 87 l 434 608 l 260 608 l 260 434 l 347 434 l 347 347 l 260 347 l 260 87 l 434 87 m 87 0 l 87 347 l 0 347 l 0 434 l 87 434 l 87 694 l 521 694 l 521 608 l 608 608 l 608 87 l 521 87 l 521 0 l 87 0 z "},"đ":{"ha":694,"x_min":0,"x_max":608,"o":"m 87 0 l 87 87 l 0 87 l 0 434 l 87 434 l 87 521 l 347 521 l 347 608 l 260 608 l 260 694 l 608 694 l 608 608 l 521 608 l 521 0 l 434 0 l 434 87 l 347 87 l 347 434 l 174 434 l 174 87 l 347 87 l 347 0 l 87 0 z "},"Ē":{"ha":521,"x_min":0,"x_max":434,"o":"m 87 781 l 87 868 l 347 868 l 347 781 l 87 781 m 0 0 l 0 694 l 434 694 l 434 608 l 174 608 l 174 434 l 347 434 l 347 347 l 174 347 l 174 87 l 434 87 l 434 0 l 0 0 z "},"ē":{"ha":608,"x_min":0,"x_max":521,"o":"m 87 608 l 87 694 l 434 694 l 434 608 l 87 608 m 347 347 l 347 434 l 174 434 l 174 347 l 347 347 m 87 0 l 87 87 l 0 87 l 0 434 l 87 434 l 87 521 l 434 521 l 434 434 l 521 434 l 521 260 l 174 260 l 174 87 l 347 87 l 347 174 l 521 174 l 521 87 l 434 87 l 434 0 l 87 0 z "},"Ĕ":{"ha":608,"x_min":0,"x_max":521,"o":"m 0 0 l 0 694 l 521 694 l 521 608 l 174 608 l 174 434 l 434 434 l 434 347 l 174 347 l 174 87 l 521 87 l 521 0 l 0 0 m 174 781 l 174 868 l 347 868 l 347 781 l 174 781 m 87 868 l 87 955 l 174 955 l 174 868 l 87 868 m 347 868 l 347 955 l 434 955 l 434 868 l 347 868 z "},"ĕ":{"ha":608,"x_min":0,"x_max":521,"o":"m 347 347 l 347 434 l 174 434 l 174 347 l 347 347 m 87 0 l 87 87 l 0 87 l 0 434 l 87 434 l 87 521 l 434 521 l 434 434 l 521 434 l 521 260 l 174 260 l 174 87 l 347 87 l 347 174 l 521 174 l 521 87 l 434 87 l 434 0 l 87 0 m 174 608 l 174 694 l 347 694 l 347 608 l 174 608 m 87 694 l 87 781 l 174 781 l 174 694 l 87 694 m 347 694 l 347 781 l 434 781 l 434 694 l 347 694 z "},"Ė":{"ha":521,"x_min":0,"x_max":434,"o":"m 87 781 l 87 868 l 260 868 l 260 781 l 87 781 m 0 0 l 0 694 l 434 694 l 434 608 l 174 608 l 174 434 l 347 434 l 347 347 l 174 347 l 174 87 l 434 87 l 434 0 l 0 0 z "},"ė":{"ha":608,"x_min":0,"x_max":521,"o":"m 174 608 l 174 694 l 347 694 l 347 608 l 174 608 m 347 347 l 347 434 l 174 434 l 174 347 l 347 347 m 87 0 l 87 87 l 0 87 l 0 434 l 87 434 l 87 521 l 434 521 l 434 434 l 521 434 l 521 260 l 174 260 l 174 87 l 347 87 l 347 174 l 521 174 l 521 87 l 434 87 l 434 0 l 87 0 z "},"Ę":{"ha":521,"x_min":0,"x_max":434,"o":"m 347 0 l 347 -87 l 434 -87 l 434 -174 l 260 -174 l 260 0 l 347 0 m 0 0 l 0 694 l 434 694 l 434 608 l 174 608 l 174 434 l 347 434 l 347 347 l 174 347 l 174 87 l 434 87 l 434 0 l 0 0 z "},"ę":{"ha":608,"x_min":0,"x_max":521,"o":"m 434 0 l 434 -87 l 521 -87 l 521 -174 l 347 -174 l 347 0 l 434 0 m 347 347 l 347 434 l 174 434 l 174 347 l 347 347 m 87 0 l 87 87 l 0 87 l 0 434 l 87 434 l 87 521 l 434 521 l 434 434 l 521 434 l 521 260 l 174 260 l 174 87 l 347 87 l 347 174 l 521 174 l 521 87 l 434 87 l 434 0 l 87 0 z "},"Ě":{"ha":521,"x_min":0,"x_max":434,"o":"m 87 955 l 174 955 l 174 868 l 260 868 l 260 955 l 347 955 l 347 868 l 260 868 l 260 781 l 174 781 l 174 868 l 87 868 l 87 955 m 0 0 l 0 694 l 434 694 l 434 608 l 174 608 l 174 434 l 347 434 l 347 347 l 174 347 l 174 87 l 434 87 l 434 0 l 0 0 z "},"ě":{"ha":608,"x_min":0,"x_max":521,"o":"m 87 781 l 87 694 l 174 694 l 174 608 l 347 608 l 347 694 l 434 694 l 434 781 l 347 781 l 347 694 l 174 694 l 174 781 l 87 781 m 347 347 l 347 434 l 174 434 l 174 347 l 347 347 m 87 0 l 87 87 l 0 87 l 0 434 l 87 434 l 87 521 l 434 521 l 434 434 l 521 434 l 521 260 l 174 260 l 174 87 l 347 87 l 347 174 l 521 174 l 521 87 l 434 87 l 434 0 l 87 0 z "},"Ĝ":{"ha":608,"x_min":0,"x_max":521,"o":"m 87 781 l 87 868 l 174 868 l 174 955 l 347 955 l 347 868 l 434 868 l 434 781 l 347 781 l 347 868 l 174 868 l 174 781 l 87 781 m 434 0 l 434 87 l 347 87 l 347 347 l 260 347 l 260 434 l 521 434 l 521 0 l 434 0 m 87 0 l 87 87 l 0 87 l 0 608 l 87 608 l 87 694 l 434 694 l 434 608 l 521 608 l 521 521 l 347 521 l 347 608 l 174 608 l 174 87 l 347 87 l 347 0 l 87 0 z "},"ĝ":{"ha":608,"x_min":0,"x_max":521,"o":"m 87 694 l 87 781 l 174 781 l 174 868 l 347 868 l 347 781 l 434 781 l 434 694 l 347 694 l 347 781 l 174 781 l 174 694 l 87 694 m 347 260 l 347 434 l 174 434 l 174 260 l 347 260 m 87 -174 l 87 -87 l 347 -87 l 347 0 l 87 0 l 87 87 l 0 87 l 0 174 l 87 174 l 87 260 l 0 260 l 0 434 l 87 434 l 87 521 l 347 521 l 347 608 l 521 608 l 521 521 l 434 521 l 434 434 l 521 434 l 521 260 l 434 260 l 434 174 l 174 174 l 174 87 l 521 87 l 521 -87 l 434 -87 l 434 -174 l 87 -174 z "},"Ğ":{"ha":608,"x_min":0,"x_max":521,"o":"m 434 0 l 434 87 l 347 87 l 347 347 l 260 347 l 260 434 l 521 434 l 521 0 l 434 0 m 87 0 l 87 87 l 0 87 l 0 608 l 87 608 l 87 694 l 434 694 l 434 608 l 521 608 l 521 521 l 347 521 l 347 608 l 174 608 l 174 87 l 347 87 l 347 0 l 87 0 m 174 781 l 174 868 l 347 868 l 347 781 l 174 781 m 87 868 l 87 955 l 174 955 l 174 868 l 87 868 m 347 868 l 347 955 l 434 955 l 434 868 l 347 868 z "},"ğ":{"ha":608,"x_min":0,"x_max":521,"o":"m 347 260 l 347 434 l 174 434 l 174 260 l 347 260 m 87 -174 l 87 -87 l 347 -87 l 347 0 l 87 0 l 87 87 l 0 87 l 0 174 l 87 174 l 87 260 l 0 260 l 0 434 l 87 434 l 87 521 l 347 521 l 347 608 l 521 608 l 521 521 l 434 521 l 434 434 l 521 434 l 521 260 l 434 260 l 434 174 l 174 174 l 174 87 l 521 87 l 521 -87 l 434 -87 l 434 -174 l 87 -174 m 174 694 l 174 781 l 347 781 l 347 694 l 174 694 m 87 781 l 87 868 l 174 868 l 174 781 l 87 781 m 347 781 l 347 868 l 434 868 l 434 781 l 347 781 z "},"Ġ":{"ha":608,"x_min":0,"x_max":521,"o":"m 174 781 l 174 868 l 347 868 l 347 781 l 174 781 m 434 0 l 434 87 l 347 87 l 347 347 l 260 347 l 260 434 l 521 434 l 521 0 l 434 0 m 87 0 l 87 87 l 0 87 l 0 608 l 87 608 l 87 694 l 434 694 l 434 608 l 521 608 l 521 521 l 347 521 l 347 608 l 174 608 l 174 87 l 347 87 l 347 0 l 87 0 z "},"ġ":{"ha":608,"x_min":0,"x_max":521,"o":"m 174 694 l 174 781 l 347 781 l 347 694 l 174 694 m 347 260 l 347 434 l 174 434 l 174 260 l 347 260 m 87 -174 l 87 -87 l 347 -87 l 347 0 l 87 0 l 87 87 l 0 87 l 0 174 l 87 174 l 87 260 l 0 260 l 0 434 l 87 434 l 87 521 l 347 521 l 347 608 l 521 608 l 521 521 l 434 521 l 434 434 l 521 434 l 521 260 l 434 260 l 434 174 l 174 174 l 174 87 l 521 87 l 521 -87 l 434 -87 l 434 -174 l 87 -174 z "},"Ģ":{"ha":608,"x_min":0,"x_max":521,"o":"m 87 -260 l 87 -174 l 174 -174 l 174 -87 l 347 -87 l 347 -174 l 260 -174 l 260 -260 l 87 -260 m 434 0 l 434 87 l 347 87 l 347 347 l 260 347 l 260 434 l 521 434 l 521 0 l 434 0 m 87 0 l 87 87 l 0 87 l 0 608 l 87 608 l 87 694 l 434 694 l 434 608 l 521 608 l 521 521 l 347 521 l 347 608 l 174 608 l 174 87 l 347 87 l 347 0 l 87 0 z "},"ģ":{"ha":608,"x_min":0,"x_max":521,"o":"m 347 260 l 347 434 l 174 434 l 174 260 l 347 260 m 87 -174 l 87 -87 l 347 -87 l 347 0 l 87 0 l 87 87 l 0 87 l 0 174 l 87 174 l 87 260 l 0 260 l 0 434 l 87 434 l 87 521 l 347 521 l 347 608 l 521 608 l 521 521 l 434 521 l 434 434 l 521 434 l 521 260 l 434 260 l 434 174 l 174 174 l 174 87 l 521 87 l 521 -87 l 434 -87 l 434 -174 l 87 -174 m 174 608 l 174 694 l 260 694 l 260 608 l 174 608 m 260 694 l 260 781 l 434 781 l 434 694 l 260 694 z "},"Ĥ":{"ha":608,"x_min":0,"x_max":521,"o":"m 87 781 l 87 868 l 174 868 l 174 955 l 347 955 l 347 868 l 434 868 l 434 781 l 347 781 l 347 868 l 174 868 l 174 781 l 87 781 m 0 0 l 0 694 l 174 694 l 174 434 l 347 434 l 347 694 l 521 694 l 521 0 l 347 0 l 347 347 l 174 347 l 174 0 l 0 0 z "},"ĥ":{"ha":608,"x_min":0,"x_max":521,"o":"m 347 781 l 260 781 l 260 868 l 174 868 l 174 781 l 87 781 l 87 868 l 174 868 l 174 955 l 260 955 l 260 868 l 347 868 l 347 781 m 347 0 l 347 434 l 260 434 l 260 521 l 434 521 l 434 434 l 521 434 l 521 0 l 347 0 m 0 0 l 0 694 l 174 694 l 174 434 l 260 434 l 260 347 l 174 347 l 174 0 l 0 0 z "},"Ħ":{"ha":781,"x_min":0,"x_max":694,"o":"m 434 434 l 434 521 l 260 521 l 260 434 l 434 434 m 87 0 l 87 521 l 0 521 l 0 608 l 87 608 l 87 694 l 260 694 l 260 608 l 434 608 l 434 694 l 608 694 l 608 608 l 694 608 l 694 521 l 608 521 l 608 0 l 434 0 l 434 347 l 260 347 l 260 0 l 87 0 z "},"ħ":{"ha":694,"x_min":0,"x_max":608,"o":"m 434 0 l 434 434 l 347 434 l 347 521 l 521 521 l 521 434 l 608 434 l 608 0 l 434 0 m 87 0 l 87 608 l 0 608 l 0 694 l 347 694 l 347 608 l 260 608 l 260 434 l 347 434 l 347 347 l 260 347 l 260 0 l 87 0 z "},"Ĩ":{"ha":434,"x_min":0,"x_max":347,"o":"m 0 781 l 0 868 l 87 868 l 87 955 l 174 955 l 174 868 l 87 868 l 87 781 l 0 781 m 174 868 l 260 868 l 260 781 l 174 781 l 174 868 m 260 868 l 260 955 l 347 955 l 347 868 l 260 868 m 0 0 l 0 87 l 87 87 l 87 608 l 0 608 l 0 694 l 347 694 l 347 608 l 260 608 l 260 87 l 347 87 l 347 0 l 0 0 z "},"ĩ":{"ha":434,"x_min":0,"x_max":347,"o":"m 0 608 l 0 694 l 87 694 l 87 781 l 174 781 l 174 694 l 87 694 l 87 608 l 0 608 m 174 694 l 260 694 l 260 608 l 174 608 l 174 694 m 260 694 l 260 781 l 347 781 l 347 694 l 260 694 m 87 0 l 87 521 l 260 521 l 260 0 l 87 0 z "},"Ī":{"ha":434,"x_min":0,"x_max":347,"o":"m 0 781 l 0 868 l 347 868 l 347 781 l 0 781 m 0 0 l 0 87 l 87 87 l 87 608 l 0 608 l 0 694 l 347 694 l 347 608 l 260 608 l 260 87 l 347 87 l 347 0 l 0 0 z "},"ī":{"ha":434,"x_min":0,"x_max":347,"o":"m 0 608 l 0 694 l 347 694 l 347 608 l 0 608 m 87 0 l 87 521 l 260 521 l 260 0 l 87 0 z "},"Ĭ":{"ha":434,"x_min":0,"x_max":347,"o":"m 0 0 l 0 87 l 87 87 l 87 608 l 0 608 l 0 694 l 347 694 l 347 608 l 260 608 l 260 87 l 347 87 l 347 0 l 0 0 m 87 781 l 87 868 l 260 868 l 260 781 l 87 781 m 0 868 l 0 955 l 87 955 l 87 868 l 0 868 m 260 868 l 260 955 l 347 955 l 347 868 l 260 868 z "},"ĭ":{"ha":260,"x_min":-87,"x_max":260,"o":"m 0 0 l 0 521 l 174 521 l 174 0 l 0 0 m 0 608 l 0 694 l 174 694 l 174 608 l 0 608 m -87 694 l -87 781 l 0 781 l 0 694 l -87 694 m 174 694 l 174 781 l 260 781 l 260 694 l 174 694 z "},"Į":{"ha":434,"x_min":0,"x_max":347,"o":"m 260 0 l 260 -87 l 347 -87 l 347 -174 l 174 -174 l 174 0 l 260 0 m 0 0 l 0 87 l 87 87 l 87 608 l 0 608 l 0 694 l 347 694 l 347 608 l 260 608 l 260 87 l 347 87 l 347 0 l 0 0 z "},"į":{"ha":260,"x_min":0,"x_max":174,"o":"m 87 0 l 87 -87 l 174 -87 l 174 -174 l 0 -174 l 0 0 l 87 0 m 0 608 l 0 694 l 174 694 l 174 608 l 0 608 m 0 0 l 0 521 l 174 521 l 174 0 l 0 0 z "},"İ":{"ha":434,"x_min":0,"x_max":347,"o":"m 87 781 l 87 868 l 260 868 l 260 781 l 87 781 m 0 0 l 0 87 l 87 87 l 87 608 l 0 608 l 0 694 l 347 694 l 347 608 l 260 608 l 260 87 l 347 87 l 347 0 l 0 0 z "},"ı":{"ha":260,"x_min":0,"x_max":174,"o":"m 0 0 l 0 521 l 174 521 l 174 0 l 0 0 z "},"Ĳ":{"ha":608,"x_min":0,"x_max":521,"o":"m 87 0 l 87 87 l 347 87 l 347 608 l 260 608 l 260 694 l 521 694 l 521 87 l 434 87 l 434 0 l 87 0 m 0 694 l 174 694 l 174 260 l 0 260 l 0 694 z "},"ĳ":{"ha":608,"x_min":0,"x_max":521,"o":"m 87 0 l 87 87 l 0 87 l 0 521 l 174 521 l 174 87 l 260 87 l 260 0 l 87 0 m 87 -174 l 87 -87 l 347 -87 l 347 87 l 260 87 l 260 174 l 347 174 l 347 521 l 521 521 l 521 -87 l 434 -87 l 434 -174 l 87 -174 m 0 608 l 0 694 l 174 694 l 174 608 l 0 608 m 347 608 l 347 694 l 521 694 l 521 608 l 347 608 z "},"Ĵ":{"ha":347,"x_min":-87,"x_max":260,"o":"m 260 781 l 174 781 l 174 868 l 87 868 l 87 781 l 0 781 l 0 868 l 87 868 l 87 955 l 174 955 l 174 868 l 260 868 l 260 781 m -87 -174 l -87 -87 l 87 -87 l 87 608 l 0 608 l 0 694 l 260 694 l 260 -87 l 174 -87 l 174 -174 l -87 -174 z "},"ĵ":{"ha":347,"x_min":-87,"x_max":260,"o":"m 260 608 l 174 608 l 174 694 l 87 694 l 87 608 l 0 608 l 0 694 l 87 694 l 87 781 l 174 781 l 174 694 l 260 694 l 260 608 m -87 -174 l -87 -87 l 87 -87 l 87 434 l 0 434 l 0 521 l 260 521 l 260 -87 l 174 -87 l 174 -174 l -87 -174 z "},"Ķ":{"ha":608,"x_min":0,"x_max":521,"o":"m 87 -260 l 87 -174 l 174 -174 l 174 -87 l 347 -87 l 347 -174 l 260 -174 l 260 -260 l 87 -260 m 347 0 l 347 347 l 434 347 l 434 260 l 521 260 l 521 0 l 347 0 m 0 0 l 0 694 l 174 694 l 174 434 l 260 434 l 260 521 l 347 521 l 347 694 l 521 694 l 521 521 l 434 521 l 434 434 l 347 434 l 347 347 l 260 347 l 260 260 l 174 260 l 174 0 l 0 0 z "},"ķ":{"ha":608,"x_min":0,"x_max":521,"o":"m 87 -260 l 87 -174 l 174 -174 l 174 -87 l 347 -87 l 347 -174 l 260 -174 l 260 -260 l 87 -260 m 347 0 l 347 260 l 434 260 l 434 174 l 521 174 l 521 0 l 347 0 m 260 260 l 260 434 l 347 434 l 347 521 l 521 521 l 521 434 l 434 434 l 434 347 l 347 347 l 347 260 l 260 260 m 0 0 l 0 694 l 174 694 l 174 260 l 260 260 l 260 174 l 174 174 l 174 0 l 0 0 z "},"ĸ":{"ha":608,"x_min":0,"x_max":521,"o":"m 347 0 l 347 260 l 434 260 l 434 174 l 521 174 l 521 0 l 347 0 m 0 0 l 0 521 l 174 521 l 174 260 l 260 260 l 260 174 l 174 174 l 174 0 l 0 0 m 260 260 l 260 434 l 347 434 l 347 521 l 521 521 l 521 434 l 434 434 l 434 347 l 347 347 l 347 260 l 260 260 z "},"Ĺ":{"ha":521,"x_min":0,"x_max":434,"o":"m 0 781 l 0 868 l 87 868 l 87 955 l 260 955 l 260 868 l 174 868 l 174 781 l 0 781 m 0 0 l 0 694 l 174 694 l 174 87 l 434 87 l 434 0 l 0 0 z "},"ĺ":{"ha":347,"x_min":0,"x_max":260,"o":"m 0 781 l 0 868 l 87 868 l 87 955 l 260 955 l 260 868 l 174 868 l 174 781 l 0 781 m 87 0 l 87 87 l 0 87 l 0 694 l 174 694 l 174 87 l 260 87 l 260 0 l 87 0 z "},"Ļ":{"ha":521,"x_min":0,"x_max":434,"o":"m 87 -260 l 87 -174 l 174 -174 l 174 -87 l 347 -87 l 347 -174 l 260 -174 l 260 -260 l 87 -260 m 0 0 l 0 694 l 174 694 l 174 87 l 434 87 l 434 0 l 0 0 z "},"ļ":{"ha":347,"x_min":0,"x_max":260,"o":"m 0 -260 l 0 -174 l 87 -174 l 87 -87 l 260 -87 l 260 -174 l 174 -174 l 174 -260 l 0 -260 m 87 0 l 87 87 l 0 87 l 0 694 l 174 694 l 174 87 l 260 87 l 260 0 l 87 0 z "},"Ľ":{"ha":521,"x_min":0,"x_max":434,"o":"m 260 434 l 260 521 l 347 521 l 347 694 l 434 694 l 434 521 l 347 521 l 347 434 l 260 434 m 0 0 l 0 694 l 174 694 l 174 87 l 434 87 l 434 0 l 0 0 z "},"ľ":{"ha":434,"x_min":0,"x_max":347,"o":"m -955 694 l -1042 694 l -1042 868 l -955 868 l -955 694 m 87 0 l 87 87 l 0 87 l 0 694 l 174 694 l 174 87 l 260 87 l 260 0 l 87 0 z "},"Ŀ":{"ha":521,"x_min":0,"x_max":434,"o":"m 260 260 l 260 434 l 434 434 l 434 260 l 260 260 m 0 0 l 0 694 l 174 694 l 174 87 l 434 87 l 434 0 l 0 0 z "},"ŀ":{"ha":521,"x_min":0,"x_max":434,"o":"m 260 260 l 260 434 l 434 434 l 434 260 l 260 260 m 87 0 l 87 87 l 0 87 l 0 694 l 174 694 l 174 87 l 260 87 l 260 0 l 87 0 z "},"Ł":{"ha":694,"x_min":0,"x_max":608,"o":"m 87 0 l 87 260 l 0 260 l 0 347 l 87 347 l 87 694 l 260 694 l 260 434 l 347 434 l 347 347 l 260 347 l 260 87 l 608 87 l 608 0 l 87 0 z "},"ł":{"ha":434,"x_min":0,"x_max":347,"o":"m 174 0 l 174 87 l 87 87 l 87 260 l 0 260 l 0 347 l 87 347 l 87 694 l 260 694 l 260 434 l 347 434 l 347 347 l 260 347 l 260 87 l 347 87 l 347 0 l 174 0 z "},"Ń":{"ha":608,"x_min":0,"x_max":521,"o":"m 174 781 l 174 868 l 260 868 l 260 955 l 434 955 l 434 868 l 347 868 l 347 781 l 174 781 m 0 0 l 0 694 l 174 694 l 174 521 l 260 521 l 260 347 l 174 347 l 174 0 l 0 0 m 347 0 l 347 174 l 260 174 l 260 347 l 347 347 l 347 694 l 521 694 l 521 0 l 347 0 z "},"ń":{"ha":608,"x_min":0,"x_max":521,"o":"m 174 608 l 174 694 l 260 694 l 260 781 l 434 781 l 434 694 l 347 694 l 347 608 l 174 608 m 0 0 l 0 521 l 174 521 l 174 434 l 260 434 l 260 347 l 174 347 l 174 0 l 0 0 m 347 0 l 347 434 l 260 434 l 260 521 l 434 521 l 434 434 l 521 434 l 521 0 l 347 0 z "},"Ņ":{"ha":608,"x_min":0,"x_max":521,"o":"m 87 -260 l 87 -174 l 174 -174 l 174 -87 l 347 -87 l 347 -174 l 260 -174 l 260 -260 l 87 -260 m 0 0 l 0 694 l 174 694 l 174 521 l 260 521 l 260 347 l 174 347 l 174 0 l 0 0 m 347 0 l 347 174 l 260 174 l 260 347 l 347 347 l 347 694 l 521 694 l 521 0 l 347 0 z "},"ņ":{"ha":608,"x_min":0,"x_max":521,"o":"m 87 -260 l 87 -174 l 174 -174 l 174 -87 l 347 -87 l 347 -174 l 260 -174 l 260 -260 l 87 -260 m 0 0 l 0 521 l 174 521 l 174 434 l 260 434 l 260 347 l 174 347 l 174 0 l 0 0 m 347 0 l 347 434 l 260 434 l 260 521 l 434 521 l 434 434 l 521 434 l 521 0 l 347 0 z "},"Ň":{"ha":608,"x_min":0,"x_max":521,"o":"m 87 955 l 87 868 l 174 868 l 174 781 l 347 781 l 347 868 l 434 868 l 434 955 l 347 955 l 347 868 l 174 868 l 174 955 l 87 955 m 0 0 l 0 694 l 174 694 l 174 521 l 260 521 l 260 347 l 174 347 l 174 0 l 0 0 m 347 0 l 347 174 l 260 174 l 260 347 l 347 347 l 347 694 l 521 694 l 521 0 l 347 0 z "},"ň":{"ha":608,"x_min":0,"x_max":521,"o":"m 87 781 l 87 694 l 174 694 l 174 608 l 347 608 l 347 694 l 434 694 l 434 781 l 347 781 l 347 694 l 174 694 l 174 781 l 87 781 m 0 0 l 0 521 l 174 521 l 174 434 l 260 434 l 260 347 l 174 347 l 174 0 l 0 0 m 347 0 l 347 434 l 260 434 l 260 521 l 434 521 l 434 434 l 521 434 l 521 0 l 347 0 z "},"ŉ":{"ha":868,"x_min":0,"x_max":781,"o":"m 260 0 l 260 521 l 434 521 l 434 434 l 521 434 l 521 347 l 434 347 l 434 0 l 260 0 m 608 0 l 608 434 l 521 434 l 521 521 l 694 521 l 694 434 l 781 434 l 781 0 l 608 0 m 0 434 l 0 521 l 87 521 l 87 694 l 174 694 l 174 521 l 87 521 l 87 434 l 0 434 z "},"Ŋ":{"ha":608,"x_min":0,"x_max":521,"o":"m 0 0 l 0 694 l 174 694 l 174 608 l 260 608 l 260 521 l 174 521 l 174 0 l 0 0 m 87 -174 l 87 -87 l 347 -87 l 347 608 l 260 608 l 260 694 l 434 694 l 434 608 l 521 608 l 521 -87 l 434 -87 l 434 -174 l 87 -174 z "},"ŋ":{"ha":608,"x_min":0,"x_max":521,"o":"m 0 0 l 0 521 l 174 521 l 174 434 l 260 434 l 260 347 l 174 347 l 174 0 l 0 0 m 87 -174 l 87 -87 l 347 -87 l 347 434 l 260 434 l 260 521 l 434 521 l 434 434 l 521 434 l 521 -87 l 434 -87 l 434 -174 l 87 -174 z "},"Ō":{"ha":608,"x_min":0,"x_max":521,"o":"m 87 781 l 87 868 l 434 868 l 434 781 l 87 781 m 347 87 l 347 608 l 174 608 l 174 87 l 347 87 m 87 0 l 87 87 l 0 87 l 0 608 l 87 608 l 87 694 l 434 694 l 434 608 l 521 608 l 521 87 l 434 87 l 434 0 l 87 0 z "},"ō":{"ha":608,"x_min":0,"x_max":521,"o":"m 87 608 l 87 694 l 434 694 l 434 608 l 87 608 m 347 87 l 347 434 l 174 434 l 174 87 l 347 87 m 87 0 l 87 87 l 0 87 l 0 434 l 87 434 l 87 521 l 434 521 l 434 434 l 521 434 l 521 87 l 434 87 l 434 0 l 87 0 z "},"Ŏ":{"ha":608,"x_min":0,"x_max":521,"o":"m 347 87 l 347 608 l 174 608 l 174 87 l 347 87 m 87 0 l 87 87 l 0 87 l 0 608 l 87 608 l 87 694 l 434 694 l 434 608 l 521 608 l 521 87 l 434 87 l 434 0 l 87 0 m 174 781 l 174 868 l 347 868 l 347 781 l 174 781 m 87 868 l 87 955 l 174 955 l 174 868 l 87 868 m 347 868 l 347 955 l 434 955 l 434 868 l 347 868 z "},"ŏ":{"ha":608,"x_min":0,"x_max":521,"o":"m 347 87 l 347 434 l 174 434 l 174 87 l 347 87 m 87 0 l 87 87 l 0 87 l 0 434 l 87 434 l 87 521 l 434 521 l 434 434 l 521 434 l 521 87 l 434 87 l 434 0 l 87 0 m 174 608 l 174 694 l 347 694 l 347 608 l 174 608 m 87 694 l 87 781 l 174 781 l 174 694 l 87 694 m 347 694 l 347 781 l 434 781 l 434 694 l 347 694 z "},"Ő":{"ha":608,"x_min":0,"x_max":521,"o":"m 87 781 l 87 955 l 260 955 l 260 868 l 174 868 l 174 781 l 87 781 m 347 781 l 347 955 l 521 955 l 521 868 l 434 868 l 434 781 l 347 781 m 347 87 l 347 608 l 174 608 l 174 87 l 347 87 m 87 0 l 87 87 l 0 87 l 0 608 l 87 608 l 87 694 l 434 694 l 434 608 l 521 608 l 521 87 l 434 87 l 434 0 l 87 0 z "},"ő":{"ha":608,"x_min":0,"x_max":521,"o":"m 87 608 l 87 781 l 260 781 l 260 694 l 174 694 l 174 608 l 87 608 m 347 608 l 347 781 l 521 781 l 521 694 l 434 694 l 434 608 l 347 608 m 347 87 l 347 434 l 174 434 l 174 87 l 347 87 m 87 0 l 87 87 l 0 87 l 0 434 l 87 434 l 87 521 l 434 521 l 434 434 l 521 434 l 521 87 l 434 87 l 434 0 l 87 0 z "},"Œ":{"ha":868,"x_min":0,"x_max":781,"o":"m 347 87 l 347 608 l 174 608 l 174 87 l 347 87 m 87 0 l 87 87 l 0 87 l 0 608 l 87 608 l 87 694 l 781 694 l 781 608 l 521 608 l 521 434 l 694 434 l 694 347 l 521 347 l 521 87 l 781 87 l 781 0 l 87 0 z "},"œ":{"ha":955,"x_min":0,"x_max":868,"o":"m 347 87 l 347 434 l 174 434 l 174 87 l 347 87 m 694 347 l 694 434 l 521 434 l 521 347 l 694 347 m 87 0 l 87 87 l 0 87 l 0 434 l 87 434 l 87 521 l 781 521 l 781 434 l 868 434 l 868 260 l 521 260 l 521 87 l 694 87 l 694 174 l 868 174 l 868 87 l 781 87 l 781 0 l 87 0 z "},"Ŕ":{"ha":608,"x_min":0,"x_max":521,"o":"m 174 781 l 174 868 l 260 868 l 260 955 l 434 955 l 434 868 l 347 868 l 347 781 l 174 781 m 0 0 l 0 694 l 434 694 l 434 608 l 521 608 l 521 434 l 434 434 l 434 347 l 347 347 l 347 608 l 174 608 l 174 347 l 347 347 l 347 260 l 434 260 l 434 174 l 521 174 l 521 0 l 347 0 l 347 174 l 260 174 l 260 260 l 174 260 l 174 0 l 0 0 z "},"ŕ":{"ha":434,"x_min":0,"x_max":347,"o":"m 87 608 l 87 694 l 174 694 l 174 781 l 347 781 l 347 694 l 260 694 l 260 608 l 87 608 m 0 0 l 0 521 l 174 521 l 174 434 l 260 434 l 260 521 l 347 521 l 347 347 l 174 347 l 174 0 l 0 0 z "},"Ŗ":{"ha":608,"x_min":0,"x_max":521,"o":"m 87 -260 l 87 -174 l 174 -174 l 174 -87 l 347 -87 l 347 -174 l 260 -174 l 260 -260 l 87 -260 m 0 0 l 0 694 l 434 694 l 434 608 l 521 608 l 521 434 l 434 434 l 434 347 l 347 347 l 347 608 l 174 608 l 174 347 l 347 347 l 347 260 l 434 260 l 434 174 l 521 174 l 521 0 l 347 0 l 347 174 l 260 174 l 260 260 l 174 260 l 174 0 l 0 0 z "},"ŗ":{"ha":434,"x_min":0,"x_max":347,"o":"m 0 -260 l 0 -174 l 87 -174 l 87 -87 l 260 -87 l 260 -174 l 174 -174 l 174 -260 l 0 -260 m 0 0 l 0 521 l 174 521 l 174 434 l 260 434 l 260 521 l 347 521 l 347 347 l 174 347 l 174 0 l 0 0 z "},"Ř":{"ha":608,"x_min":0,"x_max":521,"o":"m 87 955 l 87 868 l 174 868 l 174 781 l 347 781 l 347 868 l 434 868 l 434 955 l 347 955 l 347 868 l 174 868 l 174 955 l 87 955 m 0 0 l 0 694 l 434 694 l 434 608 l 521 608 l 521 434 l 434 434 l 434 347 l 347 347 l 347 608 l 174 608 l 174 347 l 347 347 l 347 260 l 434 260 l 434 174 l 521 174 l 521 0 l 347 0 l 347 174 l 260 174 l 260 260 l 174 260 l 174 0 l 0 0 z "},"ř":{"ha":434,"x_min":0,"x_max":347,"o":"m 0 0 l 0 521 l 174 521 l 174 434 l 260 434 l 260 521 l 347 521 l 347 347 l 174 347 l 174 0 l 0 0 m 87 608 l 87 694 l 260 694 l 260 608 l 87 608 m 0 694 l 0 781 l 87 781 l 87 694 l 0 694 m 260 694 l 260 781 l 347 781 l 347 694 l 260 694 z "},"Ś":{"ha":608,"x_min":0,"x_max":521,"o":"m 174 781 l 174 868 l 260 868 l 260 955 l 434 955 l 434 868 l 347 868 l 347 781 l 174 781 m 87 0 l 87 87 l 0 87 l 0 174 l 174 174 l 174 87 l 347 87 l 347 260 l 260 260 l 260 347 l 87 347 l 87 434 l 0 434 l 0 608 l 87 608 l 87 694 l 434 694 l 434 608 l 521 608 l 521 521 l 347 521 l 347 608 l 174 608 l 174 434 l 347 434 l 347 347 l 434 347 l 434 260 l 521 260 l 521 87 l 434 87 l 434 0 l 87 0 z "},"ś":{"ha":521,"x_min":0,"x_max":434,"o":"m 87 608 l 87 694 l 174 694 l 174 781 l 347 781 l 347 694 l 260 694 l 260 608 l 87 608 m 0 87 l 0 174 l 87 174 l 87 87 l 0 87 m 347 347 l 347 434 l 434 434 l 434 347 l 347 347 m 87 0 l 87 87 l 260 87 l 260 174 l 174 174 l 174 260 l 87 260 l 87 347 l 0 347 l 0 434 l 87 434 l 87 521 l 347 521 l 347 434 l 174 434 l 174 347 l 260 347 l 260 260 l 347 260 l 347 174 l 434 174 l 434 87 l 347 87 l 347 0 l 87 0 z "},"Ŝ":{"ha":608,"x_min":0,"x_max":521,"o":"m 87 781 l 87 868 l 174 868 l 174 955 l 347 955 l 347 868 l 434 868 l 434 781 l 347 781 l 347 868 l 174 868 l 174 781 l 87 781 m 87 0 l 87 87 l 0 87 l 0 174 l 174 174 l 174 87 l 347 87 l 347 260 l 260 260 l 260 347 l 87 347 l 87 434 l 0 434 l 0 608 l 87 608 l 87 694 l 434 694 l 434 608 l 521 608 l 521 521 l 347 521 l 347 608 l 174 608 l 174 434 l 347 434 l 347 347 l 434 347 l 434 260 l 521 260 l 521 87 l 434 87 l 434 0 l 87 0 z "},"ŝ":{"ha":521,"x_min":0,"x_max":434,"o":"m 347 608 l 260 608 l 260 694 l 174 694 l 174 608 l 87 608 l 87 694 l 174 694 l 174 781 l 260 781 l 260 694 l 347 694 l 347 608 m 0 87 l 0 174 l 87 174 l 87 87 l 0 87 m 347 347 l 347 434 l 434 434 l 434 347 l 347 347 m 87 0 l 87 87 l 260 87 l 260 174 l 174 174 l 174 260 l 87 260 l 87 347 l 0 347 l 0 434 l 87 434 l 87 521 l 347 521 l 347 434 l 174 434 l 174 347 l 260 347 l 260 260 l 347 260 l 347 174 l 434 174 l 434 87 l 347 87 l 347 0 l 87 0 z "},"Ş":{"ha":608,"x_min":0,"x_max":521,"o":"m 87 -174 l 87 -87 l 260 -87 l 260 -174 l 87 -174 m 260 -87 l 260 0 l 347 0 l 347 -87 l 260 -87 m 87 0 l 87 87 l 0 87 l 0 174 l 174 174 l 174 87 l 347 87 l 347 260 l 260 260 l 260 347 l 87 347 l 87 434 l 0 434 l 0 608 l 87 608 l 87 694 l 434 694 l 434 608 l 521 608 l 521 521 l 347 521 l 347 608 l 174 608 l 174 434 l 347 434 l 347 347 l 434 347 l 434 260 l 521 260 l 521 87 l 434 87 l 434 0 l 87 0 z "},"ş":{"ha":521,"x_min":0,"x_max":434,"o":"m 87 -174 l 87 -87 l 260 -87 l 260 -174 l 87 -174 m 260 -87 l 260 0 l 347 0 l 347 -87 l 260 -87 m 0 87 l 0 174 l 87 174 l 87 87 l 0 87 m 347 347 l 347 434 l 434 434 l 434 347 l 347 347 m 87 0 l 87 87 l 260 87 l 260 174 l 174 174 l 174 260 l 87 260 l 87 347 l 0 347 l 0 434 l 87 434 l 87 521 l 347 521 l 347 434 l 174 434 l 174 347 l 260 347 l 260 260 l 347 260 l 347 174 l 434 174 l 434 87 l 347 87 l 347 0 l 87 0 z "},"Š":{"ha":608,"x_min":0,"x_max":521,"o":"m 87 955 l 87 868 l 174 868 l 174 781 l 347 781 l 347 868 l 434 868 l 434 955 l 347 955 l 347 868 l 174 868 l 174 955 l 87 955 m 87 0 l 87 87 l 0 87 l 0 174 l 174 174 l 174 87 l 347 87 l 347 260 l 260 260 l 260 347 l 87 347 l 87 434 l 0 434 l 0 608 l 87 608 l 87 694 l 434 694 l 434 608 l 521 608 l 521 521 l 347 521 l 347 608 l 174 608 l 174 434 l 347 434 l 347 347 l 434 347 l 434 260 l 521 260 l 521 87 l 434 87 l 434 0 l 87 0 z "},"š":{"ha":521,"x_min":0,"x_max":434,"o":"m 87 781 l 174 781 l 174 694 l 260 694 l 260 781 l 347 781 l 347 694 l 260 694 l 260 608 l 174 608 l 174 694 l 87 694 l 87 781 m 0 87 l 0 174 l 87 174 l 87 87 l 0 87 m 347 347 l 347 434 l 434 434 l 434 347 l 347 347 m 87 0 l 87 87 l 260 87 l 260 174 l 174 174 l 174 260 l 87 260 l 87 347 l 0 347 l 0 434 l 87 434 l 87 521 l 347 521 l 347 434 l 174 434 l 174 347 l 260 347 l 260 260 l 347 260 l 347 174 l 434 174 l 434 87 l 347 87 l 347 0 l 87 0 z "},"Ţ":{"ha":608,"x_min":0,"x_max":521,"o":"m 87 -174 l 87 -87 l 260 -87 l 260 -174 l 87 -174 m 260 -87 l 260 0 l 347 0 l 347 -87 l 260 -87 m 174 0 l 174 608 l 0 608 l 0 694 l 521 694 l 521 608 l 347 608 l 347 0 l 174 0 z "},"ţ":{"ha":521,"x_min":0,"x_max":434,"o":"m 87 -174 l 87 -87 l 260 -87 l 260 -174 l 87 -174 m 260 -87 l 260 0 l 347 0 l 347 -87 l 260 -87 m 174 0 l 174 87 l 87 87 l 87 434 l 0 434 l 0 521 l 87 521 l 87 694 l 260 694 l 260 521 l 434 521 l 434 434 l 260 434 l 260 87 l 434 87 l 434 0 l 174 0 z "},"Ť":{"ha":608,"x_min":0,"x_max":521,"o":"m 87 955 l 87 868 l 174 868 l 174 781 l 347 781 l 347 868 l 434 868 l 434 955 l 347 955 l 347 868 l 174 868 l 174 955 l 87 955 m 174 0 l 174 608 l 0 608 l 0 694 l 521 694 l 521 608 l 347 608 l 347 0 l 174 0 z "},"ť":{"ha":521,"x_min":0,"x_max":434,"o":"m -868 781 l -955 781 l -955 955 l -868 955 l -868 781 m 174 0 l 174 87 l 87 87 l 87 434 l 0 434 l 0 521 l 87 521 l 87 694 l 260 694 l 260 521 l 434 521 l 434 434 l 260 434 l 260 87 l 434 87 l 434 0 l 174 0 z "},"Ŧ":{"ha":608,"x_min":0,"x_max":521,"o":"m 174 0 l 174 434 l 0 434 l 0 521 l 174 521 l 174 608 l 0 608 l 0 694 l 521 694 l 521 608 l 347 608 l 347 521 l 521 521 l 521 434 l 347 434 l 347 0 l 174 0 z "},"ŧ":{"ha":521,"x_min":0,"x_max":434,"o":"m 174 0 l 174 87 l 87 87 l 87 260 l 0 260 l 0 347 l 87 347 l 87 434 l 0 434 l 0 521 l 87 521 l 87 694 l 260 694 l 260 521 l 434 521 l 434 434 l 260 434 l 260 347 l 434 347 l 434 260 l 260 260 l 260 87 l 434 87 l 434 0 l 174 0 z "},"Ũ":{"ha":608,"x_min":0,"x_max":521,"o":"m 87 781 l 87 868 l 174 868 l 174 955 l 260 955 l 260 868 l 174 868 l 174 781 l 87 781 m 260 868 l 347 868 l 347 781 l 260 781 l 260 868 m 347 868 l 347 955 l 434 955 l 434 868 l 347 868 m 87 0 l 87 87 l 0 87 l 0 694 l 174 694 l 174 87 l 347 87 l 347 694 l 521 694 l 521 87 l 434 87 l 434 0 l 87 0 z "},"ũ":{"ha":608,"x_min":0,"x_max":521,"o":"m 87 608 l 87 694 l 174 694 l 174 781 l 260 781 l 260 694 l 174 694 l 174 608 l 87 608 m 260 694 l 347 694 l 347 608 l 260 608 l 260 694 m 347 694 l 347 781 l 434 781 l 434 694 l 347 694 m 87 0 l 87 87 l 0 87 l 0 521 l 174 521 l 174 87 l 347 87 l 347 0 l 87 0 m 434 0 l 434 87 l 347 87 l 347 521 l 521 521 l 521 0 l 434 0 z "},"Ū":{"ha":608,"x_min":0,"x_max":521,"o":"m 87 781 l 87 868 l 434 868 l 434 781 l 87 781 m 87 0 l 87 87 l 0 87 l 0 694 l 174 694 l 174 87 l 347 87 l 347 694 l 521 694 l 521 87 l 434 87 l 434 0 l 87 0 z "},"ū":{"ha":608,"x_min":0,"x_max":521,"o":"m 87 608 l 87 694 l 434 694 l 434 608 l 87 608 m 87 0 l 87 87 l 0 87 l 0 521 l 174 521 l 174 87 l 347 87 l 347 0 l 87 0 m 434 0 l 434 87 l 347 87 l 347 521 l 521 521 l 521 0 l 434 0 z "},"Ŭ":{"ha":608,"x_min":0,"x_max":521,"o":"m 87 0 l 87 87 l 0 87 l 0 694 l 174 694 l 174 87 l 347 87 l 347 694 l 521 694 l 521 87 l 434 87 l 434 0 l 87 0 m 174 781 l 174 868 l 347 868 l 347 781 l 174 781 m 87 868 l 87 955 l 174 955 l 174 868 l 87 868 m 347 868 l 347 955 l 434 955 l 434 868 l 347 868 z "},"ŭ":{"ha":608,"x_min":0,"x_max":521,"o":"m 87 0 l 87 87 l 0 87 l 0 521 l 174 521 l 174 87 l 347 87 l 347 0 l 87 0 m 434 0 l 434 87 l 347 87 l 347 521 l 521 521 l 521 0 l 434 0 m 174 608 l 174 694 l 347 694 l 347 608 l 174 608 m 87 694 l 87 781 l 174 781 l 174 694 l 87 694 m 347 694 l 347 781 l 434 781 l 434 694 l 347 694 z "},"Ů":{"ha":608,"x_min":0,"x_max":521,"o":"m 87 0 l 87 87 l 0 87 l 0 694 l 174 694 l 174 87 l 347 87 l 347 694 l 521 694 l 521 87 l 434 87 l 434 0 l 87 0 m 174 694 l 174 781 l 347 781 l 347 694 l 174 694 m 87 781 l 87 868 l 174 868 l 174 781 l 87 781 m 347 781 l 347 868 l 434 868 l 434 781 l 347 781 m 174 868 l 174 955 l 347 955 l 347 868 l 174 868 z "},"ů":{"ha":608,"x_min":0,"x_max":521,"o":"m 87 0 l 87 87 l 0 87 l 0 521 l 174 521 l 174 87 l 347 87 l 347 0 l 87 0 m 434 0 l 434 87 l 347 87 l 347 521 l 521 521 l 521 0 l 434 0 m 174 608 l 174 694 l 347 694 l 347 608 l 174 608 m 87 694 l 87 781 l 174 781 l 174 694 l 87 694 m 347 694 l 347 781 l 434 781 l 434 694 l 347 694 m 174 781 l 174 868 l 347 868 l 347 781 l 174 781 z "},"Ű":{"ha":608,"x_min":0,"x_max":521,"o":"m 87 781 l 87 955 l 260 955 l 260 868 l 174 868 l 174 781 l 87 781 m 347 781 l 347 955 l 521 955 l 521 868 l 434 868 l 434 781 l 347 781 m 87 0 l 87 87 l 0 87 l 0 694 l 174 694 l 174 87 l 347 87 l 347 694 l 521 694 l 521 87 l 434 87 l 434 0 l 87 0 z "},"ű":{"ha":608,"x_min":0,"x_max":521,"o":"m 87 608 l 87 781 l 260 781 l 260 694 l 174 694 l 174 608 l 87 608 m 347 608 l 347 781 l 521 781 l 521 694 l 434 694 l 434 608 l 347 608 m 87 0 l 87 87 l 0 87 l 0 521 l 174 521 l 174 87 l 347 87 l 347 0 l 87 0 m 434 0 l 434 87 l 347 87 l 347 521 l 521 521 l 521 0 l 434 0 z "},"Ų":{"ha":608,"x_min":0,"x_max":521,"o":"m 434 0 l 434 -87 l 521 -87 l 521 -174 l 347 -174 l 347 0 l 434 0 m 87 0 l 87 87 l 0 87 l 0 694 l 174 694 l 174 87 l 347 87 l 347 694 l 521 694 l 521 87 l 434 87 l 434 0 l 87 0 z "},"ų":{"ha":608,"x_min":0,"x_max":521,"o":"m 434 0 l 434 -87 l 521 -87 l 521 -174 l 347 -174 l 347 0 l 434 0 m 87 0 l 87 87 l 0 87 l 0 521 l 174 521 l 174 87 l 347 87 l 347 0 l 87 0 m 434 0 l 434 87 l 347 87 l 347 521 l 521 521 l 521 0 l 434 0 z "},"Ŵ":{"ha":694,"x_min":0,"x_max":608,"o":"m 434 781 l 347 781 l 347 868 l 260 868 l 260 781 l 174 781 l 174 868 l 260 868 l 260 955 l 347 955 l 347 868 l 434 868 l 434 781 m 260 260 l 260 434 l 347 434 l 347 260 l 260 260 m 0 0 l 0 694 l 174 694 l 174 260 l 260 260 l 260 87 l 174 87 l 174 0 l 0 0 m 434 0 l 434 87 l 347 87 l 347 260 l 434 260 l 434 694 l 608 694 l 608 0 l 434 0 z "},"ŵ":{"ha":694,"x_min":0,"x_max":608,"o":"m 434 608 l 347 608 l 347 694 l 260 694 l 260 608 l 174 608 l 174 694 l 260 694 l 260 781 l 347 781 l 347 694 l 434 694 l 434 608 m 0 0 l 0 521 l 174 521 l 174 260 l 260 260 l 260 434 l 347 434 l 347 260 l 434 260 l 434 521 l 608 521 l 608 0 l 434 0 l 434 87 l 347 87 l 347 174 l 260 174 l 260 87 l 174 87 l 174 0 l 0 0 z "},"Ŷ":{"ha":608,"x_min":0,"x_max":521,"o":"m 87 781 l 87 868 l 174 868 l 174 955 l 347 955 l 347 868 l 434 868 l 434 781 l 347 781 l 347 868 l 174 868 l 174 781 l 87 781 m 174 0 l 174 260 l 87 260 l 87 347 l 0 347 l 0 694 l 174 694 l 174 347 l 347 347 l 347 694 l 521 694 l 521 347 l 434 347 l 434 260 l 347 260 l 347 0 l 174 0 z "},"ŷ":{"ha":608,"x_min":0,"x_max":521,"o":"m 87 608 l 87 694 l 174 694 l 174 781 l 347 781 l 347 694 l 434 694 l 434 608 l 347 608 l 347 694 l 174 694 l 174 608 l 87 608 m 0 -174 l 0 -87 l 174 -87 l 174 87 l 87 87 l 87 260 l 0 260 l 0 521 l 174 521 l 174 260 l 260 260 l 260 174 l 347 174 l 347 521 l 521 521 l 521 260 l 434 260 l 434 87 l 347 87 l 347 -87 l 260 -87 l 260 -174 l 0 -174 z "},"Ÿ":{"ha":608,"x_min":0,"x_max":521,"o":"m 87 781 l 87 868 l 174 868 l 174 781 l 87 781 m 347 781 l 347 868 l 434 868 l 434 781 l 347 781 m 174 0 l 174 260 l 87 260 l 87 347 l 0 347 l 0 694 l 174 694 l 174 347 l 347 347 l 347 694 l 521 694 l 521 347 l 434 347 l 434 260 l 347 260 l 347 0 l 174 0 z "},"Ź":{"ha":608,"x_min":0,"x_max":521,"o":"m 174 781 l 174 868 l 260 868 l 260 955 l 434 955 l 434 868 l 347 868 l 347 781 l 174 781 m 0 0 l 0 260 l 87 260 l 87 347 l 174 347 l 174 434 l 260 434 l 260 521 l 347 521 l 347 608 l 0 608 l 0 694 l 521 694 l 521 521 l 434 521 l 434 434 l 347 434 l 347 347 l 260 347 l 260 260 l 174 260 l 174 87 l 521 87 l 521 0 l 0 0 z "},"ź":{"ha":521,"x_min":0,"x_max":434,"o":"m 87 608 l 87 694 l 174 694 l 174 781 l 347 781 l 347 694 l 260 694 l 260 608 l 87 608 m 0 0 l 0 174 l 87 174 l 87 260 l 174 260 l 174 347 l 260 347 l 260 434 l 0 434 l 0 521 l 434 521 l 434 347 l 347 347 l 347 260 l 260 260 l 260 174 l 174 174 l 174 87 l 434 87 l 434 0 l 0 0 z "},"Ż":{"ha":608,"x_min":0,"x_max":521,"o":"m 174 781 l 174 868 l 347 868 l 347 781 l 174 781 m 0 0 l 0 260 l 87 260 l 87 347 l 174 347 l 174 434 l 260 434 l 260 521 l 347 521 l 347 608 l 0 608 l 0 694 l 521 694 l 521 521 l 434 521 l 434 434 l 347 434 l 347 347 l 260 347 l 260 260 l 174 260 l 174 87 l 521 87 l 521 0 l 0 0 z "},"ż":{"ha":521,"x_min":0,"x_max":434,"o":"m 174 608 l 174 694 l 347 694 l 347 608 l 174 608 m 0 0 l 0 174 l 87 174 l 87 260 l 174 260 l 174 347 l 260 347 l 260 434 l 0 434 l 0 521 l 434 521 l 434 347 l 347 347 l 347 260 l 260 260 l 260 174 l 174 174 l 174 87 l 434 87 l 434 0 l 0 0 z "},"Ž":{"ha":608,"x_min":0,"x_max":521,"o":"m 87 955 l 87 868 l 174 868 l 174 781 l 347 781 l 347 868 l 434 868 l 434 955 l 347 955 l 347 868 l 174 868 l 174 955 l 87 955 m 0 0 l 0 260 l 87 260 l 87 347 l 174 347 l 174 434 l 260 434 l 260 521 l 347 521 l 347 608 l 0 608 l 0 694 l 521 694 l 521 521 l 434 521 l 434 434 l 347 434 l 347 347 l 260 347 l 260 260 l 174 260 l 174 87 l 521 87 l 521 0 l 0 0 z "},"ž":{"ha":521,"x_min":0,"x_max":434,"o":"m 87 781 l 174 781 l 174 694 l 260 694 l 260 781 l 347 781 l 347 694 l 260 694 l 260 608 l 174 608 l 174 694 l 87 694 l 87 781 m 0 0 l 0 174 l 87 174 l 87 260 l 174 260 l 174 347 l 260 347 l 260 434 l 0 434 l 0 521 l 434 521 l 434 347 l 347 347 l 347 260 l 260 260 l 260 174 l 174 174 l 174 87 l 434 87 l 434 0 l 0 0 z "},"ſ":{"ha":434,"x_min":0,"x_max":347,"o":"m 0 0 l 0 608 l 87 608 l 87 694 l 347 694 l 347 608 l 174 608 l 174 0 l 0 0 z "},"Ș":{"ha":608,"x_min":0,"x_max":521,"o":"m 87 -260 l 87 -174 l 174 -174 l 174 -87 l 347 -87 l 347 -174 l 260 -174 l 260 -260 l 87 -260 m 87 0 l 87 87 l 0 87 l 0 174 l 174 174 l 174 87 l 347 87 l 347 260 l 260 260 l 260 347 l 87 347 l 87 434 l 0 434 l 0 608 l 87 608 l 87 694 l 434 694 l 434 608 l 521 608 l 521 521 l 347 521 l 347 608 l 174 608 l 174 434 l 347 434 l 347 347 l 434 347 l 434 260 l 521 260 l 521 87 l 434 87 l 434 0 l 87 0 z "},"ș":{"ha":521,"x_min":0,"x_max":434,"o":"m 87 -260 l 87 -174 l 174 -174 l 174 -87 l 347 -87 l 347 -174 l 260 -174 l 260 -260 l 87 -260 m 0 87 l 0 174 l 87 174 l 87 87 l 0 87 m 347 347 l 347 434 l 434 434 l 434 347 l 347 347 m 87 0 l 87 87 l 260 87 l 260 174 l 174 174 l 174 260 l 87 260 l 87 347 l 0 347 l 0 434 l 87 434 l 87 521 l 347 521 l 347 434 l 174 434 l 174 347 l 260 347 l 260 260 l 347 260 l 347 174 l 434 174 l 434 87 l 347 87 l 347 0 l 87 0 z "},"Ț":{"ha":608,"x_min":0,"x_max":521,"o":"m 87 -260 l 87 -174 l 174 -174 l 174 -87 l 347 -87 l 347 -174 l 260 -174 l 260 -260 l 87 -260 m 174 0 l 174 608 l 0 608 l 0 694 l 521 694 l 521 608 l 347 608 l 347 0 l 174 0 z "},"ț":{"ha":521,"x_min":0,"x_max":434,"o":"m 87 -260 l 87 -174 l 174 -174 l 174 -87 l 347 -87 l 347 -174 l 260 -174 l 260 -260 l 87 -260 m 174 0 l 174 87 l 87 87 l 87 434 l 0 434 l 0 521 l 87 521 l 87 694 l 260 694 l 260 521 l 434 521 l 434 434 l 260 434 l 260 87 l 434 87 l 434 0 l 174 0 z "},"ȷ":{"ha":347,"x_min":-87,"x_max":260,"o":"m -87 -174 l -87 -87 l 87 -87 l 87 434 l 0 434 l 0 521 l 260 521 l 260 -87 l 174 -87 l 174 -174 l -87 -174 z "},"ʼ":{"ha":260,"x_min":0,"x_max":174,"o":"m 0 434 l 0 521 l 87 521 l 87 694 l 174 694 l 174 521 l 87 521 l 87 434 l 0 434 z "},"˄":{"ha":347,"x_min":0,"x_max":260,"o":"m 260 521 l 174 521 l 174 608 l 87 608 l 87 521 l 0 521 l 0 608 l 87 608 l 87 694 l 174 694 l 174 608 l 260 608 l 260 521 z "},"ˆ":{"ha":434,"x_min":0,"x_max":347,"o":"m 0 521 l 0 608 l 87 608 l 87 694 l 260 694 l 260 608 l 347 608 l 347 521 l 260 521 l 260 608 l 87 608 l 87 521 l 0 521 z "},"ˏ":{"ha":347,"x_min":0,"x_max":260,"o":"m 0 -260 l 0 -174 l 87 -174 l 87 -87 l 260 -87 l 260 -174 l 174 -174 l 174 -260 l 0 -260 z "},"˙":{"ha":260,"x_min":0,"x_max":174,"o":"m 0 608 l 0 694 l 174 694 l 174 608 l 0 608 z "},"˜":{"ha":434,"x_min":0,"x_max":347,"o":"m 0 260 l 0 347 l 87 347 l 87 434 l 174 434 l 174 347 l 87 347 l 87 260 l 0 260 m 174 347 l 260 347 l 260 260 l 174 260 l 174 347 m 260 347 l 260 434 l 347 434 l 347 347 l 260 347 z "},"˝":{"ha":521,"x_min":0,"x_max":434,"o":"m 0 781 l 0 955 l 174 955 l 174 868 l 87 868 l 87 781 l 0 781 m 260 781 l 260 955 l 434 955 l 434 868 l 347 868 l 347 781 l 260 781 z "},"̈":{"ha":0,"x_min":-347,"x_max":-87,"o":"m -347 608 l -347 694 l -260 694 l -260 608 l -347 608 m -174 608 l -174 694 l -87 694 l -87 608 l -174 608 z "},"̨":{"ha":0,"x_min":-260,"x_max":-87,"o":"m -174 0 l -174 -87 l -87 -87 l -87 -174 l -260 -174 l -260 0 l -174 0 z "},"ʹ":{"ha":260,"x_min":0,"x_max":174,"o":"m 0 434 l 0 694 l 174 694 l 174 521 l 87 521 l 87 434 l 0 434 z "},"͵":{"ha":260,"x_min":0,"x_max":174,"o":"m 0 0 l 0 260 l 174 260 l 174 87 l 87 87 l 87 0 l 0 0 z "},"ͺ":{"ha":347,"x_min":0,"x_max":260,"o":"m 87 -260 l 87 -174 l 0 -174 l 0 0 l 174 0 l 174 -174 l 260 -174 l 260 -260 l 87 -260 z "},";":{"ha":260,"x_min":-87,"x_max":174,"o":"m -87 -87 l -87 0 l 0 0 l 0 174 l 174 174 l 174 0 l 87 0 l 87 -87 l -87 -87 m 0 347 l 0 521 l 174 521 l 174 347 l 0 347 z "},"΄":{"ha":347,"x_min":0,"x_max":260,"o":"m 0 521 l 0 608 l 87 608 l 87 694 l 260 694 l 260 608 l 174 608 l 174 521 l 0 521 z "},"΅":{"ha":521,"x_min":0,"x_max":434,"o":"m 0 521 l 0 608 l 87 608 l 87 521 l 0 521 m 347 521 l 347 608 l 434 608 l 434 521 l 347 521 m 174 521 l 174 694 l 260 694 l 260 521 l 174 521 z "},"Ά":{"ha":781,"x_min":0,"x_max":694,"o":"m -1215 694 l -1302 694 l -1302 868 l -1215 868 l -1215 694 z "},"·":{"ha":174,"x_min":0,"x_max":87,"o":"m 0 260 l 0 347 l 87 347 l 87 260 l 0 260 z "},"Έ":{"ha":694,"x_min":0,"x_max":608,"o":"m -1215 694 l -1302 694 l -1302 868 l -1215 868 l -1215 694 z "},"Ή":{"ha":781,"x_min":0,"x_max":694,"o":"m -1215 694 l -1302 694 l -1302 868 l -1215 868 l -1215 694 z "},"Ί":{"ha":608,"x_min":0,"x_max":521,"o":"m -1215 694 l -1302 694 l -1302 868 l -1215 868 l -1215 694 z "},"Ό":{"ha":781,"x_min":0,"x_max":694,"o":"m -1215 694 l -1302 694 l -1302 868 l -1215 868 l -1215 694 z "},"Ύ":{"ha":781,"x_min":0,"x_max":694,"o":"m -1215 694 l -1302 694 l -1302 868 l -1215 868 l -1215 694 z "},"Ώ":{"ha":868,"x_min":0,"x_max":781,"o":"m -1215 694 l -1302 694 l -1302 868 l -1215 868 l -1215 694 m 174 0 l 174 174 l 347 174 l 347 260 l 260 260 l 260 347 l 174 347 l 174 608 l 260 608 l 260 694 l 694 694 l 694 608 l 781 608 l 781 347 l 694 347 l 694 260 l 608 260 l 608 174 l 781 174 l 781 0 l 521 0 l 521 347 l 608 347 l 608 608 l 347 608 l 347 347 l 434 347 l 434 0 l 174 0 z "},"ΐ":{"ha":434,"x_min":0,"x_max":347,"o":"m 87 781 l 87 868 l 174 868 l 174 955 l 347 955 l 347 868 l 260 868 l 260 781 l 87 781 z "},"Α":{"ha":608,"x_min":0,"x_max":521,"o":"m 347 260 l 347 521 l 174 521 l 174 260 l 347 260 m 0 0 l 0 521 l 87 521 l 87 608 l 174 608 l 174 694 l 347 694 l 347 608 l 434 608 l 434 521 l 521 521 l 521 0 l 347 0 l 347 174 l 174 174 l 174 0 l 0 0 z "},"Β":{"ha":608,"x_min":0,"x_max":521,"o":"m 347 87 l 347 347 l 174 347 l 174 87 l 347 87 m 347 434 l 347 608 l 174 608 l 174 434 l 347 434 m 0 0 l 0 694 l 434 694 l 434 608 l 521 608 l 521 434 l 434 434 l 434 347 l 521 347 l 521 87 l 434 87 l 434 0 l 0 0 z "},"Γ":{"ha":521,"x_min":0,"x_max":434,"o":"m 0 0 l 0 694 l 434 694 l 434 608 l 174 608 l 174 0 l 0 0 z "},"Δ":{"ha":608,"x_min":0,"x_max":521,"o":"m 347 87 l 347 347 l 260 347 l 260 521 l 174 521 l 174 87 l 347 87 m 0 0 l 0 347 l 87 347 l 87 608 l 174 608 l 174 694 l 347 694 l 347 608 l 434 608 l 434 347 l 521 347 l 521 0 l 0 0 z "},"Ε":{"ha":521,"x_min":0,"x_max":434,"o":"m 0 0 l 0 694 l 434 694 l 434 608 l 174 608 l 174 434 l 347 434 l 347 347 l 174 347 l 174 87 l 434 87 l 434 0 l 0 0 z "},"Ζ":{"ha":608,"x_min":0,"x_max":521,"o":"m 0 0 l 0 260 l 87 260 l 87 347 l 174 347 l 174 434 l 260 434 l 260 521 l 347 521 l 347 608 l 0 608 l 0 694 l 521 694 l 521 521 l 434 521 l 434 434 l 347 434 l 347 347 l 260 347 l 260 260 l 174 260 l 174 87 l 521 87 l 521 0 l 0 0 z "},"Η":{"ha":608,"x_min":0,"x_max":521,"o":"m 0 0 l 0 694 l 174 694 l 174 434 l 347 434 l 347 694 l 521 694 l 521 0 l 347 0 l 347 347 l 174 347 l 174 0 l 0 0 z "},"Θ":{"ha":694,"x_min":0,"x_max":608,"o":"m 260 434 l 347 434 l 347 347 l 260 347 l 260 434 m 434 87 l 434 347 l 434 608 l 174 608 l 174 87 l 434 87 m 87 0 l 87 87 l 0 87 l 0 608 l 87 608 l 87 694 l 521 694 l 521 608 l 608 608 l 608 87 l 521 87 l 521 0 l 87 0 z "},"Ι":{"ha":434,"x_min":0,"x_max":347,"o":"m 0 0 l 0 87 l 87 87 l 87 608 l 0 608 l 0 694 l 347 694 l 347 608 l 260 608 l 260 87 l 347 87 l 347 0 l 0 0 z "},"Κ":{"ha":608,"x_min":0,"x_max":521,"o":"m 347 0 l 347 347 l 434 347 l 434 260 l 521 260 l 521 0 l 347 0 m 0 0 l 0 694 l 174 694 l 174 434 l 260 434 l 260 521 l 347 521 l 347 694 l 521 694 l 521 521 l 434 521 l 434 434 l 347 434 l 347 347 l 260 347 l 260 260 l 174 260 l 174 0 l 0 0 z "},"Λ":{"ha":608,"x_min":0,"x_max":521,"o":"m 0 0 l 0 347 l 87 347 l 87 608 l 174 608 l 174 694 l 347 694 l 347 608 l 434 608 l 434 347 l 521 347 l 521 0 l 347 0 l 347 347 l 260 347 l 260 521 l 174 521 l 174 0 l 0 0 z "},"Μ":{"ha":694,"x_min":0,"x_max":608,"o":"m 260 174 l 260 347 l 347 347 l 347 174 l 260 174 m 0 0 l 0 694 l 174 694 l 174 521 l 260 521 l 260 347 l 174 347 l 174 0 l 0 0 m 434 0 l 434 347 l 347 347 l 347 521 l 434 521 l 434 694 l 608 694 l 608 0 l 434 0 z "},"Ν":{"ha":608,"x_min":0,"x_max":521,"o":"m 0 0 l 0 694 l 174 694 l 174 521 l 260 521 l 260 347 l 174 347 l 174 0 l 0 0 m 347 0 l 347 174 l 260 174 l 260 347 l 347 347 l 347 694 l 521 694 l 521 0 l 347 0 z "},"Ξ":{"ha":521,"x_min":0,"x_max":434,"o":"m 0 0 l 0 87 l 434 87 l 434 0 l 0 0 m 87 347 l 87 434 l 347 434 l 347 347 l 87 347 m 0 608 l 0 694 l 434 694 l 434 608 l 0 608 z "},"Ο":{"ha":608,"x_min":0,"x_max":521,"o":"m 347 87 l 347 608 l 174 608 l 174 87 l 347 87 m 87 0 l 87 87 l 0 87 l 0 608 l 87 608 l 87 694 l 434 694 l 434 608 l 521 608 l 521 87 l 434 87 l 434 0 l 87 0 z "},"Π":{"ha":608,"x_min":0,"x_max":521,"o":"m 0 0 l 0 694 l 521 694 l 521 0 l 347 0 l 347 608 l 174 608 l 174 0 l 0 0 z "},"Ρ":{"ha":608,"x_min":0,"x_max":521,"o":"m 347 347 l 347 608 l 174 608 l 174 347 l 347 347 m 0 0 l 0 694 l 434 694 l 434 608 l 521 608 l 521 347 l 434 347 l 434 260 l 174 260 l 174 0 l 0 0 z "},"Σ":{"ha":608,"x_min":0,"x_max":521,"o":"m 0 0 l 0 260 l 87 260 l 87 347 l 174 347 l 174 434 l 87 434 l 87 521 l 0 521 l 0 694 l 521 694 l 521 608 l 174 608 l 174 521 l 260 521 l 260 434 l 347 434 l 347 347 l 260 347 l 260 260 l 174 260 l 174 87 l 521 87 l 521 0 l 0 0 z "},"Τ":{"ha":608,"x_min":0,"x_max":521,"o":"m 174 0 l 174 608 l 0 608 l 0 694 l 521 694 l 521 608 l 347 608 l 347 0 l 174 0 z "},"Υ":{"ha":608,"x_min":0,"x_max":521,"o":"m 174 0 l 174 260 l 87 260 l 87 347 l 0 347 l 0 694 l 174 694 l 174 347 l 347 347 l 347 694 l 521 694 l 521 347 l 434 347 l 434 260 l 347 260 l 347 0 l 174 0 z "},"Φ":{"ha":781,"x_min":0,"x_max":694,"o":"m 260 260 l 260 434 l 174 434 l 174 260 l 260 260 m 521 260 l 521 434 l 434 434 l 434 260 l 521 260 m 260 0 l 260 174 l 87 174 l 87 260 l 0 260 l 0 434 l 87 434 l 87 521 l 260 521 l 260 694 l 434 694 l 434 521 l 608 521 l 608 434 l 694 434 l 694 260 l 608 260 l 608 174 l 434 174 l 434 0 l 260 0 z "},"Χ":{"ha":608,"x_min":0,"x_max":521,"o":"m 0 0 l 0 347 l 87 347 l 87 434 l 0 434 l 0 694 l 174 694 l 174 434 l 347 434 l 347 694 l 521 694 l 521 434 l 434 434 l 434 347 l 521 347 l 521 0 l 347 0 l 347 347 l 174 347 l 174 0 l 0 0 z "},"Ψ":{"ha":781,"x_min":0,"x_max":694,"o":"m 260 0 l 260 174 l 87 174 l 87 260 l 0 260 l 0 694 l 174 694 l 174 260 l 260 260 l 260 694 l 434 694 l 434 260 l 521 260 l 521 694 l 694 694 l 694 260 l 608 260 l 608 174 l 434 174 l 434 0 l 260 0 z "},"Ω":{"ha":694,"x_min":0,"x_max":608,"o":"m 0 0 l 0 174 l 174 174 l 174 260 l 87 260 l 87 347 l 0 347 l 0 608 l 87 608 l 87 694 l 521 694 l 521 608 l 608 608 l 608 347 l 521 347 l 521 260 l 434 260 l 434 174 l 608 174 l 608 0 l 347 0 l 347 347 l 434 347 l 434 608 l 174 608 l 174 347 l 260 347 l 260 0 l 0 0 z "},"Ϊ":{"ha":434,"x_min":0,"x_max":347,"o":"m 0 0 l 0 87 l 87 87 l 87 608 l 0 608 l 0 694 l 347 694 l 347 608 l 260 608 l 260 87 l 347 87 l 347 0 l 0 0 m 0 781 l 0 868 l 87 868 l 87 781 l 0 781 m 260 781 l 260 868 l 347 868 l 347 781 l 260 781 z "},"Ϋ":{"ha":608,"x_min":0,"x_max":521,"o":"m 174 0 l 174 260 l 87 260 l 87 347 l 0 347 l 0 694 l 174 694 l 174 347 l 347 347 l 347 694 l 521 694 l 521 347 l 434 347 l 434 260 l 347 260 l 347 0 l 174 0 m 87 781 l 87 868 l 174 868 l 174 781 l 87 781 m 347 781 l 347 868 l 434 868 l 434 781 l 347 781 z "},"ά":{"ha":608,"x_min":0,"x_max":521,"o":"m 174 608 l 174 694 l 260 694 l 260 781 l 434 781 l 434 694 l 347 694 l 347 608 l 174 608 m 87 0 l 87 87 l 0 87 l 0 434 l 87 434 l 87 521 l 347 521 l 347 434 l 174 434 l 174 87 l 347 87 l 347 0 l 87 0 m 434 0 l 434 87 l 347 87 l 347 434 l 434 434 l 434 521 l 521 521 l 521 0 l 434 0 z "},"έ":{"ha":521,"x_min":0,"x_max":434,"o":"m 87 608 l 87 694 l 174 694 l 174 781 l 347 781 l 347 694 l 260 694 l 260 608 l 87 608 m 347 87 l 347 174 l 434 174 l 434 87 l 347 87 m 347 347 l 347 434 l 434 434 l 434 347 l 347 347 m 87 0 l 87 87 l 0 87 l 0 260 l 87 260 l 87 347 l 0 347 l 0 434 l 87 434 l 87 521 l 347 521 l 347 434 l 174 434 l 174 347 l 260 347 l 260 260 l 174 260 l 174 87 l 347 87 l 347 0 l 87 0 z "},"ή":{"ha":608,"x_min":0,"x_max":521,"o":"m 174 608 l 174 694 l 260 694 l 260 781 l 434 781 l 434 694 l 347 694 l 347 608 l 174 608 m 0 0 l 0 521 l 174 521 l 174 434 l 260 434 l 260 347 l 174 347 l 174 0 l 0 0 m 347 -174 l 347 434 l 260 434 l 260 521 l 434 521 l 434 434 l 521 434 l 521 -174 l 347 -174 z "},"ί":{"ha":347,"x_min":0,"x_max":260,"o":"m 0 608 l 0 694 l 87 694 l 87 781 l 260 781 l 260 694 l 174 694 l 174 608 l 0 608 m 87 0 l 87 87 l 0 87 l 0 521 l 174 521 l 174 87 l 260 87 l 260 0 l 87 0 z "},"ΰ":{"ha":608,"x_min":0,"x_max":521,"o":"m 174 781 l 174 868 l 260 868 l 260 955 l 434 955 l 434 868 l 347 868 l 347 781 l 174 781 z "},"α":{"ha":608,"x_min":0,"x_max":521,"o":"m 87 0 l 87 87 l 0 87 l 0 434 l 87 434 l 87 521 l 347 521 l 347 434 l 174 434 l 174 87 l 347 87 l 347 0 l 87 0 m 434 0 l 434 87 l 347 87 l 347 434 l 434 434 l 434 521 l 521 521 l 521 0 l 434 0 z "},"β":{"ha":608,"x_min":0,"x_max":521,"o":"m 0 -174 l 0 608 l 87 608 l 87 694 l 434 694 l 434 608 l 521 608 l 521 434 l 434 434 l 434 347 l 521 347 l 521 87 l 434 87 l 434 0 l 260 0 l 260 87 l 347 87 l 347 347 l 260 347 l 260 434 l 347 434 l 347 608 l 174 608 l 174 -87 l 87 -87 l 87 -174 l 0 -174 z "},"γ":{"ha":608,"x_min":0,"x_max":521,"o":"m 174 -174 l 174 87 l 87 87 l 87 260 l 0 260 l 0 521 l 174 521 l 174 260 l 260 260 l 260 87 l 347 87 l 347 -174 l 174 -174 m 347 87 l 347 521 l 521 521 l 521 260 l 434 260 l 434 87 l 347 87 z "},"δ":{"ha":608,"x_min":0,"x_max":521,"o":"m 87 0 l 87 87 l 0 87 l 0 347 l 87 347 l 87 434 l 174 434 l 174 87 l 347 87 l 347 347 l 260 347 l 260 434 l 174 434 l 174 521 l 87 521 l 87 608 l 174 608 l 174 694 l 434 694 l 434 608 l 260 608 l 260 521 l 347 521 l 347 434 l 434 434 l 434 347 l 521 347 l 521 87 l 434 87 l 434 0 l 87 0 z "},"ε":{"ha":521,"x_min":0,"x_max":434,"o":"m 347 87 l 347 174 l 434 174 l 434 87 l 347 87 m 347 347 l 347 434 l 434 434 l 434 347 l 347 347 m 87 0 l 87 87 l 0 87 l 0 260 l 87 260 l 87 347 l 0 347 l 0 434 l 87 434 l 87 521 l 347 521 l 347 434 l 174 434 l 174 347 l 260 347 l 260 260 l 174 260 l 174 87 l 347 87 l 347 0 l 87 0 z "},"ζ":{"ha":608,"x_min":0,"x_max":521,"o":"m 260 -174 l 260 -87 l 347 -87 l 347 0 l 87 0 l 87 87 l 0 87 l 0 347 l 87 347 l 87 434 l 174 434 l 174 521 l 347 521 l 347 608 l 0 608 l 0 694 l 521 694 l 521 521 l 434 521 l 434 434 l 260 434 l 260 347 l 174 347 l 174 87 l 434 87 l 434 0 l 521 0 l 521 -87 l 434 -87 l 434 -174 l 260 -174 z "},"η":{"ha":608,"x_min":0,"x_max":521,"o":"m 0 0 l 0 521 l 174 521 l 174 434 l 260 434 l 260 347 l 174 347 l 174 0 l 0 0 m 347 -174 l 347 434 l 260 434 l 260 521 l 434 521 l 434 434 l 521 434 l 521 -174 l 347 -174 z "},"θ":{"ha":608,"x_min":0,"x_max":521,"o":"m 347 87 l 347 347 l 174 347 l 174 87 l 347 87 m 347 434 l 347 608 l 174 608 l 174 434 l 347 434 m 87 0 l 87 87 l 0 87 l 0 608 l 87 608 l 87 694 l 434 694 l 434 608 l 521 608 l 521 87 l 434 87 l 434 0 l 87 0 z "},"ι":{"ha":347,"x_min":0,"x_max":260,"o":"m 87 0 l 87 87 l 0 87 l 0 521 l 174 521 l 174 87 l 260 87 l 260 0 l 87 0 z "},"κ":{"ha":608,"x_min":0,"x_max":521,"o":"m 347 0 l 347 260 l 434 260 l 434 174 l 521 174 l 521 0 l 347 0 m 0 0 l 0 521 l 174 521 l 174 260 l 260 260 l 260 174 l 174 174 l 174 0 l 0 0 m 260 260 l 260 434 l 347 434 l 347 521 l 521 521 l 521 434 l 434 434 l 434 347 l 347 347 l 347 260 l 260 260 z "},"λ":{"ha":608,"x_min":0,"x_max":521,"o":"m 0 0 l 0 174 l 87 174 l 87 347 l 174 347 l 174 0 l 0 0 m 347 0 l 347 174 l 260 174 l 260 347 l 174 347 l 174 521 l 87 521 l 87 694 l 260 694 l 260 521 l 347 521 l 347 347 l 434 347 l 434 174 l 521 174 l 521 0 l 347 0 z "},"μ":{"ha":608,"x_min":0,"x_max":521,"o":"m 260 0 l 260 87 l 347 87 l 347 0 l 260 0 m 0 -174 l 0 521 l 174 521 l 174 174 l 260 174 l 260 87 l 174 87 l 174 -174 l 0 -174 m 434 0 l 434 87 l 347 87 l 347 521 l 521 521 l 521 0 l 434 0 z "},"ν":{"ha":608,"x_min":0,"x_max":521,"o":"m 174 0 l 174 87 l 87 87 l 87 260 l 0 260 l 0 521 l 174 521 l 174 260 l 260 260 l 260 174 l 347 174 l 347 521 l 521 521 l 521 260 l 434 260 l 434 87 l 347 87 l 347 0 l 174 0 z "},"ξ":{"ha":608,"x_min":0,"x_max":521,"o":"m 260 -174 l 260 -87 l 347 -87 l 347 0 l 87 0 l 87 87 l 0 87 l 0 347 l 87 347 l 87 434 l 0 434 l 0 694 l 521 694 l 521 608 l 174 608 l 174 434 l 434 434 l 434 347 l 174 347 l 174 87 l 434 87 l 434 0 l 521 0 l 521 -87 l 434 -87 l 434 -174 l 260 -174 z "},"ο":{"ha":608,"x_min":0,"x_max":521,"o":"m 347 87 l 347 434 l 174 434 l 174 87 l 347 87 m 87 0 l 87 87 l 0 87 l 0 434 l 87 434 l 87 521 l 434 521 l 434 434 l 521 434 l 521 87 l 434 87 l 434 0 l 87 0 z "},"π":{"ha":608,"x_min":0,"x_max":521,"o":"m 0 0 l 0 521 l 521 521 l 521 0 l 347 0 l 347 434 l 174 434 l 174 0 l 0 0 z "},"ρ":{"ha":608,"x_min":0,"x_max":521,"o":"m 347 87 l 347 434 l 174 434 l 174 87 l 347 87 m 0 -174 l 0 434 l 87 434 l 87 521 l 434 521 l 434 434 l 521 434 l 521 87 l 434 87 l 434 0 l 174 0 l 174 -174 l 0 -174 z "},"ς":{"ha":608,"x_min":0,"x_max":521,"o":"m 260 -174 l 260 -87 l 347 -87 l 347 0 l 87 0 l 87 87 l 0 87 l 0 434 l 87 434 l 87 521 l 521 521 l 521 434 l 174 434 l 174 87 l 434 87 l 434 0 l 521 0 l 521 -87 l 434 -87 l 434 -174 l 260 -174 z "},"σ":{"ha":608,"x_min":0,"x_max":521,"o":"m 347 87 l 347 347 l 260 347 l 260 434 l 174 434 l 174 87 l 347 87 m 87 0 l 87 87 l 0 87 l 0 434 l 87 434 l 87 521 l 521 521 l 521 434 l 434 434 l 434 347 l 521 347 l 521 87 l 434 87 l 434 0 l 87 0 z "},"τ":{"ha":608,"x_min":0,"x_max":521,"o":"m 260 0 l 260 87 l 174 87 l 174 434 l 0 434 l 0 521 l 521 521 l 521 434 l 347 434 l 347 87 l 434 87 l 434 0 l 260 0 z "},"υ":{"ha":608,"x_min":0,"x_max":521,"o":"m 87 0 l 87 87 l 0 87 l 0 521 l 174 521 l 174 87 l 347 87 l 347 434 l 260 434 l 260 521 l 434 521 l 434 434 l 521 434 l 521 87 l 434 87 l 434 0 l 87 0 z "},"φ":{"ha":781,"x_min":0,"x_max":694,"o":"m 260 87 l 260 434 l 174 434 l 174 87 l 260 87 m 521 87 l 521 434 l 434 434 l 434 87 l 521 87 m 260 -174 l 260 0 l 87 0 l 87 87 l 0 87 l 0 434 l 87 434 l 87 521 l 260 521 l 260 694 l 434 694 l 434 521 l 608 521 l 608 434 l 694 434 l 694 87 l 608 87 l 608 0 l 434 0 l 434 -174 l 260 -174 z "},"χ":{"ha":608,"x_min":0,"x_max":521,"o":"m 0 -174 l 0 0 l 87 0 l 87 87 l 174 87 l 174 -174 l 0 -174 m 347 -174 l 347 0 l 260 0 l 260 87 l 174 87 l 174 174 l 87 174 l 87 347 l 0 347 l 0 521 l 174 521 l 174 347 l 260 347 l 260 260 l 347 260 l 347 174 l 434 174 l 434 0 l 521 0 l 521 -174 l 347 -174 m 347 260 l 347 521 l 521 521 l 521 347 l 434 347 l 434 260 l 347 260 z "},"ψ":{"ha":781,"x_min":0,"x_max":694,"o":"m 260 -174 l 260 0 l 87 0 l 87 87 l 0 87 l 0 521 l 174 521 l 174 87 l 260 87 l 260 694 l 434 694 l 434 87 l 521 87 l 521 521 l 694 521 l 694 87 l 608 87 l 608 0 l 434 0 l 434 -174 l 260 -174 z "},"ω":{"ha":781,"x_min":0,"x_max":694,"o":"m 87 0 l 87 87 l 0 87 l 0 434 l 87 434 l 87 521 l 260 521 l 260 434 l 174 434 l 174 87 l 260 87 l 260 0 l 87 0 m 347 0 l 347 87 l 260 87 l 260 347 l 434 347 l 434 87 l 521 87 l 521 434 l 434 434 l 434 521 l 608 521 l 608 434 l 694 434 l 694 87 l 608 87 l 608 0 l 347 0 z "},"ϊ":{"ha":434,"x_min":0,"x_max":347,"o":"m 0 608 l 0 694 l 87 694 l 87 608 l 0 608 m 260 608 l 260 694 l 347 694 l 347 608 l 260 608 m 174 0 l 174 87 l 87 87 l 87 521 l 260 521 l 260 87 l 347 87 l 347 0 l 174 0 z "},"ϋ":{"ha":608,"x_min":0,"x_max":521,"o":"m 87 608 l 87 694 l 174 694 l 174 608 l 87 608 m 347 608 l 347 694 l 434 694 l 434 608 l 347 608 m 87 0 l 87 87 l 0 87 l 0 521 l 174 521 l 174 87 l 347 87 l 347 434 l 260 434 l 260 521 l 434 521 l 434 434 l 521 434 l 521 87 l 434 87 l 434 0 l 87 0 z "},"ό":{"ha":608,"x_min":0,"x_max":521,"o":"m 174 608 l 174 694 l 260 694 l 260 781 l 434 781 l 434 694 l 347 694 l 347 608 l 174 608 m 347 87 l 347 434 l 174 434 l 174 87 l 347 87 m 87 0 l 87 87 l 0 87 l 0 434 l 87 434 l 87 521 l 434 521 l 434 434 l 521 434 l 521 87 l 434 87 l 434 0 l 87 0 z "},"ύ":{"ha":608,"x_min":0,"x_max":521,"o":"m 174 608 l 174 694 l 260 694 l 260 781 l 434 781 l 434 694 l 347 694 l 347 608 l 174 608 m 87 0 l 87 87 l 0 87 l 0 521 l 174 521 l 174 87 l 347 87 l 347 434 l 260 434 l 260 521 l 434 521 l 434 434 l 521 434 l 521 87 l 434 87 l 434 0 l 87 0 z "},"ώ":{"ha":781,"x_min":0,"x_max":694,"o":"m 260 608 l 260 694 l 347 694 l 347 781 l 521 781 l 521 694 l 434 694 l 434 608 l 260 608 m 87 0 l 87 87 l 0 87 l 0 434 l 87 434 l 87 521 l 260 521 l 260 434 l 174 434 l 174 87 l 260 87 l 260 0 l 87 0 m 347 0 l 347 87 l 260 87 l 260 347 l 434 347 l 434 87 l 521 87 l 521 434 l 434 434 l 434 521 l 608 521 l 608 434 l 694 434 l 694 87 l 608 87 l 608 0 l 347 0 z "},"Ѐ":{"ha":521,"x_min":0,"x_max":434,"o":"m 174 781 l 174 868 l 87 868 l 87 955 l 260 955 l 260 868 l 347 868 l 347 781 l 174 781 m 0 0 l 0 694 l 434 694 l 434 608 l 174 608 l 174 434 l 347 434 l 347 347 l 174 347 l 174 87 l 434 87 l 434 0 l 0 0 z "},"Ё":{"ha":521,"x_min":0,"x_max":434,"o":"m 87 781 l 87 868 l 174 868 l 174 781 l 87 781 m 260 781 l 260 868 l 347 868 l 347 781 l 260 781 m 0 0 l 0 694 l 434 694 l 434 608 l 174 608 l 174 434 l 347 434 l 347 347 l 174 347 l 174 87 l 434 87 l 434 0 l 0 0 z "},"Ђ":{"ha":694,"x_min":0,"x_max":608,"o":"m 87 0 l 87 608 l 0 608 l 0 694 l 434 694 l 434 608 l 260 608 l 260 434 l 521 434 l 521 347 l 608 347 l 608 87 l 521 87 l 521 0 l 347 0 l 347 87 l 434 87 l 434 347 l 260 347 l 260 0 l 87 0 z "},"Ѓ":{"ha":521,"x_min":0,"x_max":434,"o":"m 87 781 l 87 868 l 174 868 l 174 955 l 347 955 l 347 868 l 260 868 l 260 781 l 87 781 m 0 0 l 0 694 l 434 694 l 434 608 l 174 608 l 174 0 l 0 0 z "},"Є":{"ha":608,"x_min":0,"x_max":521,"o":"m 87 0 l 87 87 l 0 87 l 0 608 l 87 608 l 87 694 l 434 694 l 434 608 l 521 608 l 521 521 l 347 521 l 347 608 l 174 608 l 174 434 l 347 434 l 347 347 l 174 347 l 174 87 l 347 87 l 347 174 l 521 174 l 521 87 l 434 87 l 434 0 l 87 0 z "},"Ѕ":{"ha":608,"x_min":0,"x_max":521,"o":"m 87 0 l 87 87 l 0 87 l 0 174 l 174 174 l 174 87 l 347 87 l 347 260 l 260 260 l 260 347 l 87 347 l 87 434 l 0 434 l 0 608 l 87 608 l 87 694 l 434 694 l 434 608 l 521 608 l 521 521 l 347 521 l 347 608 l 174 608 l 174 434 l 347 434 l 347 347 l 434 347 l 434 260 l 521 260 l 521 87 l 434 87 l 434 0 l 87 0 z "},"І":{"ha":434,"x_min":0,"x_max":347,"o":"m 0 0 l 0 87 l 87 87 l 87 608 l 0 608 l 0 694 l 347 694 l 347 608 l 260 608 l 260 87 l 347 87 l 347 0 l 0 0 z "},"Ї":{"ha":434,"x_min":0,"x_max":347,"o":"m 0 781 l 0 868 l 87 868 l 87 781 l 0 781 m 260 781 l 260 868 l 347 868 l 347 781 l 260 781 m 0 0 l 0 87 l 87 87 l 87 608 l 0 608 l 0 694 l 347 694 l 347 608 l 260 608 l 260 87 l 347 87 l 347 0 l 0 0 z "},"Ј":{"ha":347,"x_min":-87,"x_max":260,"o":"m -87 -174 l -87 -87 l 87 -87 l 87 608 l 0 608 l 0 694 l 260 694 l 260 -87 l 174 -87 l 174 -174 l -87 -174 z "},"Љ":{"ha":1042,"x_min":0,"x_max":955,"o":"m 781 87 l 781 347 l 608 347 l 608 87 l 781 87 m 0 0 l 0 87 l 87 87 l 87 694 l 608 694 l 608 434 l 868 434 l 868 347 l 955 347 l 955 87 l 868 87 l 868 0 l 434 0 l 434 608 l 260 608 l 260 87 l 174 87 l 174 0 l 0 0 z "},"Њ":{"ha":955,"x_min":0,"x_max":868,"o":"m 694 87 l 694 347 l 521 347 l 521 87 l 694 87 m 0 0 l 0 694 l 174 694 l 174 434 l 347 434 l 347 694 l 521 694 l 521 434 l 781 434 l 781 347 l 868 347 l 868 87 l 781 87 l 781 0 l 347 0 l 347 347 l 174 347 l 174 0 l 0 0 z "},"Ћ":{"ha":694,"x_min":0,"x_max":608,"o":"m 87 0 l 87 608 l 0 608 l 0 694 l 434 694 l 434 608 l 260 608 l 260 434 l 521 434 l 521 347 l 608 347 l 608 0 l 434 0 l 434 347 l 260 347 l 260 0 l 87 0 z "},"Ќ":{"ha":608,"x_min":0,"x_max":521,"o":"m 174 781 l 174 868 l 260 868 l 260 955 l 434 955 l 434 868 l 347 868 l 347 781 l 174 781 z "},"Ѝ":{"ha":608,"x_min":0,"x_max":521,"o":"m 174 781 l 174 868 l 87 868 l 87 955 l 260 955 l 260 868 l 347 868 l 347 781 l 174 781 m 0 0 l 0 694 l 174 694 l 174 347 l 260 347 l 260 174 l 174 174 l 174 0 l 0 0 m 347 0 l 347 347 l 260 347 l 260 521 l 347 521 l 347 694 l 521 694 l 521 0 l 347 0 z "},"Ў":{"ha":608,"x_min":0,"x_max":521,"o":"m 0 0 l 0 87 l 174 87 l 174 260 l 87 260 l 87 434 l 0 434 l 0 694 l 174 694 l 174 434 l 260 434 l 260 347 l 347 347 l 347 694 l 521 694 l 521 434 l 434 434 l 434 260 l 347 260 l 347 87 l 260 87 l 260 0 l 0 0 m 87 781 l 87 868 l 434 868 l 434 781 l 87 781 z "},"Џ":{"ha":608,"x_min":0,"x_max":521,"o":"m 174 -174 l 174 0 l 0 0 l 0 694 l 174 694 l 174 87 l 347 87 l 347 694 l 521 694 l 521 0 l 347 0 l 347 -174 l 174 -174 z "},"А":{"ha":608,"x_min":0,"x_max":521,"o":"m 347 260 l 347 521 l 174 521 l 174 260 l 347 260 m 0 0 l 0 521 l 87 521 l 87 608 l 174 608 l 174 694 l 347 694 l 347 608 l 434 608 l 434 521 l 521 521 l 521 0 l 347 0 l 347 174 l 174 174 l 174 0 l 0 0 z "},"Б":{"ha":608,"x_min":0,"x_max":521,"o":"m 347 87 l 347 347 l 174 347 l 174 87 l 347 87 m 0 0 l 0 694 l 521 694 l 521 608 l 174 608 l 174 434 l 434 434 l 434 347 l 521 347 l 521 87 l 434 87 l 434 0 l 0 0 z "},"В":{"ha":608,"x_min":0,"x_max":521,"o":"m 347 87 l 347 347 l 174 347 l 174 87 l 347 87 m 347 434 l 347 608 l 174 608 l 174 434 l 347 434 m 0 0 l 0 694 l 434 694 l 434 608 l 521 608 l 521 434 l 434 434 l 434 347 l 521 347 l 521 87 l 434 87 l 434 0 l 0 0 z "},"Г":{"ha":521,"x_min":0,"x_max":434,"o":"m 0 0 l 0 694 l 434 694 l 434 608 l 174 608 l 174 0 l 0 0 z "},"Д":{"ha":608,"x_min":0,"x_max":521,"o":"m 347 87 l 347 608 l 260 608 l 260 260 l 174 260 l 174 87 l 347 87 m 0 -174 l 0 260 l 87 260 l 87 694 l 521 694 l 521 -174 l 434 -174 l 434 0 l 87 0 l 87 -174 l 0 -174 z "},"Е":{"ha":521,"x_min":0,"x_max":434,"o":"m 0 0 l 0 694 l 434 694 l 434 608 l 174 608 l 174 434 l 347 434 l 347 347 l 174 347 l 174 87 l 434 87 l 434 0 l 0 0 z "},"Ж":{"ha":781,"x_min":0,"x_max":694,"o":"m 0 0 l 0 347 l 87 347 l 87 434 l 0 434 l 0 694 l 174 694 l 174 434 l 260 434 l 260 694 l 434 694 l 434 434 l 521 434 l 521 694 l 694 694 l 694 434 l 608 434 l 608 347 l 694 347 l 694 0 l 521 0 l 521 347 l 434 347 l 434 0 l 260 0 l 260 347 l 174 347 l 174 0 l 0 0 z "},"З":{"ha":608,"x_min":0,"x_max":521,"o":"m 87 0 l 87 87 l 0 87 l 0 174 l 174 174 l 174 87 l 347 87 l 347 347 l 174 347 l 174 434 l 347 434 l 347 608 l 174 608 l 174 521 l 0 521 l 0 608 l 87 608 l 87 694 l 434 694 l 434 608 l 521 608 l 521 434 l 434 434 l 434 347 l 521 347 l 521 87 l 434 87 l 434 0 l 87 0 z "},"И":{"ha":608,"x_min":0,"x_max":521,"o":"m 0 0 l 0 694 l 174 694 l 174 347 l 260 347 l 260 174 l 174 174 l 174 0 l 0 0 m 347 0 l 347 347 l 260 347 l 260 521 l 347 521 l 347 694 l 521 694 l 521 0 l 347 0 z "},"Й":{"ha":608,"x_min":0,"x_max":521,"o":"m 87 781 l 87 868 l 434 868 l 434 781 l 87 781 m 0 0 l 0 694 l 174 694 l 174 347 l 260 347 l 260 174 l 174 174 l 174 0 l 0 0 m 347 0 l 347 347 l 260 347 l 260 521 l 347 521 l 347 694 l 521 694 l 521 0 l 347 0 z "},"К":{"ha":608,"x_min":0,"x_max":521,"o":"m 347 0 l 347 347 l 434 347 l 434 260 l 521 260 l 521 0 l 347 0 m 0 0 l 0 694 l 174 694 l 174 434 l 260 434 l 260 521 l 347 521 l 347 694 l 521 694 l 521 521 l 434 521 l 434 434 l 347 434 l 347 347 l 260 347 l 260 260 l 174 260 l 174 0 l 0 0 z "},"Л":{"ha":694,"x_min":0,"x_max":608,"o":"m 0 0 l 0 87 l 87 87 l 87 694 l 608 694 l 608 0 l 434 0 l 434 608 l 260 608 l 260 87 l 174 87 l 174 0 l 0 0 z "},"М":{"ha":694,"x_min":0,"x_max":608,"o":"m 260 174 l 260 347 l 347 347 l 347 174 l 260 174 m 0 0 l 0 694 l 174 694 l 174 521 l 260 521 l 260 347 l 174 347 l 174 0 l 0 0 m 434 0 l 434 347 l 347 347 l 347 521 l 434 521 l 434 694 l 608 694 l 608 0 l 434 0 z "},"Н":{"ha":608,"x_min":0,"x_max":521,"o":"m 0 0 l 0 694 l 174 694 l 174 434 l 347 434 l 347 694 l 521 694 l 521 0 l 347 0 l 347 347 l 174 347 l 174 0 l 0 0 z "},"О":{"ha":608,"x_min":0,"x_max":521,"o":"m 347 87 l 347 608 l 174 608 l 174 87 l 347 87 m 87 0 l 87 87 l 0 87 l 0 608 l 87 608 l 87 694 l 434 694 l 434 608 l 521 608 l 521 87 l 434 87 l 434 0 l 87 0 z "},"П":{"ha":608,"x_min":0,"x_max":521,"o":"m 0 0 l 0 694 l 521 694 l 521 0 l 347 0 l 347 608 l 174 608 l 174 0 l 0 0 z "},"Р":{"ha":608,"x_min":0,"x_max":521,"o":"m 347 347 l 347 608 l 174 608 l 174 347 l 347 347 m 0 0 l 0 694 l 434 694 l 434 608 l 521 608 l 521 347 l 434 347 l 434 260 l 174 260 l 174 0 l 0 0 z "},"С":{"ha":608,"x_min":0,"x_max":521,"o":"m 87 0 l 87 87 l 0 87 l 0 608 l 87 608 l 87 694 l 434 694 l 434 608 l 521 608 l 521 434 l 347 434 l 347 608 l 174 608 l 174 87 l 347 87 l 347 260 l 521 260 l 521 87 l 434 87 l 434 0 l 87 0 z "},"Т":{"ha":608,"x_min":0,"x_max":521,"o":"m 174 0 l 174 608 l 0 608 l 0 694 l 521 694 l 521 608 l 347 608 l 347 0 l 174 0 z "},"У":{"ha":608,"x_min":0,"x_max":521,"o":"m 0 0 l 0 87 l 174 87 l 174 260 l 87 260 l 87 434 l 0 434 l 0 694 l 174 694 l 174 434 l 260 434 l 260 347 l 347 347 l 347 694 l 521 694 l 521 434 l 434 434 l 434 260 l 347 260 l 347 87 l 260 87 l 260 0 l 0 0 z "},"Ф":{"ha":781,"x_min":0,"x_max":694,"o":"m 260 174 l 260 521 l 174 521 l 174 174 l 260 174 m 521 174 l 521 521 l 434 521 l 434 174 l 521 174 m 260 0 l 260 87 l 87 87 l 87 174 l 0 174 l 0 521 l 87 521 l 87 608 l 260 608 l 260 694 l 434 694 l 434 608 l 608 608 l 608 521 l 694 521 l 694 174 l 608 174 l 608 87 l 434 87 l 434 0 l 260 0 z "},"Х":{"ha":608,"x_min":0,"x_max":521,"o":"m 0 0 l 0 347 l 87 347 l 87 434 l 0 434 l 0 694 l 174 694 l 174 434 l 347 434 l 347 694 l 521 694 l 521 434 l 434 434 l 434 347 l 521 347 l 521 0 l 347 0 l 347 347 l 174 347 l 174 0 l 0 0 z "},"Ц":{"ha":608,"x_min":0,"x_max":521,"o":"m 434 -174 l 434 0 l 0 0 l 0 694 l 174 694 l 174 87 l 347 87 l 347 694 l 521 694 l 521 -174 l 434 -174 z "},"Ч":{"ha":608,"x_min":0,"x_max":521,"o":"m 347 0 l 347 260 l 87 260 l 87 347 l 0 347 l 0 694 l 174 694 l 174 347 l 347 347 l 347 694 l 521 694 l 521 0 l 347 0 z "},"Ш":{"ha":781,"x_min":0,"x_max":694,"o":"m 0 0 l 0 694 l 174 694 l 174 87 l 260 87 l 260 694 l 434 694 l 434 87 l 521 87 l 521 694 l 694 694 l 694 0 l 0 0 z "},"Щ":{"ha":781,"x_min":0,"x_max":694,"o":"m 608 -174 l 608 0 l 0 0 l 0 694 l 174 694 l 174 87 l 260 87 l 260 694 l 434 694 l 434 87 l 521 87 l 521 694 l 694 694 l 694 -174 l 608 -174 z "},"Ъ":{"ha":694,"x_min":0,"x_max":608,"o":"m 434 87 l 434 347 l 260 347 l 260 87 l 434 87 m 87 0 l 87 608 l 0 608 l 0 694 l 260 694 l 260 434 l 521 434 l 521 347 l 608 347 l 608 87 l 521 87 l 521 0 l 87 0 z "},"Ы":{"ha":781,"x_min":0,"x_max":694,"o":"m 260 87 l 260 347 l 174 347 l 174 87 l 260 87 m 0 0 l 0 694 l 174 694 l 174 434 l 347 434 l 347 347 l 434 347 l 434 87 l 347 87 l 347 0 l 0 0 m 521 0 l 521 694 l 694 694 l 694 0 l 521 0 z "},"Ь":{"ha":608,"x_min":0,"x_max":521,"o":"m 347 87 l 347 347 l 174 347 l 174 87 l 347 87 m 0 0 l 0 694 l 174 694 l 174 434 l 434 434 l 434 347 l 521 347 l 521 87 l 434 87 l 434 0 l 0 0 z "},"Э":{"ha":608,"x_min":0,"x_max":521,"o":"m 87 0 l 87 87 l 0 87 l 0 174 l 174 174 l 174 87 l 347 87 l 347 347 l 87 347 l 87 434 l 347 434 l 347 608 l 174 608 l 174 521 l 0 521 l 0 608 l 87 608 l 87 694 l 434 694 l 434 608 l 521 608 l 521 87 l 434 87 l 434 0 l 87 0 z "},"Ю":{"ha":781,"x_min":0,"x_max":694,"o":"m 521 87 l 521 608 l 434 608 l 434 87 l 521 87 m 0 0 l 0 694 l 174 694 l 174 434 l 260 434 l 260 608 l 347 608 l 347 694 l 608 694 l 608 608 l 694 608 l 694 87 l 608 87 l 608 0 l 347 0 l 347 87 l 260 87 l 260 347 l 174 347 l 174 0 l 0 0 z "},"Я":{"ha":608,"x_min":0,"x_max":521,"o":"m 0 0 l 0 174 l 87 174 l 87 260 l 174 260 l 174 347 l 347 347 l 347 608 l 174 608 l 174 347 l 87 347 l 87 434 l 0 434 l 0 608 l 87 608 l 87 694 l 521 694 l 521 0 l 347 0 l 347 260 l 260 260 l 260 174 l 174 174 l 174 0 l 0 0 z "},"а":{"ha":608,"x_min":0,"x_max":521,"o":"m 87 0 l 87 87 l 0 87 l 0 260 l 87 260 l 87 347 l 347 347 l 347 434 l 87 434 l 87 521 l 434 521 l 434 434 l 521 434 l 521 0 l 434 0 l 434 87 l 347 87 l 347 260 l 174 260 l 174 87 l 347 87 l 347 0 l 87 0 z "},"б":{"ha":608,"x_min":0,"x_max":521,"o":"m 87 0 l 87 87 l 0 87 l 0 608 l 87 608 l 87 694 l 521 694 l 521 608 l 174 608 l 174 434 l 260 434 l 260 347 l 174 347 l 174 87 l 347 87 l 347 434 l 260 434 l 260 521 l 434 521 l 434 434 l 521 434 l 521 87 l 434 87 l 434 0 l 87 0 z "},"в":{"ha":608,"x_min":0,"x_max":521,"o":"m 347 87 l 347 260 l 174 260 l 174 87 l 347 87 m 347 347 l 347 434 l 174 434 l 174 347 l 347 347 m 0 0 l 0 521 l 434 521 l 434 434 l 521 434 l 521 347 l 434 347 l 434 260 l 521 260 l 521 87 l 434 87 l 434 0 l 0 0 z "},"г":{"ha":434,"x_min":0,"x_max":347,"o":"m 0 0 l 0 521 l 347 521 l 347 434 l 174 434 l 174 0 l 0 0 z "},"д":{"ha":608,"x_min":0,"x_max":521,"o":"m 347 87 l 347 434 l 260 434 l 260 260 l 174 260 l 174 87 l 347 87 m 0 -174 l 0 260 l 87 260 l 87 521 l 521 521 l 521 -174 l 434 -174 l 434 0 l 87 0 l 87 -174 l 0 -174 z "},"е":{"ha":608,"x_min":0,"x_max":521,"o":"m 347 347 l 347 434 l 174 434 l 174 347 l 347 347 m 87 0 l 87 87 l 0 87 l 0 434 l 87 434 l 87 521 l 434 521 l 434 434 l 521 434 l 521 260 l 174 260 l 174 87 l 347 87 l 347 174 l 521 174 l 521 87 l 434 87 l 434 0 l 87 0 z "},"ж":{"ha":781,"x_min":0,"x_max":694,"o":"m 0 0 l 0 260 l 87 260 l 87 347 l 0 347 l 0 521 l 174 521 l 174 347 l 260 347 l 260 521 l 434 521 l 434 347 l 521 347 l 521 521 l 694 521 l 694 347 l 608 347 l 608 260 l 694 260 l 694 0 l 521 0 l 521 260 l 434 260 l 434 0 l 260 0 l 260 260 l 174 260 l 174 0 l 0 0 z "},"з":{"ha":521,"x_min":0,"x_max":434,"o":"m 0 0 l 0 87 l 260 87 l 260 260 l 87 260 l 87 347 l 260 347 l 260 434 l 0 434 l 0 521 l 347 521 l 347 434 l 434 434 l 434 347 l 347 347 l 347 260 l 434 260 l 434 87 l 347 87 l 347 0 l 0 0 z "},"и":{"ha":608,"x_min":0,"x_max":521,"o":"m 0 0 l 0 521 l 174 521 l 174 260 l 260 260 l 260 87 l 174 87 l 174 0 l 0 0 m 347 0 l 347 260 l 260 260 l 260 434 l 347 434 l 347 521 l 521 521 l 521 0 l 347 0 z "},"й":{"ha":608,"x_min":0,"x_max":521,"o":"m 87 608 l 87 694 l 434 694 l 434 608 l 87 608 m 0 0 l 0 521 l 174 521 l 174 260 l 260 260 l 260 87 l 174 87 l 174 0 l 0 0 m 347 0 l 347 260 l 260 260 l 260 434 l 347 434 l 347 521 l 521 521 l 521 0 l 347 0 z "},"к":{"ha":608,"x_min":0,"x_max":521,"o":"m 347 0 l 347 260 l 434 260 l 434 174 l 521 174 l 521 0 l 347 0 m 0 0 l 0 521 l 174 521 l 174 260 l 260 260 l 260 174 l 174 174 l 174 0 l 0 0 m 260 260 l 260 434 l 347 434 l 347 521 l 521 521 l 521 434 l 434 434 l 434 347 l 347 347 l 347 260 l 260 260 z "},"л":{"ha":608,"x_min":0,"x_max":521,"o":"m 0 0 l 0 260 l 87 260 l 87 521 l 521 521 l 521 0 l 347 0 l 347 434 l 260 434 l 260 260 l 174 260 l 174 0 l 0 0 z "},"м":{"ha":694,"x_min":0,"x_max":608,"o":"m 260 87 l 260 260 l 347 260 l 347 87 l 260 87 m 0 0 l 0 521 l 174 521 l 174 434 l 260 434 l 260 260 l 174 260 l 174 0 l 0 0 m 434 0 l 434 260 l 347 260 l 347 434 l 434 434 l 434 521 l 608 521 l 608 0 l 434 0 z "},"н":{"ha":608,"x_min":0,"x_max":521,"o":"m 0 0 l 0 521 l 174 521 l 174 347 l 347 347 l 347 521 l 521 521 l 521 0 l 347 0 l 347 260 l 174 260 l 174 0 l 0 0 z "},"о":{"ha":608,"x_min":0,"x_max":521,"o":"m 347 87 l 347 434 l 174 434 l 174 87 l 347 87 m 87 0 l 87 87 l 0 87 l 0 434 l 87 434 l 87 521 l 434 521 l 434 434 l 521 434 l 521 87 l 434 87 l 434 0 l 87 0 z "},"п":{"ha":608,"x_min":0,"x_max":521,"o":"m 0 0 l 0 521 l 521 521 l 521 0 l 347 0 l 347 434 l 174 434 l 174 0 l 0 0 z "},"р":{"ha":608,"x_min":0,"x_max":521,"o":"m 0 -174 l 0 521 l 174 521 l 174 434 l 260 434 l 260 347 l 174 347 l 174 87 l 347 87 l 347 434 l 260 434 l 260 521 l 434 521 l 434 434 l 521 434 l 521 87 l 434 87 l 434 0 l 174 0 l 174 -174 l 0 -174 z "},"с":{"ha":608,"x_min":0,"x_max":521,"o":"m 87 0 l 87 87 l 0 87 l 0 434 l 87 434 l 87 521 l 434 521 l 434 434 l 521 434 l 521 347 l 347 347 l 347 434 l 174 434 l 174 87 l 347 87 l 347 174 l 521 174 l 521 87 l 434 87 l 434 0 l 87 0 z "},"т":{"ha":608,"x_min":0,"x_max":521,"o":"m 174 0 l 174 434 l 0 434 l 0 521 l 521 521 l 521 434 l 347 434 l 347 0 l 174 0 z "},"у":{"ha":608,"x_min":0,"x_max":521,"o":"m 0 -174 l 0 -87 l 174 -87 l 174 87 l 87 87 l 87 260 l 0 260 l 0 521 l 174 521 l 174 260 l 260 260 l 260 174 l 347 174 l 347 521 l 521 521 l 521 260 l 434 260 l 434 87 l 347 87 l 347 -87 l 260 -87 l 260 -174 l 0 -174 z "},"ф":{"ha":781,"x_min":0,"x_max":694,"o":"m 260 87 l 260 434 l 174 434 l 174 87 l 260 87 m 521 87 l 521 434 l 434 434 l 434 87 l 521 87 m 260 -174 l 260 0 l 87 0 l 87 87 l 0 87 l 0 434 l 87 434 l 87 521 l 260 521 l 260 694 l 434 694 l 434 521 l 608 521 l 608 434 l 694 434 l 694 87 l 608 87 l 608 0 l 434 0 l 434 -174 l 260 -174 z "},"х":{"ha":608,"x_min":0,"x_max":521,"o":"m 347 0 l 347 260 l 434 260 l 434 174 l 521 174 l 521 0 l 347 0 m 87 347 l 87 434 l 0 434 l 0 521 l 174 521 l 174 347 l 87 347 m 0 0 l 0 174 l 87 174 l 87 260 l 174 260 l 174 347 l 260 347 l 260 434 l 347 434 l 347 521 l 521 521 l 521 434 l 434 434 l 434 347 l 347 347 l 347 260 l 260 260 l 260 174 l 174 174 l 174 0 l 0 0 z "},"ц":{"ha":608,"x_min":0,"x_max":521,"o":"m 434 -174 l 434 0 l 0 0 l 0 521 l 174 521 l 174 87 l 347 87 l 347 521 l 521 521 l 521 -174 l 434 -174 z "},"ч":{"ha":608,"x_min":0,"x_max":521,"o":"m 87 174 l 87 260 l 0 260 l 0 521 l 174 521 l 174 260 l 260 260 l 260 174 l 87 174 m 347 0 l 347 260 l 260 260 l 260 347 l 347 347 l 347 521 l 521 521 l 521 0 l 347 0 z "},"ш":{"ha":781,"x_min":0,"x_max":694,"o":"m 0 0 l 0 521 l 174 521 l 174 87 l 260 87 l 260 521 l 434 521 l 434 87 l 521 87 l 521 521 l 694 521 l 694 0 l 0 0 z "},"щ":{"ha":781,"x_min":0,"x_max":694,"o":"m 608 -174 l 608 0 l 0 0 l 0 521 l 174 521 l 174 87 l 260 87 l 260 521 l 434 521 l 434 87 l 521 87 l 521 521 l 694 521 l 694 -174 l 608 -174 z "},"ъ":{"ha":694,"x_min":0,"x_max":608,"o":"m 87 0 l 87 434 l 0 434 l 0 521 l 260 521 l 260 260 l 347 260 l 347 174 l 260 174 l 260 87 l 434 87 l 434 260 l 347 260 l 347 347 l 521 347 l 521 260 l 608 260 l 608 87 l 521 87 l 521 0 l 87 0 z "},"ы":{"ha":694,"x_min":0,"x_max":608,"o":"m 260 87 l 260 260 l 174 260 l 174 87 l 260 87 m 0 0 l 0 521 l 174 521 l 174 347 l 347 347 l 347 0 l 0 0 m 434 0 l 434 521 l 608 521 l 608 0 l 434 0 z "},"ь":{"ha":608,"x_min":0,"x_max":521,"o":"m 0 0 l 0 521 l 174 521 l 174 260 l 260 260 l 260 174 l 174 174 l 174 87 l 347 87 l 347 260 l 260 260 l 260 347 l 434 347 l 434 260 l 521 260 l 521 87 l 434 87 l 434 0 l 0 0 z "},"э":{"ha":608,"x_min":0,"x_max":521,"o":"m 0 347 l 0 434 l 87 434 l 87 347 l 0 347 m 87 0 l 87 87 l 0 87 l 0 174 l 174 174 l 174 87 l 347 87 l 347 260 l 174 260 l 174 347 l 347 347 l 347 434 l 87 434 l 87 521 l 434 521 l 434 434 l 521 434 l 521 87 l 434 87 l 434 0 l 87 0 z "},"ю":{"ha":781,"x_min":0,"x_max":694,"o":"m 521 87 l 521 434 l 434 434 l 434 87 l 521 87 m 0 0 l 0 521 l 174 521 l 174 347 l 260 347 l 260 434 l 347 434 l 347 521 l 608 521 l 608 434 l 694 434 l 694 87 l 608 87 l 608 0 l 347 0 l 347 87 l 260 87 l 260 260 l 174 260 l 174 0 l 0 0 z "},"я":{"ha":608,"x_min":0,"x_max":521,"o":"m 0 0 l 0 87 l 174 87 l 174 0 l 0 0 m 347 260 l 347 434 l 174 434 l 174 260 l 347 260 m 347 0 l 347 174 l 260 174 l 260 87 l 174 87 l 174 174 l 87 174 l 87 260 l 0 260 l 0 434 l 87 434 l 87 521 l 521 521 l 521 0 l 347 0 z "},"ѐ":{"ha":608,"x_min":0,"x_max":521,"o":"m 174 608 l 174 694 l 87 694 l 87 781 l 260 781 l 260 694 l 347 694 l 347 608 l 174 608 m 347 347 l 347 434 l 174 434 l 174 347 l 347 347 m 87 0 l 87 87 l 0 87 l 0 434 l 87 434 l 87 521 l 434 521 l 434 434 l 521 434 l 521 260 l 174 260 l 174 87 l 347 87 l 347 174 l 521 174 l 521 87 l 434 87 l 434 0 l 87 0 z "},"ё":{"ha":608,"x_min":0,"x_max":521,"o":"m 87 608 l 87 694 l 174 694 l 174 608 l 87 608 m 347 608 l 347 694 l 434 694 l 434 608 l 347 608 m 347 347 l 347 434 l 174 434 l 174 347 l 347 347 m 87 0 l 87 87 l 0 87 l 0 434 l 87 434 l 87 521 l 434 521 l 434 434 l 521 434 l 521 260 l 174 260 l 174 87 l 347 87 l 347 174 l 521 174 l 521 87 l 434 87 l 434 0 l 87 0 z "},"ђ":{"ha":694,"x_min":0,"x_max":608,"o":"m 260 -174 l 260 -87 l 434 -87 l 434 434 l 347 434 l 347 521 l 521 521 l 521 434 l 608 434 l 608 -87 l 521 -87 l 521 -174 l 260 -174 m 87 0 l 87 521 l 0 521 l 0 608 l 87 608 l 87 694 l 260 694 l 260 608 l 347 608 l 347 521 l 260 521 l 260 434 l 347 434 l 347 347 l 260 347 l 260 0 l 87 0 z "},"ѓ":{"ha":434,"x_min":0,"x_max":347,"o":"m 87 608 l 87 694 l 174 694 l 174 781 l 347 781 l 347 694 l 260 694 l 260 608 l 87 608 m 0 0 l 0 521 l 347 521 l 347 434 l 174 434 l 174 0 l 0 0 z "},"є":{"ha":608,"x_min":0,"x_max":521,"o":"m 434 347 l 434 434 l 521 434 l 521 347 l 434 347 m 87 0 l 87 87 l 0 87 l 0 434 l 87 434 l 87 521 l 434 521 l 434 434 l 174 434 l 174 347 l 347 347 l 347 260 l 174 260 l 174 87 l 347 87 l 347 174 l 521 174 l 521 87 l 434 87 l 434 0 l 87 0 z "},"ѕ":{"ha":521,"x_min":0,"x_max":434,"o":"m 0 87 l 0 174 l 87 174 l 87 87 l 0 87 m 347 347 l 347 434 l 434 434 l 434 347 l 347 347 m 87 0 l 87 87 l 260 87 l 260 174 l 174 174 l 174 260 l 87 260 l 87 347 l 0 347 l 0 434 l 87 434 l 87 521 l 347 521 l 347 434 l 174 434 l 174 347 l 260 347 l 260 260 l 347 260 l 347 174 l 434 174 l 434 87 l 347 87 l 347 0 l 87 0 z "},"і":{"ha":260,"x_min":0,"x_max":174,"o":"m 0 608 l 0 694 l 174 694 l 174 608 l 0 608 m 0 0 l 0 521 l 174 521 l 174 0 l 0 0 z "},"ї":{"ha":434,"x_min":0,"x_max":347,"o":"m 0 608 l 0 694 l 87 694 l 87 608 l 0 608 m 260 608 l 260 694 l 347 694 l 347 608 l 260 608 m 87 0 l 87 521 l 260 521 l 260 0 l 87 0 z "},"ј":{"ha":347,"x_min":-87,"x_max":260,"o":"m 87 608 l 87 694 l 260 694 l 260 608 l 87 608 m -87 -174 l -87 -87 l 87 -87 l 87 434 l 0 434 l 0 521 l 260 521 l 260 -87 l 174 -87 l 174 -174 l -87 -174 z "},"љ":{"ha":868,"x_min":0,"x_max":781,"o":"m 608 87 l 608 260 l 521 260 l 521 87 l 608 87 m 0 0 l 0 260 l 87 260 l 87 521 l 521 521 l 521 347 l 694 347 l 694 260 l 781 260 l 781 87 l 694 87 l 694 0 l 347 0 l 347 434 l 260 434 l 260 260 l 174 260 l 174 0 l 0 0 z "},"њ":{"ha":781,"x_min":0,"x_max":694,"o":"m 521 87 l 521 260 l 434 260 l 434 87 l 521 87 m 0 0 l 0 521 l 174 521 l 174 347 l 260 347 l 260 521 l 434 521 l 434 347 l 608 347 l 608 260 l 694 260 l 694 87 l 608 87 l 608 0 l 260 0 l 260 260 l 174 260 l 174 0 l 0 0 z "},"ћ":{"ha":694,"x_min":0,"x_max":608,"o":"m 434 0 l 434 434 l 347 434 l 347 521 l 521 521 l 521 434 l 608 434 l 608 0 l 434 0 m 87 0 l 87 521 l 0 521 l 0 608 l 87 608 l 87 694 l 260 694 l 260 608 l 347 608 l 347 521 l 260 521 l 260 434 l 347 434 l 347 347 l 260 347 l 260 0 l 87 0 z "},"ќ":{"ha":608,"x_min":0,"x_max":521,"o":"m 174 608 l 174 694 l 260 694 l 260 781 l 434 781 l 434 694 l 347 694 l 347 608 l 174 608 m 347 0 l 347 260 l 434 260 l 434 174 l 521 174 l 521 0 l 347 0 m 0 0 l 0 521 l 174 521 l 174 260 l 260 260 l 260 174 l 174 174 l 174 0 l 0 0 m 260 260 l 260 434 l 347 434 l 347 521 l 521 521 l 521 434 l 434 434 l 434 347 l 347 347 l 347 260 l 260 260 z "},"ѝ":{"ha":608,"x_min":0,"x_max":521,"o":"m 174 608 l 174 694 l 87 694 l 87 781 l 260 781 l 260 694 l 347 694 l 347 608 l 174 608 m 0 0 l 0 521 l 174 521 l 174 260 l 260 260 l 260 87 l 174 87 l 174 0 l 0 0 m 347 0 l 347 260 l 260 260 l 260 434 l 347 434 l 347 521 l 521 521 l 521 0 l 347 0 z "},"ў":{"ha":608,"x_min":0,"x_max":521,"o":"m 87 608 l 87 694 l 434 694 l 434 608 l 87 608 m 0 -174 l 0 -87 l 174 -87 l 174 87 l 87 87 l 87 260 l 0 260 l 0 521 l 174 521 l 174 260 l 260 260 l 260 174 l 347 174 l 347 521 l 521 521 l 521 260 l 434 260 l 434 87 l 347 87 l 347 -87 l 260 -87 l 260 -174 l 0 -174 z "},"џ":{"ha":608,"x_min":0,"x_max":521,"o":"m 174 -174 l 174 0 l 0 0 l 0 521 l 174 521 l 174 87 l 347 87 l 347 521 l 521 521 l 521 0 l 347 0 l 347 -174 l 174 -174 z "},"Ѣ":{"ha":608,"x_min":0,"x_max":521,"o":"m 347 87 l 347 347 l 174 347 l 174 87 l 347 87 m 0 0 l 0 694 l 174 694 l 174 608 l 347 608 l 347 521 l 174 521 l 174 434 l 434 434 l 434 347 l 521 347 l 521 87 l 434 87 l 434 0 l 0 0 z "},"ѣ":{"ha":694,"x_min":0,"x_max":608,"o":"m 87 0 l 87 521 l 0 521 l 0 608 l 87 608 l 87 694 l 260 694 l 260 608 l 347 608 l 347 521 l 260 521 l 260 434 l 347 434 l 347 347 l 260 347 l 260 87 l 434 87 l 434 434 l 347 434 l 347 521 l 521 521 l 521 434 l 608 434 l 608 87 l 521 87 l 521 0 l 87 0 z "},"Ґ":{"ha":521,"x_min":0,"x_max":434,"o":"m 0 0 l 0 694 l 347 694 l 347 868 l 434 868 l 434 608 l 174 608 l 174 0 l 0 0 z "},"ґ":{"ha":434,"x_min":0,"x_max":347,"o":"m 0 0 l 0 521 l 260 521 l 260 694 l 347 694 l 347 434 l 174 434 l 174 0 l 0 0 z "},"ẞ":{"ha":608,"x_min":0,"x_max":521,"o":"m 0 0 l 0 608 l 87 608 l 87 694 l 521 694 l 521 521 l 434 521 l 434 434 l 521 434 l 521 87 l 434 87 l 434 0 l 260 0 l 260 87 l 347 87 l 347 347 l 260 347 l 260 434 l 347 434 l 347 608 l 174 608 l 174 0 l 0 0 z "},"‐":{"ha":347,"x_min":0,"x_max":260,"o":"m 0 260 l 0 347 l 260 347 l 260 260 l 0 260 z "},"‑":{"ha":347,"x_min":0,"x_max":260,"o":"m 0 260 l 0 347 l 260 347 l 260 260 l 0 260 z "},"‒":{"ha":608,"x_min":0,"x_max":521,"o":"m 0 260 l 0 347 l 521 347 l 521 260 l 0 260 z "},"–":{"ha":608,"x_min":0,"x_max":521,"o":"m 0 260 l 0 347 l 521 347 l 521 260 l 0 260 z "},"—":{"ha":868,"x_min":0,"x_max":781,"o":"m 0 260 l 0 347 l 781 347 l 781 260 l 0 260 z "},"‘":{"ha":260,"x_min":0,"x_max":174,"o":"m 0 434 l 0 608 l 87 608 l 87 694 l 174 694 l 174 434 l 0 434 z "},"’":{"ha":260,"x_min":0,"x_max":174,"o":"m 0 434 l 0 694 l 174 694 l 174 521 l 87 521 l 87 434 l 0 434 z "},"‚":{"ha":260,"x_min":0,"x_max":174,"o":"m 0 87 l 174 87 l 174 -87 l 87 -87 l 87 -174 l 0 -174 l 0 87 z "},"‛":{"ha":260,"x_min":0,"x_max":174,"o":"m 0 521 l 0 694 l 174 694 l 174 434 l 87 434 l 87 521 l 0 521 z "},"“":{"ha":521,"x_min":0,"x_max":434,"o":"m 0 434 l 0 608 l 87 608 l 87 694 l 174 694 l 174 434 l 0 434 m 260 434 l 260 608 l 347 608 l 347 694 l 434 694 l 434 434 l 260 434 z "},"”":{"ha":521,"x_min":0,"x_max":434,"o":"m 0 434 l 0 694 l 174 694 l 174 521 l 87 521 l 87 434 l 0 434 m 260 434 l 260 694 l 434 694 l 434 521 l 347 521 l 347 434 l 260 434 z "},"„":{"ha":521,"x_min":0,"x_max":434,"o":"m 347 -87 l 347 -174 l 260 -174 l 260 87 l 434 87 l 434 -87 l 347 -87 m 0 -174 l 0 87 l 174 87 l 174 -87 l 87 -87 l 87 -174 l 0 -174 z "},"‟":{"ha":521,"x_min":0,"x_max":434,"o":"m 0 521 l 0 694 l 174 694 l 174 434 l 87 434 l 87 521 l 0 521 m 260 521 l 260 694 l 434 694 l 434 434 l 347 434 l 347 521 l 260 521 z "},"†":{"ha":608,"x_min":0,"x_max":521,"o":"m 174 -174 l 174 434 l 0 434 l 0 521 l 174 521 l 174 694 l 347 694 l 347 521 l 521 521 l 521 434 l 347 434 l 347 -174 l 174 -174 z "},"‡":{"ha":608,"x_min":0,"x_max":521,"o":"m 174 -174 l 174 0 l 0 0 l 0 87 l 174 87 l 174 434 l 0 434 l 0 521 l 174 521 l 174 694 l 347 694 l 347 521 l 521 521 l 521 434 l 347 434 l 347 87 l 521 87 l 521 0 l 347 0 l 347 -174 l 174 -174 z "},"•":{"ha":434,"x_min":0,"x_max":347,"o":"m 87 174 l 87 260 l 0 260 l 0 434 l 87 434 l 87 521 l 260 521 l 260 434 l 347 434 l 347 260 l 260 260 l 260 174 l 87 174 z "},"…":{"ha":781,"x_min":0,"x_max":694,"o":"m 0 0 l 0 174 l 174 174 l 174 0 l 0 0 m 260 0 l 260 174 l 434 174 l 434 0 l 260 0 m 521 0 l 521 174 l 694 174 l 694 0 l 521 0 z "},"‧":{"ha":260,"x_min":0,"x_max":174,"o":"m 0 260 l 0 434 l 174 434 l 174 260 l 0 260 z "},"‹":{"ha":434,"x_min":0,"x_max":347,"o":"m 174 87 l 174 174 l 87 174 l 87 260 l 0 260 l 0 347 l 87 347 l 87 434 l 174 434 l 174 521 l 347 521 l 347 434 l 260 434 l 260 347 l 174 347 l 174 260 l 260 260 l 260 174 l 347 174 l 347 87 l 174 87 z "},"›":{"ha":434,"x_min":0,"x_max":347,"o":"m 0 87 l 0 174 l 87 174 l 87 260 l 174 260 l 174 347 l 87 347 l 87 434 l 0 434 l 0 521 l 174 521 l 174 434 l 260 434 l 260 347 l 347 347 l 347 260 l 260 260 l 260 174 l 174 174 l 174 87 l 0 87 z "},"€":{"ha":694,"x_min":0,"x_max":608,"o":"m 174 0 l 174 87 l 87 87 l 87 174 l 0 174 l 0 260 l 87 260 l 87 347 l 0 347 l 0 434 l 87 434 l 87 608 l 174 608 l 174 694 l 521 694 l 521 608 l 608 608 l 608 521 l 434 521 l 434 608 l 260 608 l 260 521 l 347 521 l 347 434 l 260 434 l 260 347 l 347 347 l 347 260 l 260 260 l 260 87 l 434 87 l 434 174 l 608 174 l 608 87 l 521 87 l 521 0 l 174 0 z "},"™":{"ha":868,"x_min":0,"x_max":781,"o":"m 521 434 l 521 521 l 608 521 l 608 434 l 521 434 m 87 347 l 87 608 l 0 608 l 0 694 l 260 694 l 260 608 l 174 608 l 174 347 l 87 347 m 347 347 l 347 694 l 434 694 l 434 608 l 521 608 l 521 521 l 434 521 l 434 347 l 347 347 m 694 347 l 694 521 l 608 521 l 608 608 l 694 608 l 694 694 l 781 694 l 781 347 l 694 347 z "},"　":{"ha":608,"x_min":0,"x_max":0,"o":""},"、":{"ha":608,"x_min":-87,"x_max":347,"o":"m 0 260 l 174 260 l 174 174 l 260 174 l 260 87 l 347 87 l 347 0 l 174 0 l 174 87 l 87 87 l 87 174 l 0 174 l 0 260 z "},"。":{"ha":608,"x_min":0,"x_max":434,"o":"m 0 87 l 0 260 l 87 260 l 87 347 l 347 347 l 347 260 l 434 260 l 434 87 l 347 87 l 347 0 l 87 0 l 87 87 l 0 87 m 174 87 l 260 87 l 260 260 l 174 260 l 174 87 z "},"「":{"ha":608,"x_min":174,"x_max":521,"o":"m 174 260 l 174 694 l 521 694 l 521 608 l 347 608 l 347 260 l 174 260 z "},"」":{"ha":608,"x_min":0,"x_max":347,"o":"m 347 434 l 347 0 l 0 0 l 0 87 l 174 87 l 174 434 l 347 434 z "},"『":{"ha":608,"x_min":87,"x_max":521,"o":"m 174 260 l 260 260 l 260 521 l 434 521 l 434 608 l 174 608 l 174 260 m 87 174 l 87 694 l 521 694 l 521 434 l 347 434 l 347 174 l 87 174 z "},"』":{"ha":608,"x_min":0,"x_max":434,"o":"m 347 434 l 260 434 l 260 174 l 87 174 l 87 87 l 347 87 l 347 434 m 434 521 l 434 0 l 0 0 l 0 260 l 174 260 l 174 521 l 434 521 z "},"゙":{"ha":608,"x_min":0,"x_max":434,"o":"m 0 434 l 0 694 l 174 694 l 174 434 l 0 434 m 260 434 l 260 694 l 434 694 l 434 434 l 260 434 z "},"゚":{"ha":608,"x_min":0,"x_max":434,"o":"m 260 434 l 260 608 l 174 608 l 174 434 l 260 434 m 87 347 l 87 434 l 0 434 l 0 608 l 87 608 l 87 694 l 347 694 l 347 608 l 434 608 l 434 434 l 347 434 l 347 347 l 87 347 z "},"゛":{"ha":608,"x_min":0,"x_max":434,"o":"m 0 434 l 0 694 l 174 694 l 174 434 l 0 434 m 260 434 l 260 694 l 434 694 l 434 434 l 260 434 z "},"゜":{"ha":608,"x_min":0,"x_max":434,"o":"m 260 434 l 260 608 l 174 608 l 174 434 l 260 434 m 87 347 l 87 434 l 0 434 l 0 608 l 87 608 l 87 694 l 347 694 l 347 608 l 434 608 l 434 434 l 347 434 l 347 347 l 87 347 z "},"ァ":{"ha":608,"x_min":0,"x_max":521,"o":"m 0 0 l 0 87 l 87 87 l 87 347 l 260 347 l 260 260 l 347 260 l 347 434 l 0 434 l 0 521 l 521 521 l 521 260 l 434 260 l 434 174 l 260 174 l 260 87 l 174 87 l 174 0 l 0 0 z "},"ア":{"ha":608,"x_min":0,"x_max":521,"o":"m 0 0 l 0 87 l 87 87 l 87 434 l 260 434 l 260 347 l 347 347 l 347 521 l 0 521 l 0 608 l 521 608 l 521 347 l 434 347 l 434 260 l 260 260 l 260 87 l 174 87 l 174 0 l 0 0 z "},"ィ":{"ha":608,"x_min":0,"x_max":521,"o":"m 174 0 l 174 260 l 0 260 l 0 347 l 260 347 l 260 434 l 347 434 l 347 521 l 521 521 l 521 434 l 434 434 l 434 347 l 347 347 l 347 0 l 174 0 z "},"イ":{"ha":608,"x_min":0,"x_max":521,"o":"m 174 0 l 174 347 l 0 347 l 0 434 l 260 434 l 260 521 l 347 521 l 347 694 l 521 694 l 521 521 l 434 521 l 434 434 l 347 434 l 347 0 l 174 0 z "},"ゥ":{"ha":608,"x_min":0,"x_max":521,"o":"m 87 0 l 87 87 l 347 87 l 347 0 l 87 0 m 347 87 l 347 347 l 174 347 l 174 260 l 0 260 l 0 434 l 174 434 l 174 521 l 347 521 l 347 434 l 521 434 l 521 174 l 434 174 l 434 87 l 347 87 z "},"ウ":{"ha":608,"x_min":0,"x_max":521,"o":"m 87 0 l 87 87 l 260 87 l 260 174 l 347 174 l 347 521 l 174 521 l 174 347 l 0 347 l 0 608 l 174 608 l 174 694 l 347 694 l 347 608 l 521 608 l 521 174 l 434 174 l 434 87 l 347 87 l 347 0 l 87 0 z "},"ェ":{"ha":608,"x_min":0,"x_max":521,"o":"m 0 0 l 0 87 l 174 87 l 174 434 l 0 434 l 0 521 l 521 521 l 521 434 l 347 434 l 347 87 l 521 87 l 521 0 l 0 0 z "},"エ":{"ha":608,"x_min":0,"x_max":521,"o":"m 0 0 l 0 87 l 174 87 l 174 521 l 0 521 l 0 608 l 521 608 l 521 521 l 347 521 l 347 87 l 521 87 l 521 0 l 0 0 z "},"ォ":{"ha":608,"x_min":0,"x_max":521,"o":"m 0 0 l 0 174 l 87 174 l 87 260 l 174 260 l 174 347 l 0 347 l 0 434 l 260 434 l 260 521 l 434 521 l 434 434 l 521 434 l 521 347 l 434 347 l 434 0 l 260 0 l 260 174 l 174 174 l 174 0 l 0 0 z "},"オ":{"ha":608,"x_min":0,"x_max":521,"o":"m 0 0 l 0 174 l 87 174 l 87 347 l 174 347 l 174 434 l 260 434 l 260 521 l 0 521 l 0 608 l 260 608 l 260 694 l 434 694 l 434 608 l 521 608 l 521 521 l 434 521 l 434 0 l 260 0 l 260 260 l 174 260 l 174 0 l 0 0 z "},"カ":{"ha":608,"x_min":0,"x_max":521,"o":"m 0 0 l 0 87 l 87 87 l 87 521 l 0 521 l 0 608 l 87 608 l 87 694 l 260 694 l 260 608 l 521 608 l 521 0 l 347 0 l 347 521 l 260 521 l 260 87 l 174 87 l 174 0 l 0 0 z "},"ガ":{"ha":1215,"x_min":0,"x_max":1042,"o":"m 0 0 l 0 87 l 87 87 l 87 521 l 0 521 l 0 608 l 87 608 l 87 694 l 260 694 l 260 608 l 521 608 l 521 0 l 347 0 l 347 521 l 260 521 l 260 87 l 174 87 l 174 0 l 0 0 m 608 434 l 608 694 l 781 694 l 781 434 l 608 434 m 868 434 l 868 694 l 1042 694 l 1042 434 l 868 434 z "},"キ":{"ha":608,"x_min":0,"x_max":521,"o":"m 174 0 l 174 260 l 0 260 l 0 347 l 174 347 l 174 521 l 0 521 l 0 608 l 174 608 l 174 694 l 347 694 l 347 608 l 521 608 l 521 521 l 347 521 l 347 347 l 521 347 l 521 260 l 347 260 l 347 0 l 174 0 z "},"ギ":{"ha":1215,"x_min":0,"x_max":1042,"o":"m 174 0 l 174 260 l 0 260 l 0 347 l 174 347 l 174 521 l 0 521 l 0 608 l 174 608 l 174 694 l 347 694 l 347 608 l 521 608 l 521 521 l 347 521 l 347 347 l 521 347 l 521 260 l 347 260 l 347 0 l 174 0 m 608 434 l 608 694 l 781 694 l 781 434 l 608 434 m 868 434 l 868 694 l 1042 694 l 1042 434 l 868 434 z "},"ク":{"ha":608,"x_min":0,"x_max":521,"o":"m 87 0 l 87 87 l 260 87 l 260 174 l 347 174 l 347 521 l 174 521 l 174 260 l 0 260 l 0 521 l 87 521 l 87 694 l 260 694 l 260 608 l 521 608 l 521 174 l 434 174 l 434 87 l 347 87 l 347 0 l 87 0 z "},"グ":{"ha":1215,"x_min":0,"x_max":1042,"o":"m 87 0 l 87 87 l 260 87 l 260 174 l 347 174 l 347 521 l 174 521 l 174 260 l 0 260 l 0 521 l 87 521 l 87 694 l 260 694 l 260 608 l 521 608 l 521 174 l 434 174 l 434 87 l 347 87 l 347 0 l 87 0 m 608 434 l 608 694 l 781 694 l 781 434 l 608 434 m 868 434 l 868 694 l 1042 694 l 1042 434 l 868 434 z "},"ケ":{"ha":608,"x_min":0,"x_max":521,"o":"m 87 0 l 87 87 l 260 87 l 260 521 l 174 521 l 174 260 l 0 260 l 0 694 l 174 694 l 174 608 l 521 608 l 521 521 l 434 521 l 434 87 l 347 87 l 347 0 l 87 0 z "},"ゲ":{"ha":1215,"x_min":0,"x_max":1042,"o":"m 87 0 l 87 87 l 260 87 l 260 521 l 174 521 l 174 260 l 0 260 l 0 694 l 174 694 l 174 608 l 521 608 l 521 521 l 434 521 l 434 87 l 347 87 l 347 0 l 87 0 m 608 434 l 608 694 l 781 694 l 781 434 l 608 434 m 868 434 l 868 694 l 1042 694 l 1042 434 l 868 434 z "},"コ":{"ha":608,"x_min":0,"x_max":521,"o":"m 0 0 l 0 87 l 347 87 l 347 521 l 0 521 l 0 608 l 521 608 l 521 0 l 0 0 z "},"ゴ":{"ha":1215,"x_min":0,"x_max":1042,"o":"m 0 0 l 0 87 l 347 87 l 347 521 l 0 521 l 0 608 l 521 608 l 521 0 l 0 0 m 608 434 l 608 694 l 781 694 l 781 434 l 608 434 m 868 434 l 868 694 l 1042 694 l 1042 434 l 868 434 z "},"サ":{"ha":608,"x_min":0,"x_max":521,"o":"m 87 0 l 87 87 l 260 87 l 260 521 l 174 521 l 174 260 l 87 260 l 87 521 l 0 521 l 0 608 l 87 608 l 87 694 l 174 694 l 174 608 l 260 608 l 260 694 l 434 694 l 434 608 l 521 608 l 521 521 l 434 521 l 434 87 l 347 87 l 347 0 l 87 0 z "},"ザ":{"ha":1215,"x_min":0,"x_max":1042,"o":"m 87 0 l 87 87 l 260 87 l 260 521 l 174 521 l 174 260 l 87 260 l 87 521 l 0 521 l 0 608 l 87 608 l 87 694 l 174 694 l 174 608 l 260 608 l 260 694 l 434 694 l 434 608 l 521 608 l 521 521 l 434 521 l 434 87 l 347 87 l 347 0 l 87 0 m 608 434 l 608 694 l 781 694 l 781 434 l 608 434 m 868 434 l 868 694 l 1042 694 l 1042 434 l 868 434 z "},"シ":{"ha":608,"x_min":0,"x_max":521,"o":"m 0 260 l 0 434 l 174 434 l 174 347 l 260 347 l 260 260 l 0 260 m 0 0 l 0 87 l 260 87 l 260 174 l 347 174 l 347 434 l 521 434 l 521 174 l 434 174 l 434 87 l 347 87 l 347 0 l 0 0 m 0 521 l 0 694 l 174 694 l 174 608 l 260 608 l 260 521 l 0 521 z "},"ジ":{"ha":1215,"x_min":0,"x_max":1042,"o":"m 0 260 l 0 434 l 174 434 l 174 347 l 260 347 l 260 260 l 0 260 m 0 0 l 0 87 l 260 87 l 260 174 l 347 174 l 347 434 l 521 434 l 521 174 l 434 174 l 434 87 l 347 87 l 347 0 l 0 0 m 0 521 l 0 694 l 174 694 l 174 608 l 260 608 l 260 521 l 0 521 m 608 434 l 608 694 l 781 694 l 781 434 l 608 434 m 868 434 l 868 694 l 1042 694 l 1042 434 l 868 434 z "},"ス":{"ha":608,"x_min":0,"x_max":521,"o":"m 347 0 l 347 174 l 434 174 l 434 87 l 521 87 l 521 0 l 347 0 m 0 0 l 0 174 l 174 174 l 174 260 l 260 260 l 260 347 l 347 347 l 347 521 l 0 521 l 0 608 l 521 608 l 521 347 l 434 347 l 434 260 l 347 260 l 347 174 l 260 174 l 260 87 l 174 87 l 174 0 l 0 0 z "},"ズ":{"ha":1215,"x_min":0,"x_max":1042,"o":"m 347 0 l 347 174 l 434 174 l 434 87 l 521 87 l 521 0 l 347 0 m 0 0 l 0 174 l 174 174 l 174 260 l 260 260 l 260 347 l 347 347 l 347 521 l 0 521 l 0 608 l 521 608 l 521 347 l 434 347 l 434 260 l 347 260 l 347 174 l 260 174 l 260 87 l 174 87 l 174 0 l 0 0 m 608 434 l 608 694 l 781 694 l 781 434 l 608 434 m 868 434 l 868 694 l 1042 694 l 1042 434 l 868 434 z "},"セ":{"ha":608,"x_min":0,"x_max":521,"o":"m 174 0 l 174 87 l 87 87 l 87 521 l 0 521 l 0 608 l 87 608 l 87 694 l 260 694 l 260 608 l 521 608 l 521 347 l 347 347 l 347 521 l 260 521 l 260 87 l 521 87 l 521 0 l 174 0 z "},"ゼ":{"ha":1215,"x_min":0,"x_max":1042,"o":"m 174 0 l 174 87 l 87 87 l 87 521 l 0 521 l 0 608 l 87 608 l 87 694 l 260 694 l 260 608 l 521 608 l 521 347 l 347 347 l 347 521 l 260 521 l 260 87 l 521 87 l 521 0 l 174 0 m 608 434 l 608 694 l 781 694 l 781 434 l 608 434 m 868 434 l 868 694 l 1042 694 l 1042 434 l 868 434 z "},"ソ":{"ha":608,"x_min":0,"x_max":521,"o":"m 87 260 l 87 347 l 0 347 l 0 694 l 174 694 l 174 347 l 260 347 l 260 260 l 87 260 m 87 0 l 87 87 l 260 87 l 260 174 l 347 174 l 347 694 l 521 694 l 521 174 l 434 174 l 434 87 l 347 87 l 347 0 l 87 0 z "},"ゾ":{"ha":1215,"x_min":0,"x_max":1042,"o":"m 87 260 l 87 347 l 0 347 l 0 694 l 174 694 l 174 347 l 260 347 l 260 260 l 87 260 m 87 0 l 87 87 l 260 87 l 260 174 l 347 174 l 347 694 l 521 694 l 521 174 l 434 174 l 434 87 l 347 87 l 347 0 l 87 0 m 608 434 l 608 694 l 781 694 l 781 434 l 608 434 m 868 434 l 868 694 l 1042 694 l 1042 434 l 868 434 z "},"タ":{"ha":608,"x_min":0,"x_max":521,"o":"m 347 347 l 347 521 l 174 521 l 174 347 l 347 347 m 174 0 l 174 87 l 347 87 l 347 260 l 174 260 l 174 174 l 0 174 l 0 694 l 174 694 l 174 608 l 521 608 l 521 87 l 434 87 l 434 0 l 174 0 z "},"ダ":{"ha":1215,"x_min":0,"x_max":1042,"o":"m 347 347 l 347 521 l 174 521 l 174 347 l 347 347 m 174 0 l 174 87 l 347 87 l 347 260 l 174 260 l 174 174 l 0 174 l 0 694 l 174 694 l 174 608 l 521 608 l 521 87 l 434 87 l 434 0 l 174 0 m 608 434 l 608 694 l 781 694 l 781 434 l 608 434 m 868 434 l 868 694 l 1042 694 l 1042 434 l 868 434 z "},"チ":{"ha":608,"x_min":0,"x_max":521,"o":"m 0 0 l 0 87 l 174 87 l 174 347 l 0 347 l 0 434 l 174 434 l 174 521 l 87 521 l 87 608 l 347 608 l 347 694 l 521 694 l 521 608 l 434 608 l 434 521 l 347 521 l 347 434 l 521 434 l 521 347 l 347 347 l 347 87 l 260 87 l 260 0 l 0 0 z "},"ヂ":{"ha":1215,"x_min":0,"x_max":1042,"o":"m 0 0 l 0 87 l 174 87 l 174 347 l 0 347 l 0 434 l 174 434 l 174 521 l 87 521 l 87 608 l 347 608 l 347 694 l 521 694 l 521 608 l 434 608 l 434 521 l 347 521 l 347 434 l 521 434 l 521 347 l 347 347 l 347 87 l 260 87 l 260 0 l 0 0 m 608 434 l 608 694 l 781 694 l 781 434 l 608 434 m 868 434 l 868 694 l 1042 694 l 1042 434 l 868 434 z "},"ッ":{"ha":608,"x_min":0,"x_max":521,"o":"m 87 0 l 87 87 l 260 87 l 260 174 l 347 174 l 347 434 l 521 434 l 521 174 l 434 174 l 434 87 l 347 87 l 347 0 l 87 0 m 0 260 l 0 521 l 87 521 l 87 260 l 0 260 m 174 260 l 174 521 l 260 521 l 260 260 l 174 260 z "},"ツ":{"ha":608,"x_min":0,"x_max":521,"o":"m 0 347 l 0 608 l 87 608 l 87 347 l 0 347 m 174 347 l 174 608 l 260 608 l 260 347 l 174 347 m 87 0 l 87 87 l 260 87 l 260 174 l 347 174 l 347 608 l 521 608 l 521 174 l 434 174 l 434 87 l 347 87 l 347 0 l 87 0 z "},"ヅ":{"ha":1215,"x_min":0,"x_max":1042,"o":"m 0 347 l 0 608 l 87 608 l 87 347 l 0 347 m 174 347 l 174 608 l 260 608 l 260 347 l 174 347 m 87 0 l 87 87 l 260 87 l 260 174 l 347 174 l 347 608 l 521 608 l 521 174 l 434 174 l 434 87 l 347 87 l 347 0 l 87 0 m 608 434 l 608 694 l 781 694 l 781 434 l 608 434 m 868 434 l 868 694 l 1042 694 l 1042 434 l 868 434 z "},"テ":{"ha":608,"x_min":0,"x_max":521,"o":"m 87 0 l 87 87 l 174 87 l 174 434 l 0 434 l 0 521 l 521 521 l 521 434 l 347 434 l 347 87 l 260 87 l 260 0 l 87 0 m 87 608 l 87 694 l 434 694 l 434 608 l 87 608 z "},"デ":{"ha":1215,"x_min":0,"x_max":1042,"o":"m 87 0 l 87 87 l 174 87 l 174 434 l 0 434 l 0 521 l 521 521 l 521 434 l 347 434 l 347 87 l 260 87 l 260 0 l 87 0 m 87 608 l 87 694 l 434 694 l 434 608 l 87 608 m 608 434 l 608 694 l 781 694 l 781 434 l 608 434 m 868 434 l 868 694 l 1042 694 l 1042 434 l 868 434 z "},"ト":{"ha":608,"x_min":0,"x_max":521,"o":"m 347 260 l 347 347 l 521 347 l 521 260 l 347 260 m 0 0 l 0 694 l 174 694 l 174 434 l 347 434 l 347 347 l 174 347 l 174 0 l 0 0 z "},"ド":{"ha":1215,"x_min":0,"x_max":1042,"o":"m 347 260 l 347 347 l 521 347 l 521 260 l 347 260 m 0 0 l 0 694 l 174 694 l 174 434 l 347 434 l 347 347 l 174 347 l 174 0 l 0 0 m 608 434 l 608 694 l 781 694 l 781 434 l 608 434 m 868 434 l 868 694 l 1042 694 l 1042 434 l 868 434 z "},"ナ":{"ha":608,"x_min":0,"x_max":521,"o":"m 87 0 l 87 87 l 174 87 l 174 174 l 260 174 l 260 521 l 0 521 l 0 608 l 260 608 l 260 694 l 434 694 l 434 608 l 521 608 l 521 521 l 434 521 l 434 174 l 347 174 l 347 87 l 260 87 l 260 0 l 87 0 z "},"ニ":{"ha":608,"x_min":0,"x_max":521,"o":"m 0 0 l 0 87 l 521 87 l 521 0 l 0 0 m 0 521 l 0 608 l 521 608 l 521 521 l 0 521 z "},"ヌ":{"ha":608,"x_min":0,"x_max":521,"o":"m 347 0 l 347 174 l 434 174 l 434 87 l 521 87 l 521 0 l 347 0 m 87 260 l 87 347 l 0 347 l 0 434 l 174 434 l 174 260 l 87 260 m 0 0 l 0 174 l 174 174 l 174 260 l 260 260 l 260 347 l 347 347 l 347 521 l 0 521 l 0 608 l 521 608 l 521 347 l 434 347 l 434 260 l 347 260 l 347 174 l 260 174 l 260 87 l 174 87 l 174 0 l 0 0 z "},"ネ":{"ha":608,"x_min":0,"x_max":521,"o":"m 434 87 l 434 174 l 521 174 l 521 87 l 434 87 m 174 0 l 174 174 l 0 174 l 0 260 l 174 260 l 174 347 l 260 347 l 260 434 l 347 434 l 347 521 l 0 521 l 0 608 l 174 608 l 174 694 l 347 694 l 347 608 l 521 608 l 521 434 l 434 434 l 434 347 l 347 347 l 347 260 l 434 260 l 434 174 l 347 174 l 347 0 l 174 0 z "},"ノ":{"ha":608,"x_min":0,"x_max":521,"o":"m 0 0 l 0 87 l 174 87 l 174 174 l 260 174 l 260 260 l 347 260 l 347 694 l 521 694 l 521 260 l 434 260 l 434 174 l 347 174 l 347 87 l 260 87 l 260 0 l 0 0 z "},"ハ":{"ha":608,"x_min":0,"x_max":521,"o":"m 0 0 l 0 608 l 174 608 l 174 0 l 0 0 m 347 0 l 347 608 l 260 608 l 260 694 l 434 694 l 434 608 l 521 608 l 521 0 l 347 0 z "},"バ":{"ha":1215,"x_min":0,"x_max":1042,"o":"m 0 0 l 0 608 l 174 608 l 174 0 l 0 0 m 347 0 l 347 608 l 260 608 l 260 694 l 434 694 l 434 608 l 521 608 l 521 0 l 347 0 m 608 434 l 608 694 l 781 694 l 781 434 l 608 434 m 868 434 l 868 694 l 1042 694 l 1042 434 l 868 434 z "},"パ":{"ha":1215,"x_min":0,"x_max":1042,"o":"m 0 0 l 0 608 l 174 608 l 174 0 l 0 0 m 868 434 l 868 608 l 781 608 l 781 434 l 868 434 m 347 0 l 347 608 l 260 608 l 260 694 l 434 694 l 434 608 l 521 608 l 521 0 l 347 0 m 694 347 l 694 434 l 608 434 l 608 608 l 694 608 l 694 694 l 955 694 l 955 608 l 1042 608 l 1042 434 l 955 434 l 955 347 l 694 347 z "},"ヒ":{"ha":608,"x_min":0,"x_max":521,"o":"m 87 0 l 87 87 l 0 87 l 0 694 l 174 694 l 174 434 l 347 434 l 347 608 l 521 608 l 521 434 l 434 434 l 434 347 l 174 347 l 174 87 l 521 87 l 521 0 l 87 0 z "},"ビ":{"ha":1215,"x_min":0,"x_max":1042,"o":"m 87 0 l 87 87 l 0 87 l 0 694 l 174 694 l 174 434 l 347 434 l 347 608 l 521 608 l 521 434 l 434 434 l 434 347 l 174 347 l 174 87 l 521 87 l 521 0 l 87 0 m 608 434 l 608 694 l 781 694 l 781 434 l 608 434 m 868 434 l 868 694 l 1042 694 l 1042 434 l 868 434 z "},"ピ":{"ha":1215,"x_min":0,"x_max":1042,"o":"m 868 434 l 868 608 l 781 608 l 781 434 l 868 434 m 87 0 l 87 87 l 0 87 l 0 694 l 174 694 l 174 434 l 347 434 l 347 608 l 521 608 l 521 434 l 434 434 l 434 347 l 174 347 l 174 87 l 521 87 l 521 0 l 87 0 m 694 347 l 694 434 l 608 434 l 608 608 l 694 608 l 694 694 l 955 694 l 955 608 l 1042 608 l 1042 434 l 955 434 l 955 347 l 694 347 z "},"フ":{"ha":608,"x_min":0,"x_max":521,"o":"m 87 0 l 87 87 l 174 87 l 174 174 l 260 174 l 260 260 l 347 260 l 347 521 l 0 521 l 0 608 l 521 608 l 521 260 l 434 260 l 434 174 l 347 174 l 347 87 l 260 87 l 260 0 l 87 0 z "},"ブ":{"ha":1215,"x_min":0,"x_max":1042,"o":"m 87 0 l 87 87 l 174 87 l 174 174 l 260 174 l 260 260 l 347 260 l 347 521 l 0 521 l 0 608 l 521 608 l 521 260 l 434 260 l 434 174 l 347 174 l 347 87 l 260 87 l 260 0 l 87 0 m 608 434 l 608 694 l 781 694 l 781 434 l 608 434 m 868 434 l 868 694 l 1042 694 l 1042 434 l 868 434 z "},"プ":{"ha":1128,"x_min":0,"x_max":1042,"o":"m 87 0 l 87 87 l 174 87 l 174 174 l 260 174 l 260 260 l 347 260 l 347 521 l 0 521 l 0 608 l 521 608 l 521 260 l 434 260 l 434 174 l 347 174 l 347 87 l 260 87 l 260 0 l 87 0 m 868 434 l 868 608 l 781 608 l 781 434 l 868 434 m 694 347 l 694 434 l 608 434 l 608 608 l 694 608 l 694 694 l 955 694 l 955 608 l 1042 608 l 1042 434 l 955 434 l 955 347 l 694 347 z "},"ヘ":{"ha":608,"x_min":0,"x_max":521,"o":"m 347 0 l 347 260 l 260 260 l 260 521 l 174 521 l 174 434 l 87 434 l 87 347 l 0 347 l 0 521 l 87 521 l 87 608 l 174 608 l 174 694 l 347 694 l 347 521 l 434 521 l 434 260 l 521 260 l 521 0 l 347 0 z "},"ベ":{"ha":1215,"x_min":0,"x_max":1042,"o":"m 347 0 l 347 260 l 260 260 l 260 521 l 174 521 l 174 434 l 87 434 l 87 347 l 0 347 l 0 521 l 87 521 l 87 608 l 174 608 l 174 694 l 347 694 l 347 521 l 434 521 l 434 260 l 521 260 l 521 0 l 347 0 m 608 434 l 608 694 l 781 694 l 781 434 l 608 434 m 868 434 l 868 694 l 1042 694 l 1042 434 l 868 434 z "},"ペ":{"ha":1215,"x_min":0,"x_max":1042,"o":"m 868 434 l 868 608 l 781 608 l 781 434 l 868 434 m 347 0 l 347 260 l 260 260 l 260 521 l 174 521 l 174 434 l 87 434 l 87 347 l 0 347 l 0 521 l 87 521 l 87 608 l 174 608 l 174 694 l 347 694 l 347 521 l 434 521 l 434 260 l 521 260 l 521 0 l 347 0 m 694 347 l 694 434 l 608 434 l 608 608 l 694 608 l 694 694 l 955 694 l 955 608 l 1042 608 l 1042 434 l 955 434 l 955 347 l 694 347 z "},"ホ":{"ha":608,"x_min":0,"x_max":521,"o":"m 0 87 l 0 347 l 87 347 l 87 87 l 0 87 m 434 87 l 434 347 l 521 347 l 521 87 l 434 87 m 174 0 l 174 521 l 0 521 l 0 608 l 174 608 l 174 694 l 347 694 l 347 608 l 521 608 l 521 521 l 347 521 l 347 0 l 174 0 z "},"ボ":{"ha":1215,"x_min":0,"x_max":1042,"o":"m 0 87 l 0 347 l 87 347 l 87 87 l 0 87 m 434 87 l 434 347 l 521 347 l 521 87 l 434 87 m 174 0 l 174 521 l 0 521 l 0 608 l 174 608 l 174 694 l 347 694 l 347 608 l 521 608 l 521 521 l 347 521 l 347 0 l 174 0 m 608 434 l 608 694 l 781 694 l 781 434 l 608 434 m 868 434 l 868 694 l 1042 694 l 1042 434 l 868 434 z "},"ポ":{"ha":1215,"x_min":0,"x_max":1042,"o":"m 0 87 l 0 347 l 87 347 l 87 87 l 0 87 m 434 87 l 434 347 l 521 347 l 521 87 l 434 87 m 868 434 l 868 608 l 781 608 l 781 434 l 868 434 m 174 0 l 174 521 l 0 521 l 0 608 l 174 608 l 174 694 l 347 694 l 347 608 l 521 608 l 521 521 l 347 521 l 347 0 l 174 0 m 694 347 l 694 434 l 608 434 l 608 608 l 694 608 l 694 694 l 955 694 l 955 608 l 1042 608 l 1042 434 l 955 434 l 955 347 l 694 347 z "},"マ":{"ha":608,"x_min":0,"x_max":521,"o":"m 260 0 l 260 87 l 174 87 l 174 174 l 87 174 l 87 260 l 0 260 l 0 347 l 174 347 l 174 260 l 260 260 l 260 347 l 347 347 l 347 521 l 0 521 l 0 608 l 521 608 l 521 347 l 434 347 l 434 260 l 347 260 l 347 87 l 434 87 l 434 0 l 260 0 z "},"ミ":{"ha":608,"x_min":0,"x_max":521,"o":"m 174 0 l 174 87 l 0 87 l 0 174 l 260 174 l 260 87 l 521 87 l 521 0 l 174 0 m 260 260 l 260 347 l 434 347 l 434 260 l 260 260 m 87 347 l 87 434 l 260 434 l 260 347 l 87 347 m 260 521 l 260 608 l 521 608 l 521 521 l 260 521 m 87 608 l 87 694 l 260 694 l 260 608 l 87 608 z "},"ム":{"ha":608,"x_min":0,"x_max":521,"o":"m 434 0 l 434 87 l 347 87 l 347 347 l 521 347 l 521 0 l 434 0 m 0 0 l 0 434 l 87 434 l 87 694 l 260 694 l 260 434 l 174 434 l 174 87 l 347 87 l 347 0 l 0 0 z "},"メ":{"ha":608,"x_min":0,"x_max":521,"o":"m 347 0 l 347 174 l 434 174 l 434 87 l 521 87 l 521 0 l 347 0 m 87 260 l 87 347 l 0 347 l 0 521 l 174 521 l 174 260 l 87 260 m 0 0 l 0 174 l 174 174 l 174 260 l 260 260 l 260 347 l 347 347 l 347 694 l 521 694 l 521 347 l 434 347 l 434 260 l 347 260 l 347 174 l 260 174 l 260 87 l 174 87 l 174 0 l 0 0 z "},"モ":{"ha":608,"x_min":0,"x_max":521,"o":"m 174 0 l 174 87 l 87 87 l 87 434 l 0 434 l 0 521 l 87 521 l 87 608 l 0 608 l 0 694 l 434 694 l 434 608 l 260 608 l 260 521 l 521 521 l 521 434 l 260 434 l 260 87 l 521 87 l 521 0 l 174 0 z "},"ャ":{"ha":608,"x_min":0,"x_max":521,"o":"m 87 0 l 87 347 l 0 347 l 0 434 l 87 434 l 87 521 l 260 521 l 260 434 l 521 434 l 521 174 l 347 174 l 347 347 l 260 347 l 260 0 l 87 0 z "},"ヤ":{"ha":608,"x_min":0,"x_max":521,"o":"m 87 0 l 87 521 l 0 521 l 0 608 l 87 608 l 87 694 l 260 694 l 260 608 l 521 608 l 521 260 l 347 260 l 347 521 l 260 521 l 260 0 l 87 0 z "},"ュ":{"ha":608,"x_min":0,"x_max":521,"o":"m 0 0 l 0 87 l 260 87 l 260 434 l 87 434 l 87 521 l 434 521 l 434 87 l 521 87 l 521 0 l 0 0 z "},"ユ":{"ha":608,"x_min":0,"x_max":521,"o":"m 0 0 l 0 87 l 260 87 l 260 521 l 0 521 l 0 608 l 434 608 l 434 87 l 521 87 l 521 0 l 0 0 z "},"ョ":{"ha":608,"x_min":0,"x_max":521,"o":"m 0 0 l 0 87 l 347 87 l 347 260 l 0 260 l 0 347 l 347 347 l 347 434 l 0 434 l 0 521 l 521 521 l 521 0 l 0 0 z "},"ヨ":{"ha":608,"x_min":0,"x_max":521,"o":"m 0 0 l 0 87 l 347 87 l 347 260 l 0 260 l 0 347 l 347 347 l 347 521 l 0 521 l 0 608 l 521 608 l 521 0 l 0 0 z "},"ラ":{"ha":608,"x_min":0,"x_max":521,"o":"m 87 0 l 87 87 l 260 87 l 260 174 l 347 174 l 347 434 l 0 434 l 0 521 l 521 521 l 521 174 l 434 174 l 434 87 l 347 87 l 347 0 l 87 0 m 87 608 l 87 694 l 434 694 l 434 608 l 87 608 z "},"リ":{"ha":608,"x_min":0,"x_max":521,"o":"m 0 260 l 0 694 l 174 694 l 174 260 l 0 260 m 260 0 l 260 174 l 347 174 l 347 694 l 521 694 l 521 174 l 434 174 l 434 0 l 260 0 z "},"ル":{"ha":608,"x_min":0,"x_max":521,"o":"m 0 0 l 0 608 l 174 608 l 174 0 l 0 0 m 260 0 l 260 694 l 434 694 l 434 87 l 521 87 l 521 0 l 260 0 z "},"レ":{"ha":608,"x_min":0,"x_max":521,"o":"m 0 0 l 0 694 l 174 694 l 174 87 l 260 87 l 260 174 l 347 174 l 347 347 l 521 347 l 521 174 l 434 174 l 434 87 l 347 87 l 347 0 l 0 0 z "},"ロ":{"ha":608,"x_min":0,"x_max":521,"o":"m 347 87 l 347 521 l 174 521 l 174 87 l 347 87 m 0 0 l 0 608 l 521 608 l 521 0 l 0 0 z "},"ヮ":{"ha":608,"x_min":0,"x_max":521,"o":"m 87 0 l 87 87 l 260 87 l 260 174 l 347 174 l 347 434 l 174 434 l 174 260 l 0 260 l 0 521 l 521 521 l 521 174 l 434 174 l 434 87 l 347 87 l 347 0 l 87 0 z "},"ワ":{"ha":608,"x_min":0,"x_max":521,"o":"m 87 0 l 87 87 l 260 87 l 260 174 l 347 174 l 347 521 l 174 521 l 174 260 l 0 260 l 0 608 l 521 608 l 521 174 l 434 174 l 434 87 l 347 87 l 347 0 l 87 0 z "},"ヰ":{"ha":608,"x_min":0,"x_max":521,"o":"m 260 260 l 260 521 l 174 521 l 174 260 l 260 260 m 260 0 l 260 174 l 0 174 l 0 260 l 87 260 l 87 521 l 0 521 l 0 608 l 260 608 l 260 694 l 434 694 l 434 608 l 521 608 l 521 521 l 434 521 l 434 260 l 521 260 l 521 174 l 434 174 l 434 0 l 260 0 z "},"ヱ":{"ha":608,"x_min":0,"x_max":521,"o":"m 0 0 l 0 87 l 174 87 l 174 434 l 347 434 l 347 521 l 0 521 l 0 608 l 521 608 l 521 347 l 434 347 l 434 260 l 347 260 l 347 87 l 521 87 l 521 0 l 0 0 z "},"ヲ":{"ha":608,"x_min":0,"x_max":521,"o":"m 87 0 l 87 87 l 260 87 l 260 174 l 347 174 l 347 347 l 87 347 l 87 434 l 347 434 l 347 521 l 0 521 l 0 608 l 521 608 l 521 174 l 434 174 l 434 87 l 347 87 l 347 0 l 87 0 z "},"ン":{"ha":608,"x_min":0,"x_max":521,"o":"m 0 0 l 0 87 l 260 87 l 260 174 l 347 174 l 347 434 l 521 434 l 521 174 l 434 174 l 434 87 l 347 87 l 347 0 l 0 0 m 0 521 l 0 694 l 174 694 l 174 608 l 260 608 l 260 521 l 0 521 z "},"ヴ":{"ha":1215,"x_min":0,"x_max":1042,"o":"m 87 0 l 87 87 l 260 87 l 260 174 l 347 174 l 347 521 l 174 521 l 174 347 l 0 347 l 0 608 l 174 608 l 174 694 l 347 694 l 347 608 l 521 608 l 521 174 l 434 174 l 434 87 l 347 87 l 347 0 l 87 0 m 608 434 l 608 694 l 781 694 l 781 434 l 608 434 m 868 434 l 868 694 l 1042 694 l 1042 434 l 868 434 z "},"ヵ":{"ha":608,"x_min":0,"x_max":521,"o":"m 0 0 l 0 87 l 87 87 l 87 347 l 0 347 l 0 434 l 87 434 l 87 521 l 260 521 l 260 434 l 521 434 l 521 0 l 347 0 l 347 347 l 260 347 l 260 87 l 174 87 l 174 0 l 0 0 z "},"ヶ":{"ha":608,"x_min":0,"x_max":521,"o":"m 174 0 l 174 87 l 260 87 l 260 347 l 174 347 l 174 174 l 0 174 l 0 521 l 174 521 l 174 434 l 521 434 l 521 347 l 434 347 l 434 87 l 347 87 l 347 0 l 174 0 z "},"・":{"ha":608,"x_min":174,"x_max":347,"o":"m 174 260 l 174 434 l 347 434 l 347 260 l 174 260 z "},"ー":{"ha":608,"x_min":0,"x_max":521,"o":"m 0 434 l 0 521 l 174 521 l 174 434 l 521 434 l 521 347 l 87 347 l 87 434 l 0 434 z "},"ヽ":{"ha":608,"x_min":87,"x_max":434,"o":"m 260 260 l 260 347 l 174 347 l 174 434 l 87 434 l 87 521 l 260 521 l 260 434 l 347 434 l 347 347 l 434 347 l 434 260 l 260 260 z "},"ヾ":{"ha":1215,"x_min":87,"x_max":1042,"o":"m 260 260 l 260 347 l 174 347 l 174 434 l 87 434 l 87 521 l 260 521 l 260 434 l 347 434 l 347 347 l 434 347 l 434 260 l 260 260 m 608 434 l 608 694 l 781 694 l 781 434 l 608 434 m 868 434 l 868 694 l 1042 694 l 1042 434 l 868 434 z "},"ﬀ":{"ha":868,"x_min":0,"x_max":781,"o":"m 87 0 l 87 434 l 0 434 l 0 521 l 87 521 l 87 608 l 174 608 l 174 694 l 347 694 l 347 608 l 260 608 l 260 521 l 434 521 l 434 608 l 521 608 l 521 694 l 781 694 l 781 608 l 608 608 l 608 521 l 781 521 l 781 434 l 608 434 l 608 0 l 434 0 l 434 434 l 260 434 l 260 0 l 87 0 z "},"ﬁ":{"ha":781,"x_min":0,"x_max":694,"o":"m 87 0 l 87 434 l 0 434 l 0 521 l 87 521 l 87 608 l 174 608 l 174 694 l 608 694 l 608 608 l 260 608 l 260 521 l 608 521 l 608 87 l 694 87 l 694 0 l 521 0 l 521 87 l 434 87 l 434 434 l 260 434 l 260 0 l 87 0 z "},"ﬂ":{"ha":781,"x_min":0,"x_max":694,"o":"m 87 0 l 87 434 l 0 434 l 0 521 l 87 521 l 87 608 l 174 608 l 174 694 l 608 694 l 608 87 l 694 87 l 694 0 l 521 0 l 521 87 l 434 87 l 434 608 l 260 608 l 260 521 l 347 521 l 347 434 l 260 434 l 260 0 l 87 0 z "},"ﬃ":{"ha":1128,"x_min":0,"x_max":1042,"o":"m 87 0 l 87 434 l 0 434 l 0 521 l 87 521 l 87 608 l 174 608 l 174 694 l 347 694 l 347 608 l 260 608 l 260 521 l 434 521 l 434 608 l 521 608 l 521 694 l 955 694 l 955 608 l 608 608 l 608 521 l 955 521 l 955 87 l 1042 87 l 1042 0 l 868 0 l 868 87 l 781 87 l 781 434 l 608 434 l 608 0 l 434 0 l 434 434 l 260 434 l 260 0 l 87 0 z "},"ﬄ":{"ha":1128,"x_min":0,"x_max":1042,"o":"m 87 0 l 87 434 l 0 434 l 0 521 l 87 521 l 87 608 l 174 608 l 174 694 l 347 694 l 347 608 l 260 608 l 260 521 l 434 521 l 434 608 l 521 608 l 521 694 l 955 694 l 955 87 l 1042 87 l 1042 0 l 868 0 l 868 87 l 781 87 l 781 608 l 608 608 l 608 521 l 694 521 l 694 434 l 608 434 l 608 0 l 434 0 l 434 434 l 260 434 l 260 0 l 87 0 z "},"！":{"ha":608,"x_min":174,"x_max":347,"o":"m 174 0 l 174 87 l 347 87 l 347 0 l 174 0 m 174 174 l 174 694 l 347 694 l 347 174 l 174 174 z "},"＂":{"ha":608,"x_min":0,"x_max":434,"o":"m 0 347 l 0 434 l 87 434 l 87 347 l 0 347 m 260 347 l 260 434 l 347 434 l 347 347 l 260 347 m 87 434 l 87 521 l 0 521 l 0 694 l 174 694 l 174 434 l 87 434 m 347 434 l 347 521 l 260 521 l 260 694 l 434 694 l 434 434 l 347 434 z "},"＃":{"ha":608,"x_min":0,"x_max":521,"o":"m 347 260 l 347 434 l 260 434 l 260 260 l 347 260 m 87 0 l 87 174 l 0 174 l 0 260 l 87 260 l 87 434 l 0 434 l 0 521 l 87 521 l 87 694 l 260 694 l 260 521 l 347 521 l 347 694 l 521 694 l 521 0 l 347 0 l 347 174 l 260 174 l 260 0 l 87 0 z "},"＄":{"ha":608,"x_min":0,"x_max":521,"o":"m 174 -87 l 174 0 l 87 0 l 87 87 l 0 87 l 0 174 l 174 174 l 174 87 l 347 87 l 347 260 l 87 260 l 87 347 l 0 347 l 0 521 l 87 521 l 87 608 l 174 608 l 174 694 l 347 694 l 347 608 l 434 608 l 434 521 l 521 521 l 521 434 l 347 434 l 347 521 l 174 521 l 174 347 l 434 347 l 434 260 l 521 260 l 521 87 l 434 87 l 434 0 l 347 0 l 347 -87 l 174 -87 z "},"％":{"ha":608,"x_min":0,"x_max":521,"o":"m 347 0 l 347 174 l 521 174 l 521 0 l 347 0 m 0 521 l 0 694 l 174 694 l 174 521 l 0 521 m 0 0 l 0 174 l 87 174 l 87 260 l 174 260 l 174 434 l 260 434 l 260 521 l 347 521 l 347 694 l 521 694 l 521 521 l 434 521 l 434 434 l 347 434 l 347 260 l 260 260 l 260 174 l 174 174 l 174 0 l 0 0 z "},"＆":{"ha":608,"x_min":0,"x_max":521,"o":"m 347 0 l 347 87 l 260 87 l 260 347 l 347 347 l 347 434 l 521 434 l 521 347 l 434 347 l 434 87 l 521 87 l 521 0 l 347 0 m 87 0 l 87 87 l 0 87 l 0 347 l 87 347 l 87 434 l 0 434 l 0 608 l 87 608 l 87 694 l 347 694 l 347 608 l 434 608 l 434 521 l 260 521 l 260 608 l 174 608 l 174 434 l 260 434 l 260 347 l 174 347 l 174 87 l 260 87 l 260 0 l 87 0 z "},"＇":{"ha":608,"x_min":174,"x_max":347,"o":"m 174 347 l 174 434 l 260 434 l 260 347 l 174 347 m 260 434 l 260 521 l 174 521 l 174 694 l 347 694 l 347 434 l 260 434 z "},"（":{"ha":608,"x_min":174,"x_max":521,"o":"m 347 0 l 347 87 l 260 87 l 260 174 l 174 174 l 174 521 l 260 521 l 260 608 l 347 608 l 347 694 l 521 694 l 521 608 l 434 608 l 434 521 l 347 521 l 347 174 l 434 174 l 434 87 l 521 87 l 521 0 l 347 0 z "},"）":{"ha":608,"x_min":0,"x_max":347,"o":"m 0 0 l 0 87 l 87 87 l 87 174 l 174 174 l 174 521 l 87 521 l 87 608 l 0 608 l 0 694 l 174 694 l 174 608 l 260 608 l 260 521 l 347 521 l 347 174 l 260 174 l 260 87 l 174 87 l 174 0 l 0 0 z "},"＊":{"ha":608,"x_min":0,"x_max":521,"o":"m 174 87 l 174 260 l 87 260 l 87 174 l 0 174 l 0 347 l 87 347 l 87 434 l 0 434 l 0 608 l 87 608 l 87 521 l 174 521 l 174 694 l 347 694 l 347 521 l 434 521 l 434 608 l 521 608 l 521 434 l 434 434 l 434 347 l 521 347 l 521 174 l 434 174 l 434 260 l 347 260 l 347 87 l 174 87 z "},"＋":{"ha":608,"x_min":0,"x_max":521,"o":"m 174 87 l 174 260 l 0 260 l 0 347 l 174 347 l 174 521 l 347 521 l 347 347 l 521 347 l 521 260 l 347 260 l 347 87 l 174 87 z "},"，":{"ha":608,"x_min":0,"x_max":174,"o":"m 0 -87 l 0 0 l 87 0 l 87 -87 l 0 -87 m 87 0 l 87 87 l 0 87 l 0 260 l 174 260 l 174 0 l 87 0 z "},"－":{"ha":608,"x_min":0,"x_max":521,"o":"m 0 260 l 0 347 l 521 347 l 521 260 l 0 260 z "},"．":{"ha":608,"x_min":0,"x_max":174,"o":"m 0 0 l 0 174 l 174 174 l 174 0 l 0 0 z "},"／":{"ha":608,"x_min":0,"x_max":521,"o":"m 0 0 l 0 174 l 87 174 l 87 260 l 174 260 l 174 434 l 260 434 l 260 521 l 347 521 l 347 694 l 521 694 l 521 521 l 434 521 l 434 434 l 347 434 l 347 260 l 260 260 l 260 174 l 174 174 l 174 0 l 0 0 z "},"？":{"ha":608,"x_min":0,"x_max":521,"o":"m 174 0 l 174 87 l 347 87 l 347 0 l 174 0 m 174 174 l 174 347 l 260 347 l 260 434 l 347 434 l 347 608 l 174 608 l 174 521 l 0 521 l 0 608 l 87 608 l 87 694 l 434 694 l 434 608 l 521 608 l 521 434 l 434 434 l 434 347 l 347 347 l 347 174 l 174 174 z "},"｡":{"ha":608,"x_min":0,"x_max":434,"o":"m 0 87 l 0 260 l 87 260 l 87 347 l 347 347 l 347 260 l 434 260 l 434 87 l 347 87 l 347 0 l 87 0 l 87 87 l 0 87 m 174 87 l 260 87 l 260 260 l 174 260 l 174 87 z "},"｢":{"ha":608,"x_min":174,"x_max":521,"o":"m 174 260 l 174 694 l 521 694 l 521 608 l 347 608 l 347 260 l 174 260 z "},"｣":{"ha":608,"x_min":0,"x_max":347,"o":"m 347 434 l 347 0 l 0 0 l 0 87 l 174 87 l 174 434 l 347 434 z "},"､":{"ha":608,"x_min":0,"x_max":347,"o":"m 0 260 l 174 260 l 174 174 l 260 174 l 260 87 l 347 87 l 347 0 l 174 0 l 174 87 l 87 87 l 87 174 l 0 174 l 0 260 z "},"･":{"ha":608,"x_min":174,"x_max":347,"o":"m 174 260 l 174 434 l 347 434 l 347 260 l 174 260 z "},"ｦ":{"ha":608,"x_min":0,"x_max":521,"o":"m 87 0 l 87 87 l 260 87 l 260 174 l 347 174 l 347 347 l 87 347 l 87 434 l 347 434 l 347 521 l 0 521 l 0 608 l 521 608 l 521 174 l 434 174 l 434 87 l 347 87 l 347 0 l 87 0 z "},"ｧ":{"ha":608,"x_min":0,"x_max":521,"o":"m 0 0 l 0 87 l 87 87 l 87 347 l 260 347 l 260 260 l 347 260 l 347 434 l 0 434 l 0 521 l 521 521 l 521 260 l 434 260 l 434 174 l 260 174 l 260 87 l 174 87 l 174 0 l 0 0 z "},"ｨ":{"ha":608,"x_min":0,"x_max":521,"o":"m 174 0 l 174 260 l 0 260 l 0 347 l 260 347 l 260 434 l 347 434 l 347 521 l 521 521 l 521 434 l 434 434 l 434 347 l 347 347 l 347 0 l 174 0 z "},"ｩ":{"ha":608,"x_min":0,"x_max":521,"o":"m 87 0 l 87 87 l 347 87 l 347 0 l 87 0 m 347 87 l 347 347 l 174 347 l 174 260 l 0 260 l 0 434 l 174 434 l 174 521 l 347 521 l 347 434 l 521 434 l 521 174 l 434 174 l 434 87 l 347 87 z "},"ｪ":{"ha":608,"x_min":0,"x_max":521,"o":"m 0 0 l 0 87 l 174 87 l 174 434 l 0 434 l 0 521 l 521 521 l 521 434 l 347 434 l 347 87 l 521 87 l 521 0 l 0 0 z "},"ｫ":{"ha":608,"x_min":0,"x_max":521,"o":"m 0 0 l 0 174 l 87 174 l 87 260 l 174 260 l 174 347 l 0 347 l 0 434 l 260 434 l 260 521 l 434 521 l 434 434 l 521 434 l 521 347 l 434 347 l 434 0 l 260 0 l 260 174 l 174 174 l 174 0 l 0 0 z "},"ｬ":{"ha":608,"x_min":0,"x_max":521,"o":"m 87 0 l 87 347 l 0 347 l 0 434 l 87 434 l 87 521 l 260 521 l 260 434 l 521 434 l 521 174 l 347 174 l 347 347 l 260 347 l 260 0 l 87 0 z "},"ｭ":{"ha":608,"x_min":0,"x_max":521,"o":"m 0 0 l 0 87 l 260 87 l 260 434 l 87 434 l 87 521 l 434 521 l 434 87 l 521 87 l 521 0 l 0 0 z "},"ｮ":{"ha":608,"x_min":0,"x_max":521,"o":"m 0 0 l 0 87 l 347 87 l 347 260 l 0 260 l 0 347 l 347 347 l 347 434 l 0 434 l 0 521 l 521 521 l 521 0 l 0 0 z "},"ｯ":{"ha":608,"x_min":0,"x_max":521,"o":"m 87 0 l 87 87 l 260 87 l 260 174 l 347 174 l 347 434 l 521 434 l 521 174 l 434 174 l 434 87 l 347 87 l 347 0 l 87 0 m 0 260 l 0 521 l 87 521 l 87 260 l 0 260 m 174 260 l 174 521 l 260 521 l 260 260 l 174 260 z "},"ｰ":{"ha":608,"x_min":0,"x_max":521,"o":"m 0 434 l 0 521 l 174 521 l 174 434 l 521 434 l 521 347 l 87 347 l 87 434 l 0 434 z "},"ｱ":{"ha":608,"x_min":0,"x_max":521,"o":"m 0 0 l 0 87 l 87 87 l 87 434 l 260 434 l 260 347 l 347 347 l 347 521 l 0 521 l 0 608 l 521 608 l 521 347 l 434 347 l 434 260 l 260 260 l 260 87 l 174 87 l 174 0 l 0 0 z "},"ｲ":{"ha":608,"x_min":0,"x_max":521,"o":"m 174 0 l 174 347 l 0 347 l 0 434 l 260 434 l 260 521 l 347 521 l 347 694 l 521 694 l 521 521 l 434 521 l 434 434 l 347 434 l 347 0 l 174 0 z "},"ｳ":{"ha":608,"x_min":0,"x_max":521,"o":"m 87 0 l 87 87 l 260 87 l 260 174 l 347 174 l 347 521 l 174 521 l 174 347 l 0 347 l 0 608 l 174 608 l 174 694 l 347 694 l 347 608 l 521 608 l 521 174 l 434 174 l 434 87 l 347 87 l 347 0 l 87 0 z "},"ｴ":{"ha":608,"x_min":0,"x_max":521,"o":"m 0 0 l 0 87 l 174 87 l 174 521 l 0 521 l 0 608 l 521 608 l 521 521 l 347 521 l 347 87 l 521 87 l 521 0 l 0 0 z "},"ｵ":{"ha":608,"x_min":0,"x_max":521,"o":"m 0 0 l 0 174 l 87 174 l 87 347 l 174 347 l 174 434 l 260 434 l 260 521 l 0 521 l 0 608 l 260 608 l 260 694 l 434 694 l 434 608 l 521 608 l 521 521 l 434 521 l 434 0 l 260 0 l 260 260 l 174 260 l 174 0 l 0 0 z "},"ｶ":{"ha":608,"x_min":0,"x_max":521,"o":"m 0 0 l 0 87 l 87 87 l 87 521 l 0 521 l 0 608 l 87 608 l 87 694 l 260 694 l 260 608 l 521 608 l 521 0 l 347 0 l 347 521 l 260 521 l 260 87 l 174 87 l 174 0 l 0 0 z "},"ｷ":{"ha":608,"x_min":0,"x_max":521,"o":"m 174 0 l 174 260 l 0 260 l 0 347 l 174 347 l 174 521 l 0 521 l 0 608 l 174 608 l 174 694 l 347 694 l 347 608 l 521 608 l 521 521 l 347 521 l 347 347 l 521 347 l 521 260 l 347 260 l 347 0 l 174 0 z "},"ｸ":{"ha":608,"x_min":0,"x_max":521,"o":"m 87 0 l 87 87 l 260 87 l 260 174 l 347 174 l 347 521 l 174 521 l 174 260 l 0 260 l 0 521 l 87 521 l 87 694 l 260 694 l 260 608 l 521 608 l 521 174 l 434 174 l 434 87 l 347 87 l 347 0 l 87 0 z "},"ｹ":{"ha":608,"x_min":0,"x_max":521,"o":"m 87 0 l 87 87 l 260 87 l 260 521 l 174 521 l 174 260 l 0 260 l 0 694 l 174 694 l 174 608 l 521 608 l 521 521 l 434 521 l 434 87 l 347 87 l 347 0 l 87 0 z "},"ｺ":{"ha":608,"x_min":0,"x_max":521,"o":"m 0 0 l 0 87 l 347 87 l 347 521 l 0 521 l 0 608 l 521 608 l 521 0 l 0 0 z "},"ｻ":{"ha":608,"x_min":0,"x_max":521,"o":"m 87 0 l 87 87 l 260 87 l 260 521 l 174 521 l 174 260 l 87 260 l 87 521 l 0 521 l 0 608 l 87 608 l 87 694 l 174 694 l 174 608 l 260 608 l 260 694 l 434 694 l 434 608 l 521 608 l 521 521 l 434 521 l 434 87 l 347 87 l 347 0 l 87 0 z "},"ｼ":{"ha":608,"x_min":0,"x_max":521,"o":"m 0 260 l 0 434 l 174 434 l 174 347 l 260 347 l 260 260 l 0 260 m 0 0 l 0 87 l 260 87 l 260 174 l 347 174 l 347 434 l 521 434 l 521 174 l 434 174 l 434 87 l 347 87 l 347 0 l 0 0 m 0 521 l 0 694 l 174 694 l 174 608 l 260 608 l 260 521 l 0 521 z "},"ｽ":{"ha":608,"x_min":0,"x_max":521,"o":"m 347 0 l 347 174 l 434 174 l 434 87 l 521 87 l 521 0 l 347 0 m 0 0 l 0 174 l 174 174 l 174 260 l 260 260 l 260 347 l 347 347 l 347 521 l 0 521 l 0 608 l 521 608 l 521 347 l 434 347 l 434 260 l 347 260 l 347 174 l 260 174 l 260 87 l 174 87 l 174 0 l 0 0 z "},"ｾ":{"ha":608,"x_min":0,"x_max":521,"o":"m 174 0 l 174 87 l 87 87 l 87 521 l 0 521 l 0 608 l 87 608 l 87 694 l 260 694 l 260 608 l 521 608 l 521 347 l 347 347 l 347 521 l 260 521 l 260 87 l 521 87 l 521 0 l 174 0 z "},"ｿ":{"ha":608,"x_min":0,"x_max":521,"o":"m 87 260 l 87 347 l 0 347 l 0 694 l 174 694 l 174 347 l 260 347 l 260 260 l 87 260 m 87 0 l 87 87 l 260 87 l 260 174 l 347 174 l 347 694 l 521 694 l 521 174 l 434 174 l 434 87 l 347 87 l 347 0 l 87 0 z "},"ﾀ":{"ha":608,"x_min":0,"x_max":521,"o":"m 347 347 l 347 521 l 174 521 l 174 347 l 347 347 m 174 0 l 174 87 l 347 87 l 347 260 l 174 260 l 174 174 l 0 174 l 0 694 l 174 694 l 174 608 l 521 608 l 521 87 l 434 87 l 434 0 l 174 0 z "},"ﾁ":{"ha":608,"x_min":0,"x_max":521,"o":"m 0 0 l 0 87 l 174 87 l 174 347 l 0 347 l 0 434 l 174 434 l 174 521 l 87 521 l 87 608 l 347 608 l 347 694 l 521 694 l 521 608 l 434 608 l 434 521 l 347 521 l 347 434 l 521 434 l 521 347 l 347 347 l 347 87 l 260 87 l 260 0 l 0 0 z "},"ﾂ":{"ha":608,"x_min":0,"x_max":521,"o":"m 0 347 l 0 608 l 87 608 l 87 347 l 0 347 m 174 347 l 174 608 l 260 608 l 260 347 l 174 347 m 87 0 l 87 87 l 260 87 l 260 174 l 347 174 l 347 608 l 521 608 l 521 174 l 434 174 l 434 87 l 347 87 l 347 0 l 87 0 z "},"ﾃ":{"ha":608,"x_min":0,"x_max":521,"o":"m 87 0 l 87 87 l 174 87 l 174 434 l 0 434 l 0 521 l 521 521 l 521 434 l 347 434 l 347 87 l 260 87 l 260 0 l 87 0 m 87 608 l 87 694 l 434 694 l 434 608 l 87 608 z "},"ﾄ":{"ha":608,"x_min":0,"x_max":521,"o":"m 347 260 l 347 347 l 521 347 l 521 260 l 347 260 m 0 0 l 0 694 l 174 694 l 174 434 l 347 434 l 347 347 l 174 347 l 174 0 l 0 0 z "},"ﾅ":{"ha":608,"x_min":0,"x_max":521,"o":"m 87 0 l 87 87 l 174 87 l 174 174 l 260 174 l 260 521 l 0 521 l 0 608 l 260 608 l 260 694 l 434 694 l 434 608 l 521 608 l 521 521 l 434 521 l 434 174 l 347 174 l 347 87 l 260 87 l 260 0 l 87 0 z "},"ﾆ":{"ha":608,"x_min":0,"x_max":521,"o":"m 0 0 l 0 87 l 521 87 l 521 0 l 0 0 m 0 521 l 0 608 l 521 608 l 521 521 l 0 521 z "},"ﾇ":{"ha":608,"x_min":0,"x_max":521,"o":"m 347 0 l 347 174 l 434 174 l 434 87 l 521 87 l 521 0 l 347 0 m 87 260 l 87 347 l 0 347 l 0 434 l 174 434 l 174 260 l 87 260 m 0 0 l 0 174 l 174 174 l 174 260 l 260 260 l 260 347 l 347 347 l 347 521 l 0 521 l 0 608 l 521 608 l 521 347 l 434 347 l 434 260 l 347 260 l 347 174 l 260 174 l 260 87 l 174 87 l 174 0 l 0 0 z "},"ﾈ":{"ha":608,"x_min":0,"x_max":521,"o":"m 434 87 l 434 174 l 521 174 l 521 87 l 434 87 m 174 0 l 174 174 l 0 174 l 0 260 l 174 260 l 174 347 l 260 347 l 260 434 l 347 434 l 347 521 l 0 521 l 0 608 l 174 608 l 174 694 l 347 694 l 347 608 l 521 608 l 521 434 l 434 434 l 434 347 l 347 347 l 347 260 l 434 260 l 434 174 l 347 174 l 347 0 l 174 0 z "},"ﾉ":{"ha":608,"x_min":0,"x_max":521,"o":"m 0 0 l 0 87 l 174 87 l 174 174 l 260 174 l 260 260 l 347 260 l 347 694 l 521 694 l 521 260 l 434 260 l 434 174 l 347 174 l 347 87 l 260 87 l 260 0 l 0 0 z "},"ﾊ":{"ha":608,"x_min":0,"x_max":521,"o":"m 0 0 l 0 608 l 174 608 l 174 0 l 0 0 m 347 0 l 347 608 l 260 608 l 260 694 l 434 694 l 434 608 l 521 608 l 521 0 l 347 0 z "},"ﾋ":{"ha":608,"x_min":0,"x_max":521,"o":"m 87 0 l 87 87 l 0 87 l 0 694 l 174 694 l 174 434 l 347 434 l 347 608 l 521 608 l 521 434 l 434 434 l 434 347 l 174 347 l 174 87 l 521 87 l 521 0 l 87 0 z "},"ﾌ":{"ha":608,"x_min":0,"x_max":521,"o":"m 87 0 l 87 87 l 174 87 l 174 174 l 260 174 l 260 260 l 347 260 l 347 521 l 0 521 l 0 608 l 521 608 l 521 260 l 434 260 l 434 174 l 347 174 l 347 87 l 260 87 l 260 0 l 87 0 z "},"ﾍ":{"ha":608,"x_min":0,"x_max":521,"o":"m 347 0 l 347 260 l 260 260 l 260 521 l 174 521 l 174 434 l 87 434 l 87 347 l 0 347 l 0 521 l 87 521 l 87 608 l 174 608 l 174 694 l 347 694 l 347 521 l 434 521 l 434 260 l 521 260 l 521 0 l 347 0 z "},"ﾎ":{"ha":608,"x_min":0,"x_max":521,"o":"m 0 87 l 0 347 l 87 347 l 87 87 l 0 87 m 434 87 l 434 347 l 521 347 l 521 87 l 434 87 m 174 0 l 174 521 l 0 521 l 0 608 l 174 608 l 174 694 l 347 694 l 347 608 l 521 608 l 521 521 l 347 521 l 347 0 l 174 0 z "},"ﾏ":{"ha":608,"x_min":0,"x_max":521,"o":"m 260 0 l 260 87 l 174 87 l 174 174 l 87 174 l 87 260 l 0 260 l 0 347 l 174 347 l 174 260 l 260 260 l 260 347 l 347 347 l 347 521 l 0 521 l 0 608 l 521 608 l 521 347 l 434 347 l 434 260 l 347 260 l 347 87 l 434 87 l 434 0 l 260 0 z "},"ﾐ":{"ha":608,"x_min":0,"x_max":521,"o":"m 174 0 l 174 87 l 0 87 l 0 174 l 260 174 l 260 87 l 521 87 l 521 0 l 174 0 m 260 260 l 260 347 l 434 347 l 434 260 l 260 260 m 87 347 l 87 434 l 260 434 l 260 347 l 87 347 m 260 521 l 260 608 l 521 608 l 521 521 l 260 521 m 87 608 l 87 694 l 260 694 l 260 608 l 87 608 z "},"ﾑ":{"ha":608,"x_min":0,"x_max":521,"o":"m 434 0 l 434 87 l 347 87 l 347 347 l 521 347 l 521 0 l 434 0 m 0 0 l 0 434 l 87 434 l 87 694 l 260 694 l 260 434 l 174 434 l 174 87 l 347 87 l 347 0 l 0 0 z "},"ﾒ":{"ha":608,"x_min":0,"x_max":521,"o":"m 347 0 l 347 174 l 434 174 l 434 87 l 521 87 l 521 0 l 347 0 m 87 260 l 87 347 l 0 347 l 0 521 l 174 521 l 174 260 l 87 260 m 0 0 l 0 174 l 174 174 l 174 260 l 260 260 l 260 347 l 347 347 l 347 694 l 521 694 l 521 347 l 434 347 l 434 260 l 347 260 l 347 174 l 260 174 l 260 87 l 174 87 l 174 0 l 0 0 z "},"ﾓ":{"ha":608,"x_min":0,"x_max":521,"o":"m 174 0 l 174 87 l 87 87 l 87 434 l 0 434 l 0 521 l 87 521 l 87 608 l 0 608 l 0 694 l 434 694 l 434 608 l 260 608 l 260 521 l 521 521 l 521 434 l 260 434 l 260 87 l 521 87 l 521 0 l 174 0 z "},"ﾔ":{"ha":608,"x_min":0,"x_max":521,"o":"m 87 0 l 87 521 l 0 521 l 0 608 l 87 608 l 87 694 l 260 694 l 260 608 l 521 608 l 521 260 l 347 260 l 347 521 l 260 521 l 260 0 l 87 0 z "},"ﾕ":{"ha":608,"x_min":0,"x_max":521,"o":"m 0 0 l 0 87 l 260 87 l 260 521 l 0 521 l 0 608 l 434 608 l 434 87 l 521 87 l 521 0 l 0 0 z "},"ﾖ":{"ha":608,"x_min":0,"x_max":521,"o":"m 0 0 l 0 87 l 347 87 l 347 260 l 0 260 l 0 347 l 347 347 l 347 521 l 0 521 l 0 608 l 521 608 l 521 0 l 0 0 z "},"ﾗ":{"ha":608,"x_min":0,"x_max":521,"o":"m 87 0 l 87 87 l 260 87 l 260 174 l 347 174 l 347 434 l 0 434 l 0 521 l 521 521 l 521 174 l 434 174 l 434 87 l 347 87 l 347 0 l 87 0 m 87 608 l 87 694 l 434 694 l 434 608 l 87 608 z "},"ﾘ":{"ha":608,"x_min":0,"x_max":521,"o":"m 0 260 l 0 694 l 174 694 l 174 260 l 0 260 m 260 0 l 260 174 l 347 174 l 347 694 l 521 694 l 521 174 l 434 174 l 434 0 l 260 0 z "},"ﾙ":{"ha":608,"x_min":0,"x_max":521,"o":"m 0 0 l 0 608 l 174 608 l 174 0 l 0 0 m 260 0 l 260 694 l 434 694 l 434 87 l 521 87 l 521 0 l 260 0 z "},"ﾚ":{"ha":608,"x_min":0,"x_max":521,"o":"m 0 0 l 0 694 l 174 694 l 174 87 l 260 87 l 260 174 l 347 174 l 347 347 l 521 347 l 521 174 l 434 174 l 434 87 l 347 87 l 347 0 l 0 0 z "},"ﾛ":{"ha":608,"x_min":0,"x_max":521,"o":"m 347 87 l 347 521 l 174 521 l 174 87 l 347 87 m 0 0 l 0 608 l 521 608 l 521 0 l 0 0 z "},"ﾜ":{"ha":608,"x_min":0,"x_max":521,"o":"m 87 0 l 87 87 l 260 87 l 260 174 l 347 174 l 347 521 l 174 521 l 174 260 l 0 260 l 0 608 l 521 608 l 521 174 l 434 174 l 434 87 l 347 87 l 347 0 l 87 0 z "},"ﾝ":{"ha":608,"x_min":0,"x_max":521,"o":"m 0 0 l 0 87 l 260 87 l 260 174 l 347 174 l 347 434 l 521 434 l 521 174 l 434 174 l 434 87 l 347 87 l 347 0 l 0 0 m 0 521 l 0 694 l 174 694 l 174 608 l 260 608 l 260 521 l 0 521 z "},"ﾞ":{"ha":521,"x_min":0,"x_max":434,"o":"m 0 434 l 0 694 l 174 694 l 174 434 l 0 434 m 260 434 l 260 694 l 434 694 l 434 434 l 260 434 z "},"ﾟ":{"ha":608,"x_min":0,"x_max":434,"o":"m 260 434 l 260 608 l 174 608 l 174 434 l 260 434 m 87 347 l 87 434 l 0 434 l 0 608 l 87 608 l 87 694 l 347 694 l 347 608 l 434 608 l 434 434 l 347 434 l 347 347 l 87 347 z "}}}
